<?xml version="1.0" encoding="UTF-8"?>
<svg xmlns="http://www.w3.org/2000/svg" xmlns:xlink="http://www.w3.org/1999/xlink" width="383.518794pt" height="513.118794pt" viewBox="0 0 383.518794 513.118794" version="1.1" id="Fig:pca"><defs><g><symbol overflow="visible" id="pca-glyph0-0"><path style="stroke:none;" d=""/></symbol><symbol overflow="visible" id="pca-glyph0-1"><path style="stroke:none;" d="M 4.65625 0 L 3.558594 0 L 3.558594 -7 C 3.289063 -6.746094 2.941406 -6.492188 2.515625 -6.242188 C 2.085938 -5.988281 1.703125 -5.800781 1.359375 -5.675781 L 1.359375 -6.738281 C 1.972656 -7.027344 2.507813 -7.375 2.972656 -7.789063 C 3.429688 -8.195313 3.757813 -8.59375 3.949219 -8.984375 L 4.65625 -8.984375 Z M 4.65625 0 "/></symbol><symbol overflow="visible" id="pca-glyph0-2"><path style="stroke:none;" d="M 6.292969 -1.054688 L 6.292969 0 L 0.378906 0 C 0.367188 -0.265625 0.410156 -0.519531 0.507813 -0.761719 C 0.65625 -1.164063 0.898438 -1.558594 1.230469 -1.953125 C 1.558594 -2.339844 2.035156 -2.792969 2.667969 -3.308594 C 3.636719 -4.101563 4.292969 -4.734375 4.636719 -5.203125 C 4.976563 -5.667969 5.148438 -6.105469 5.152344 -6.523438 C 5.148438 -6.957031 4.992188 -7.324219 4.683594 -7.625 C 4.371094 -7.921875 3.96875 -8.074219 3.46875 -8.074219 C 2.9375 -8.074219 2.511719 -7.914063 2.195313 -7.597656 C 1.878906 -7.277344 1.71875 -6.839844 1.714844 -6.28125 L 0.585938 -6.398438 C 0.664063 -7.238281 0.953125 -7.878906 1.457031 -8.320313 C 1.960938 -8.761719 2.640625 -8.980469 3.492188 -8.984375 C 4.347656 -8.980469 5.023438 -8.742188 5.527344 -8.269531 C 6.027344 -7.789063 6.28125 -7.199219 6.28125 -6.5 C 6.28125 -6.140625 6.207031 -5.789063 6.058594 -5.445313 C 5.910156 -5.09375 5.664063 -4.730469 5.328125 -4.351563 C 4.984375 -3.964844 4.421875 -3.441406 3.636719 -2.777344 C 2.976563 -2.222656 2.554688 -1.84375 2.367188 -1.648438 C 2.179688 -1.449219 2.023438 -1.253906 1.90625 -1.054688 Z M 6.292969 -1.054688 "/></symbol><symbol overflow="visible" id="pca-glyph0-3"><path style="stroke:none;" d="M 0.523438 -2.363281 L 1.625 -2.507813 C 1.746094 -1.882813 1.960938 -1.433594 2.265625 -1.160156 C 2.566406 -0.886719 2.9375 -0.75 3.375 -0.75 C 3.890625 -0.75 4.324219 -0.925781 4.683594 -1.285156 C 5.035156 -1.640625 5.214844 -2.085938 5.21875 -2.617188 C 5.214844 -3.121094 5.050781 -3.539063 4.722656 -3.867188 C 4.394531 -4.195313 3.976563 -4.359375 3.46875 -4.359375 C 3.257813 -4.359375 2.996094 -4.316406 2.691406 -4.234375 L 2.8125 -5.199219 C 2.882813 -5.1875 2.941406 -5.183594 2.992188 -5.1875 C 3.457031 -5.183594 3.878906 -5.308594 4.253906 -5.554688 C 4.628906 -5.796875 4.816406 -6.171875 4.816406 -6.683594 C 4.816406 -7.085938 4.679688 -7.417969 4.40625 -7.683594 C 4.132813 -7.945313 3.78125 -8.078125 3.351563 -8.082031 C 2.921875 -8.078125 2.5625 -7.945313 2.28125 -7.675781 C 1.992188 -7.40625 1.8125 -7.003906 1.734375 -6.46875 L 0.632813 -6.664063 C 0.765625 -7.398438 1.070313 -7.96875 1.550781 -8.375 C 2.023438 -8.777344 2.617188 -8.980469 3.328125 -8.984375 C 3.8125 -8.980469 4.261719 -8.875 4.675781 -8.667969 C 5.085938 -8.457031 5.398438 -8.171875 5.617188 -7.8125 C 5.832031 -7.445313 5.941406 -7.0625 5.945313 -6.660156 C 5.941406 -6.269531 5.835938 -5.917969 5.632813 -5.601563 C 5.421875 -5.28125 5.117188 -5.027344 4.710938 -4.847656 C 5.238281 -4.722656 5.648438 -4.46875 5.941406 -4.085938 C 6.234375 -3.695313 6.378906 -3.214844 6.382813 -2.644531 C 6.378906 -1.859375 6.09375 -1.199219 5.527344 -0.65625 C 4.957031 -0.113281 4.238281 0.15625 3.367188 0.160156 C 2.582031 0.15625 1.929688 -0.0742188 1.410156 -0.542969 C 0.890625 -1.007813 0.59375 -1.613281 0.523438 -2.363281 Z M 0.523438 -2.363281 "/></symbol><symbol overflow="visible" id="pca-glyph0-4"><path style="stroke:none;" d="M 4.039063 0 L 4.039063 -2.140625 L 0.160156 -2.140625 L 0.160156 -3.148438 L 4.242188 -8.949219 L 5.140625 -8.949219 L 5.140625 -3.148438 L 6.347656 -3.148438 L 6.347656 -2.140625 L 5.140625 -2.140625 L 5.140625 0 Z M 4.039063 -3.148438 L 4.039063 -7.183594 L 1.238281 -3.148438 Z M 4.039063 -3.148438 "/></symbol><symbol overflow="visible" id="pca-glyph0-5"><path style="stroke:none;" d="M 0.519531 -2.34375 L 1.671875 -2.441406 C 1.753906 -1.875 1.953125 -1.453125 2.265625 -1.171875 C 2.574219 -0.890625 2.949219 -0.75 3.394531 -0.75 C 3.917969 -0.75 4.367188 -0.949219 4.734375 -1.347656 C 5.101563 -1.746094 5.285156 -2.273438 5.285156 -2.9375 C 5.285156 -3.558594 5.109375 -4.054688 4.757813 -4.417969 C 4.40625 -4.777344 3.945313 -4.957031 3.375 -4.960938 C 3.019531 -4.957031 2.699219 -4.875 2.414063 -4.71875 C 2.128906 -4.554688 1.90625 -4.347656 1.746094 -4.09375 L 0.714844 -4.230469 L 1.582031 -8.824219 L 6.03125 -8.824219 L 6.03125 -7.777344 L 2.460938 -7.777344 L 1.976563 -5.371094 C 2.507813 -5.742188 3.074219 -5.929688 3.667969 -5.933594 C 4.449219 -5.929688 5.105469 -5.660156 5.644531 -5.121094 C 6.179688 -4.578125 6.449219 -3.882813 6.453125 -3.035156 C 6.449219 -2.222656 6.214844 -1.519531 5.742188 -0.933594 C 5.167969 -0.207031 4.382813 0.152344 3.394531 0.152344 C 2.574219 0.152344 1.910156 -0.0742188 1.398438 -0.53125 C 0.882813 -0.984375 0.589844 -1.589844 0.519531 -2.34375 Z M 0.519531 -2.34375 "/></symbol><symbol overflow="visible" id="pca-glyph0-6"><path style="stroke:none;" d="M 6.21875 -6.757813 L 5.125 -6.671875 C 5.027344 -7.097656 4.890625 -7.410156 4.710938 -7.609375 C 4.414063 -7.921875 4.046875 -8.078125 3.613281 -8.082031 C 3.261719 -8.078125 2.953125 -7.980469 2.691406 -7.789063 C 2.339844 -7.53125 2.066406 -7.164063 1.871094 -6.683594 C 1.667969 -6.195313 1.566406 -5.503906 1.5625 -4.613281 C 1.824219 -5.011719 2.148438 -5.3125 2.53125 -5.511719 C 2.914063 -5.703125 3.3125 -5.800781 3.734375 -5.804688 C 4.464844 -5.800781 5.089844 -5.53125 5.605469 -4.996094 C 6.117188 -4.453125 6.375 -3.757813 6.378906 -2.90625 C 6.375 -2.34375 6.253906 -1.820313 6.015625 -1.339844 C 5.769531 -0.855469 5.4375 -0.484375 5.015625 -0.230469 C 4.59375 0.0273438 4.113281 0.152344 3.578125 0.152344 C 2.660156 0.152344 1.914063 -0.183594 1.335938 -0.855469 C 0.757813 -1.527344 0.46875 -2.636719 0.46875 -4.1875 C 0.46875 -5.914063 0.789063 -7.171875 1.429688 -7.960938 C 1.984375 -8.640625 2.734375 -8.980469 3.679688 -8.984375 C 4.382813 -8.980469 4.957031 -8.785156 5.410156 -8.390625 C 5.855469 -7.996094 6.125 -7.449219 6.21875 -6.757813 Z M 1.734375 -2.898438 C 1.734375 -2.519531 1.8125 -2.15625 1.972656 -1.8125 C 2.132813 -1.460938 2.359375 -1.199219 2.648438 -1.019531 C 2.9375 -0.839844 3.238281 -0.75 3.558594 -0.75 C 4.019531 -0.75 4.417969 -0.9375 4.753906 -1.3125 C 5.082031 -1.6875 5.25 -2.195313 5.253906 -2.839844 C 5.25 -3.453125 5.085938 -3.941406 4.757813 -4.300781 C 4.429688 -4.65625 4.015625 -4.832031 3.515625 -4.835938 C 3.015625 -4.832031 2.59375 -4.65625 2.25 -4.300781 C 1.90625 -3.941406 1.734375 -3.472656 1.734375 -2.898438 Z M 1.734375 -2.898438 "/></symbol><symbol overflow="visible" id="pca-glyph0-7"><path style="stroke:none;" d="M 0.59375 -7.777344 L 0.59375 -8.832031 L 6.382813 -8.832031 L 6.382813 -7.976563 C 5.8125 -7.367188 5.25 -6.5625 4.691406 -5.558594 C 4.128906 -4.554688 3.695313 -3.523438 3.394531 -2.460938 C 3.167969 -1.710938 3.027344 -0.890625 2.972656 0 L 1.84375 0 C 1.855469 -0.703125 1.992188 -1.550781 2.257813 -2.550781 C 2.519531 -3.542969 2.898438 -4.503906 3.394531 -5.433594 C 3.886719 -6.355469 4.414063 -7.136719 4.972656 -7.777344 Z M 0.59375 -7.777344 "/></symbol><symbol overflow="visible" id="pca-glyph0-8"><path style="stroke:none;" d="M 2.210938 -4.851563 C 1.75 -5.015625 1.414063 -5.253906 1.195313 -5.566406 C 0.976563 -5.875 0.867188 -6.242188 0.867188 -6.675781 C 0.867188 -7.324219 1.097656 -7.871094 1.566406 -8.316406 C 2.03125 -8.757813 2.65625 -8.980469 3.4375 -8.984375 C 4.214844 -8.980469 4.84375 -8.753906 5.320313 -8.304688 C 5.796875 -7.847656 6.035156 -7.296875 6.035156 -6.648438 C 6.035156 -6.230469 5.925781 -5.867188 5.707031 -5.5625 C 5.488281 -5.25 5.15625 -5.015625 4.71875 -4.851563 C 5.265625 -4.671875 5.683594 -4.382813 5.972656 -3.984375 C 6.253906 -3.585938 6.398438 -3.109375 6.402344 -2.558594 C 6.398438 -1.789063 6.128906 -1.144531 5.589844 -0.628906 C 5.046875 -0.105469 4.332031 0.152344 3.453125 0.152344 C 2.566406 0.152344 1.855469 -0.105469 1.316406 -0.628906 C 0.773438 -1.148438 0.503906 -1.800781 0.507813 -2.585938 C 0.503906 -3.164063 0.652344 -3.652344 0.949219 -4.050781 C 1.242188 -4.441406 1.660156 -4.710938 2.210938 -4.851563 Z M 1.988281 -6.714844 C 1.984375 -6.289063 2.121094 -5.941406 2.398438 -5.675781 C 2.667969 -5.40625 3.023438 -5.273438 3.460938 -5.273438 C 3.878906 -5.273438 4.226563 -5.40625 4.5 -5.671875 C 4.769531 -5.9375 4.902344 -6.261719 4.90625 -6.652344 C 4.902344 -7.050781 4.765625 -7.390625 4.488281 -7.667969 C 4.207031 -7.941406 3.859375 -8.078125 3.449219 -8.082031 C 3.027344 -8.078125 2.679688 -7.945313 2.402344 -7.675781 C 2.125 -7.40625 1.984375 -7.085938 1.988281 -6.714844 Z M 1.636719 -2.582031 C 1.632813 -2.265625 1.707031 -1.960938 1.859375 -1.671875 C 2.003906 -1.375 2.226563 -1.148438 2.519531 -0.992188 C 2.8125 -0.828125 3.128906 -0.75 3.46875 -0.75 C 3.992188 -0.75 4.421875 -0.917969 4.765625 -1.257813 C 5.105469 -1.59375 5.277344 -2.023438 5.28125 -2.546875 C 5.277344 -3.074219 5.101563 -3.511719 4.75 -3.855469 C 4.394531 -4.199219 3.953125 -4.371094 3.429688 -4.375 C 2.910156 -4.371094 2.484375 -4.199219 2.144531 -3.863281 C 1.804688 -3.519531 1.632813 -3.09375 1.636719 -2.582031 Z M 1.636719 -2.582031 "/></symbol><symbol overflow="visible" id="pca-glyph0-9"><path style="stroke:none;" d="M 0.414063 -3.242188 C 0.410156 -4.4375 0.742188 -5.328125 1.414063 -5.90625 C 1.96875 -6.386719 2.648438 -6.625 3.453125 -6.628906 C 4.34375 -6.625 5.074219 -6.332031 5.640625 -5.75 C 6.203125 -5.164063 6.484375 -4.359375 6.488281 -3.332031 C 6.484375 -2.496094 6.359375 -1.839844 6.113281 -1.363281 C 5.859375 -0.882813 5.496094 -0.511719 5.019531 -0.25 C 4.539063 0.015625 4.015625 0.144531 3.453125 0.148438 C 2.542969 0.144531 1.8125 -0.140625 1.253906 -0.722656 C 0.691406 -1.300781 0.410156 -2.140625 0.414063 -3.242188 Z M 1.542969 -3.242188 C 1.539063 -2.40625 1.722656 -1.785156 2.085938 -1.375 C 2.445313 -0.960938 2.898438 -0.753906 3.453125 -0.757813 C 3.996094 -0.753906 4.453125 -0.960938 4.816406 -1.378906 C 5.175781 -1.789063 5.355469 -2.421875 5.359375 -3.277344 C 5.355469 -4.074219 5.171875 -4.683594 4.8125 -5.097656 C 4.445313 -5.511719 3.992188 -5.71875 3.453125 -5.71875 C 2.898438 -5.71875 2.445313 -5.511719 2.085938 -5.101563 C 1.722656 -4.6875 1.539063 -4.066406 1.542969 -3.242188 Z M 1.542969 -3.242188 "/></symbol><symbol overflow="visible" id="pca-glyph0-10"><path style="stroke:none;" d="M 3.222656 -0.984375 L 3.382813 -0.0117188 C 3.070313 0.0507813 2.792969 0.0820313 2.550781 0.0859375 C 2.148438 0.0820313 1.839844 0.0234375 1.621094 -0.101563 C 1.398438 -0.226563 1.242188 -0.394531 1.15625 -0.601563 C 1.0625 -0.804688 1.019531 -1.238281 1.023438 -1.898438 L 1.023438 -5.628906 L 0.21875 -5.628906 L 0.21875 -6.480469 L 1.023438 -6.480469 L 1.023438 -8.085938 L 2.117188 -8.746094 L 2.117188 -6.480469 L 3.222656 -6.480469 L 3.222656 -5.628906 L 2.117188 -5.628906 L 2.117188 -1.835938 C 2.113281 -1.519531 2.132813 -1.320313 2.175781 -1.230469 C 2.210938 -1.140625 2.273438 -1.070313 2.363281 -1.019531 C 2.449219 -0.964844 2.578125 -0.9375 2.742188 -0.941406 C 2.859375 -0.9375 3.019531 -0.953125 3.222656 -0.984375 Z M 3.222656 -0.984375 "/></symbol><symbol overflow="visible" id="pca-glyph0-11"><path style="stroke:none;" d="M 0.824219 0 L 0.824219 -8.949219 L 1.921875 -8.949219 L 1.921875 -5.738281 C 2.433594 -6.328125 3.078125 -6.625 3.863281 -6.628906 C 4.339844 -6.625 4.757813 -6.53125 5.113281 -6.34375 C 5.464844 -6.152344 5.71875 -5.890625 5.871094 -5.558594 C 6.023438 -5.222656 6.097656 -4.738281 6.101563 -4.109375 L 6.101563 0 L 5.003906 0 L 5.003906 -4.109375 C 5.003906 -4.652344 4.882813 -5.050781 4.644531 -5.304688 C 4.40625 -5.554688 4.070313 -5.683594 3.636719 -5.683594 C 3.308594 -5.683594 3.003906 -5.597656 2.71875 -5.429688 C 2.429688 -5.257813 2.222656 -5.027344 2.105469 -4.742188 C 1.980469 -4.449219 1.921875 -4.050781 1.921875 -3.546875 L 1.921875 0 Z M 0.824219 0 "/></symbol><symbol overflow="visible" id="pca-glyph0-12"><path style="stroke:none;" d="M 5.261719 -2.085938 L 6.398438 -1.945313 C 6.21875 -1.28125 5.886719 -0.765625 5.402344 -0.402344 C 4.917969 -0.0351563 4.296875 0.144531 3.546875 0.148438 C 2.59375 0.144531 1.84375 -0.144531 1.289063 -0.726563 C 0.734375 -1.3125 0.457031 -2.132813 0.457031 -3.1875 C 0.457031 -4.273438 0.734375 -5.117188 1.296875 -5.722656 C 1.855469 -6.324219 2.585938 -6.625 3.484375 -6.628906 C 4.347656 -6.625 5.054688 -6.332031 5.609375 -5.742188 C 6.15625 -5.152344 6.433594 -4.320313 6.433594 -3.253906 C 6.433594 -3.183594 6.429688 -3.085938 6.425781 -2.960938 L 1.59375 -2.960938 C 1.632813 -2.242188 1.832031 -1.699219 2.195313 -1.324219 C 2.558594 -0.945313 3.011719 -0.753906 3.550781 -0.757813 C 3.953125 -0.753906 4.296875 -0.859375 4.582031 -1.074219 C 4.867188 -1.28125 5.09375 -1.621094 5.261719 -2.085938 Z M 1.652344 -3.863281 L 5.273438 -3.863281 C 5.222656 -4.402344 5.082031 -4.8125 4.859375 -5.089844 C 4.503906 -5.511719 4.050781 -5.722656 3.496094 -5.726563 C 2.992188 -5.722656 2.570313 -5.554688 2.226563 -5.21875 C 1.882813 -4.878906 1.691406 -4.425781 1.652344 -3.863281 Z M 1.652344 -3.863281 "/></symbol><symbol overflow="visible" id="pca-glyph0-13"><path style="stroke:none;" d="M 0.8125 0 L 0.8125 -6.480469 L 1.800781 -6.480469 L 1.800781 -5.5 C 2.050781 -5.957031 2.285156 -6.257813 2.5 -6.40625 C 2.710938 -6.550781 2.945313 -6.625 3.203125 -6.628906 C 3.570313 -6.625 3.945313 -6.507813 4.332031 -6.273438 L 3.953125 -5.253906 C 3.683594 -5.410156 3.414063 -5.488281 3.148438 -5.492188 C 2.90625 -5.488281 2.691406 -5.417969 2.5 -5.273438 C 2.308594 -5.128906 2.171875 -4.929688 2.09375 -4.675781 C 1.96875 -4.285156 1.910156 -3.855469 1.910156 -3.394531 L 1.910156 0 Z M 0.8125 0 "/></symbol><symbol overflow="visible" id="pca-glyph0-14"><path style="stroke:none;" d="M 0.964844 0 L 0.964844 -8.949219 L 4.339844 -8.949219 C 4.929688 -8.945313 5.382813 -8.917969 5.699219 -8.863281 C 6.136719 -8.789063 6.503906 -8.648438 6.804688 -8.445313 C 7.097656 -8.234375 7.335938 -7.945313 7.519531 -7.578125 C 7.699219 -7.203125 7.792969 -6.796875 7.792969 -6.359375 C 7.792969 -5.59375 7.550781 -4.949219 7.066406 -4.425781 C 6.582031 -3.894531 5.707031 -3.632813 4.445313 -3.636719 L 2.148438 -3.636719 L 2.148438 0 Z M 2.148438 -4.695313 L 4.460938 -4.695313 C 5.222656 -4.691406 5.765625 -4.835938 6.089844 -5.121094 C 6.410156 -5.402344 6.574219 -5.800781 6.574219 -6.324219 C 6.574219 -6.691406 6.476563 -7.011719 6.289063 -7.28125 C 6.097656 -7.546875 5.851563 -7.722656 5.542969 -7.8125 C 5.339844 -7.859375 4.96875 -7.886719 4.4375 -7.890625 L 2.148438 -7.890625 Z M 2.148438 -4.695313 "/></symbol><symbol overflow="visible" id="pca-glyph0-15"><path style="stroke:none;" d="M 7.347656 -3.136719 L 8.53125 -2.839844 C 8.28125 -1.863281 7.832031 -1.121094 7.191406 -0.613281 C 6.542969 -0.101563 5.757813 0.152344 4.828125 0.152344 C 3.863281 0.152344 3.078125 -0.0429688 2.476563 -0.433594 C 1.871094 -0.824219 1.410156 -1.390625 1.09375 -2.140625 C 0.777344 -2.882813 0.621094 -3.683594 0.621094 -4.539063 C 0.621094 -5.46875 0.796875 -6.28125 1.15625 -6.976563 C 1.507813 -7.667969 2.015625 -8.195313 2.675781 -8.558594 C 3.332031 -8.917969 4.054688 -9.097656 4.847656 -9.101563 C 5.738281 -9.097656 6.492188 -8.871094 7.101563 -8.417969 C 7.710938 -7.960938 8.136719 -7.320313 8.378906 -6.492188 L 7.214844 -6.21875 C 7.003906 -6.867188 6.703125 -7.34375 6.308594 -7.640625 C 5.914063 -7.9375 5.417969 -8.085938 4.820313 -8.085938 C 4.128906 -8.085938 3.554688 -7.917969 3.097656 -7.589844 C 2.632813 -7.257813 2.308594 -6.816406 2.125 -6.265625 C 1.933594 -5.707031 1.839844 -5.136719 1.84375 -4.546875 C 1.839844 -3.785156 1.949219 -3.121094 2.175781 -2.554688 C 2.394531 -1.984375 2.742188 -1.558594 3.210938 -1.28125 C 3.679688 -0.996094 4.183594 -0.855469 4.730469 -0.859375 C 5.390625 -0.855469 5.953125 -1.046875 6.414063 -1.433594 C 6.871094 -1.8125 7.183594 -2.378906 7.347656 -3.136719 Z M 7.347656 -3.136719 "/></symbol><symbol overflow="visible" id="pca-glyph1-0"><path style="stroke:none;" d="M 0 -0.964844 L -8.949219 -0.964844 L -8.949219 -4.339844 C -8.945313 -4.929688 -8.917969 -5.382813 -8.863281 -5.699219 C -8.789063 -6.136719 -8.648438 -6.503906 -8.445313 -6.804688 C -8.234375 -7.097656 -7.945313 -7.335938 -7.578125 -7.519531 C -7.203125 -7.699219 -6.796875 -7.792969 -6.359375 -7.792969 C -5.59375 -7.792969 -4.949219 -7.550781 -4.425781 -7.066406 C -3.894531 -6.582031 -3.632813 -5.707031 -3.636719 -4.445313 L -3.636719 -2.148438 L 0 -2.148438 Z M -4.695313 -2.148438 L -4.695313 -4.460938 C -4.691406 -5.222656 -4.835938 -5.765625 -5.121094 -6.089844 C -5.402344 -6.410156 -5.800781 -6.574219 -6.324219 -6.574219 C -6.691406 -6.574219 -7.011719 -6.476563 -7.28125 -6.289063 C -7.546875 -6.097656 -7.722656 -5.851563 -7.8125 -5.542969 C -7.859375 -5.339844 -7.886719 -4.96875 -7.890625 -4.4375 L -7.890625 -2.148438 Z M -4.695313 -2.148438 "/></symbol><symbol overflow="visible" id="pca-glyph1-1"><path style="stroke:none;" d="M -3.136719 -7.347656 L -2.839844 -8.53125 C -1.863281 -8.28125 -1.121094 -7.832031 -0.613281 -7.191406 C -0.101563 -6.542969 0.152344 -5.757813 0.152344 -4.828125 C 0.152344 -3.863281 -0.0429688 -3.078125 -0.433594 -2.476563 C -0.824219 -1.871094 -1.390625 -1.410156 -2.140625 -1.09375 C -2.882813 -0.777344 -3.683594 -0.621094 -4.539063 -0.621094 C -5.46875 -0.621094 -6.28125 -0.796875 -6.976563 -1.15625 C -7.667969 -1.507813 -8.195313 -2.015625 -8.558594 -2.675781 C -8.917969 -3.332031 -9.097656 -4.054688 -9.101563 -4.847656 C -9.097656 -5.738281 -8.871094 -6.492188 -8.417969 -7.101563 C -7.960938 -7.710938 -7.320313 -8.136719 -6.492188 -8.378906 L -6.21875 -7.214844 C -6.867188 -7.003906 -7.34375 -6.703125 -7.640625 -6.308594 C -7.9375 -5.914063 -8.085938 -5.417969 -8.085938 -4.820313 C -8.085938 -4.128906 -7.917969 -3.554688 -7.589844 -3.097656 C -7.257813 -2.632813 -6.816406 -2.308594 -6.265625 -2.125 C -5.707031 -1.933594 -5.136719 -1.839844 -4.546875 -1.84375 C -3.785156 -1.839844 -3.121094 -1.949219 -2.554688 -2.175781 C -1.984375 -2.394531 -1.558594 -2.742188 -1.28125 -3.210938 C -0.996094 -3.679688 -0.855469 -4.183594 -0.859375 -4.730469 C -0.855469 -5.390625 -1.046875 -5.953125 -1.433594 -6.414063 C -1.8125 -6.871094 -2.378906 -7.183594 -3.136719 -7.347656 Z M -3.136719 -7.347656 "/></symbol><symbol overflow="visible" id="pca-glyph1-2"><path style="stroke:none;" d="M -1.054688 -6.292969 L 0 -6.292969 L 0 -0.378906 C -0.265625 -0.367188 -0.519531 -0.410156 -0.761719 -0.507813 C -1.164063 -0.65625 -1.558594 -0.898438 -1.953125 -1.230469 C -2.339844 -1.558594 -2.792969 -2.035156 -3.308594 -2.667969 C -4.101563 -3.636719 -4.734375 -4.292969 -5.203125 -4.636719 C -5.667969 -4.976563 -6.105469 -5.148438 -6.523438 -5.152344 C -6.957031 -5.148438 -7.324219 -4.992188 -7.625 -4.683594 C -7.921875 -4.371094 -8.074219 -3.96875 -8.074219 -3.46875 C -8.074219 -2.9375 -7.914063 -2.511719 -7.597656 -2.195313 C -7.277344 -1.878906 -6.839844 -1.71875 -6.28125 -1.714844 L -6.398438 -0.585938 C -7.238281 -0.664063 -7.878906 -0.953125 -8.320313 -1.457031 C -8.761719 -1.960938 -8.980469 -2.640625 -8.984375 -3.492188 C -8.980469 -4.347656 -8.742188 -5.023438 -8.269531 -5.527344 C -7.789063 -6.027344 -7.199219 -6.28125 -6.5 -6.28125 C -6.140625 -6.28125 -5.789063 -6.207031 -5.445313 -6.058594 C -5.09375 -5.910156 -4.730469 -5.664063 -4.351563 -5.328125 C -3.964844 -4.984375 -3.441406 -4.421875 -2.777344 -3.636719 C -2.222656 -2.976563 -1.84375 -2.554688 -1.648438 -2.367188 C -1.449219 -2.179688 -1.253906 -2.023438 -1.054688 -1.90625 Z M -1.054688 -6.292969 "/></symbol><symbol overflow="visible" id="pca-glyph2-0"><path style="stroke:none;" d="M 0.320313 -2.171875 L 0.320313 -3.0625 L 3.046875 -3.0625 L 3.046875 -2.171875 Z M 0.320313 -2.171875 "/></symbol><symbol overflow="visible" id="pca-glyph2-1"><path style="stroke:none;" d="M 3.265625 0 L 3.265625 -1.730469 L 0.128906 -1.730469 L 0.128906 -2.542969 L 3.425781 -7.230469 L 4.152344 -7.230469 L 4.152344 -2.542969 L 5.128906 -2.542969 L 5.128906 -1.730469 L 4.152344 -1.730469 L 4.152344 0 Z M 3.265625 -2.542969 L 3.265625 -5.804688 L 1 -2.542969 Z M 3.265625 -2.542969 "/></symbol><symbol overflow="visible" id="pca-glyph2-2"><path style="stroke:none;" d="M 0.417969 -3.566406 C 0.414063 -4.417969 0.503906 -5.105469 0.679688 -5.628906 C 0.855469 -6.148438 1.117188 -6.550781 1.464844 -6.832031 C 1.8125 -7.113281 2.25 -7.253906 2.777344 -7.257813 C 3.164063 -7.253906 3.503906 -7.175781 3.796875 -7.023438 C 4.085938 -6.863281 4.324219 -6.636719 4.519531 -6.347656 C 4.707031 -6.050781 4.859375 -5.695313 4.96875 -5.273438 C 5.078125 -4.851563 5.132813 -4.28125 5.132813 -3.566406 C 5.132813 -2.714844 5.042969 -2.03125 4.871094 -1.511719 C 4.691406 -0.988281 4.433594 -0.582031 4.089844 -0.300781 C 3.742188 -0.015625 3.304688 0.121094 2.777344 0.125 C 2.078125 0.121094 1.527344 -0.125 1.132813 -0.625 C 0.652344 -1.222656 0.414063 -2.203125 0.417969 -3.566406 Z M 1.332031 -3.566406 C 1.328125 -2.375 1.46875 -1.585938 1.746094 -1.195313 C 2.023438 -0.800781 2.367188 -0.601563 2.777344 -0.605469 C 3.183594 -0.601563 3.523438 -0.800781 3.804688 -1.195313 C 4.078125 -1.589844 4.21875 -2.378906 4.222656 -3.566406 C 4.21875 -4.753906 4.078125 -5.542969 3.804688 -5.9375 C 3.523438 -6.324219 3.179688 -6.519531 2.765625 -6.523438 C 2.359375 -6.519531 2.03125 -6.347656 1.789063 -6.007813 C 1.480469 -5.5625 1.328125 -4.75 1.332031 -3.566406 Z M 1.332031 -3.566406 "/></symbol><symbol overflow="visible" id="pca-glyph2-3"><path style="stroke:none;" d="M 5.085938 -0.851563 L 5.085938 0 L 0.304688 0 C 0.296875 -0.210938 0.332031 -0.414063 0.410156 -0.617188 C 0.53125 -0.9375 0.722656 -1.257813 0.992188 -1.578125 C 1.257813 -1.890625 1.648438 -2.257813 2.15625 -2.671875 C 2.9375 -3.316406 3.464844 -3.824219 3.746094 -4.203125 C 4.019531 -4.578125 4.160156 -4.9375 4.164063 -5.273438 C 4.160156 -5.625 4.035156 -5.917969 3.785156 -6.160156 C 3.53125 -6.398438 3.203125 -6.519531 2.800781 -6.523438 C 2.371094 -6.519531 2.027344 -6.390625 1.773438 -6.136719 C 1.515625 -5.878906 1.386719 -5.527344 1.386719 -5.074219 L 0.472656 -5.167969 C 0.53125 -5.847656 0.765625 -6.363281 1.175781 -6.722656 C 1.582031 -7.074219 2.128906 -7.253906 2.820313 -7.257813 C 3.511719 -7.253906 4.0625 -7.0625 4.46875 -6.679688 C 4.871094 -6.296875 5.074219 -5.820313 5.074219 -5.253906 C 5.074219 -4.960938 5.011719 -4.675781 4.894531 -4.398438 C 4.773438 -4.117188 4.578125 -3.824219 4.304688 -3.515625 C 4.027344 -3.203125 3.570313 -2.777344 2.9375 -2.242188 C 2.402344 -1.792969 2.0625 -1.488281 1.914063 -1.332031 C 1.761719 -1.167969 1.636719 -1.007813 1.539063 -0.851563 Z M 5.085938 -0.851563 "/></symbol><symbol overflow="visible" id="pca-glyph2-4"><path style="stroke:none;" d="M 0.417969 -1.894531 L 1.351563 -1.972656 C 1.417969 -1.515625 1.578125 -1.175781 1.832031 -0.949219 C 2.082031 -0.71875 2.386719 -0.601563 2.742188 -0.605469 C 3.167969 -0.601563 3.527344 -0.765625 3.824219 -1.089844 C 4.117188 -1.410156 4.265625 -1.835938 4.269531 -2.371094 C 4.265625 -2.875 4.125 -3.273438 3.84375 -3.570313 C 3.558594 -3.859375 3.183594 -4.007813 2.726563 -4.007813 C 2.4375 -4.007813 2.179688 -3.941406 1.953125 -3.8125 C 1.71875 -3.683594 1.539063 -3.515625 1.410156 -3.308594 L 0.578125 -3.417969 L 1.277344 -7.132813 L 4.871094 -7.132813 L 4.871094 -6.28125 L 1.988281 -6.28125 L 1.597656 -4.339844 C 2.03125 -4.640625 2.488281 -4.792969 2.964844 -4.792969 C 3.59375 -4.792969 4.125 -4.574219 4.558594 -4.136719 C 4.992188 -3.699219 5.207031 -3.136719 5.210938 -2.449219 C 5.207031 -1.792969 5.019531 -1.226563 4.640625 -0.753906 C 4.175781 -0.167969 3.542969 0.121094 2.742188 0.125 C 2.082031 0.121094 1.542969 -0.0585938 1.128906 -0.425781 C 0.710938 -0.792969 0.472656 -1.28125 0.417969 -1.894531 Z M 0.417969 -1.894531 "/></symbol></g><clipPath id="pca-clip1"><path d="M 52.554688 237.898438 L 355.511719 237.898438 L 355.511719 366.496094 L 52.554688 366.496094 Z M 52.554688 237.898438 "/></clipPath></defs><g id="surface51"><path style="fill-rule:nonzero;fill:rgb(89.411765%,10.196078%,10.980392%);fill-opacity:1;stroke-width:1;stroke-linecap:round;stroke-linejoin:round;stroke:rgb(0%,0%,0%);stroke-opacity:1;stroke-miterlimit:10;" d="M 153.183594 102.441406 L 187.941406 102.441406 L 187.941406 114.269531 L 153.183594 114.269531 Z M 153.183594 102.441406 "/><path style="fill-rule:nonzero;fill:rgb(21.568627%,49.411765%,72.156863%);fill-opacity:1;stroke-width:1;stroke-linecap:round;stroke-linejoin:round;stroke:rgb(0%,0%,0%);stroke-opacity:1;stroke-miterlimit:10;" d="M 153.183594 114.265625 L 187.941406 114.265625 L 187.941406 126.09375 L 153.183594 126.09375 Z M 153.183594 114.265625 "/><path style="fill-rule:nonzero;fill:rgb(30.196078%,68.627451%,29.019608%);fill-opacity:1;stroke-width:1;stroke-linecap:round;stroke-linejoin:round;stroke:rgb(0%,0%,0%);stroke-opacity:1;stroke-miterlimit:10;" d="M 153.183594 126.09375 L 187.941406 126.09375 L 187.941406 137.921875 L 153.183594 137.921875 Z M 153.183594 126.09375 "/><path style="fill-rule:nonzero;fill:rgb(59.607843%,30.588235%,63.921569%);fill-opacity:1;stroke-width:1;stroke-linecap:round;stroke-linejoin:round;stroke:rgb(0%,0%,0%);stroke-opacity:1;stroke-miterlimit:10;" d="M 153.183594 137.921875 L 187.941406 137.921875 L 187.941406 149.75 L 153.183594 149.75 Z M 153.183594 137.921875 "/><path style="fill-rule:nonzero;fill:rgb(100%,49.803922%,0%);fill-opacity:1;stroke-width:1;stroke-linecap:round;stroke-linejoin:round;stroke:rgb(0%,0%,0%);stroke-opacity:1;stroke-miterlimit:10;" d="M 153.183594 149.75 L 187.941406 149.75 L 187.941406 161.578125 L 153.183594 161.578125 Z M 153.183594 149.75 "/><path style="fill-rule:nonzero;fill:rgb(100%,100%,20%);fill-opacity:1;stroke-width:1;stroke-linecap:round;stroke-linejoin:round;stroke:rgb(0%,0%,0%);stroke-opacity:1;stroke-miterlimit:10;" d="M 153.183594 161.578125 L 187.941406 161.578125 L 187.941406 173.40625 L 153.183594 173.40625 Z M 153.183594 161.578125 "/><path style="fill-rule:nonzero;fill:rgb(65.098039%,33.72549%,15.686275%);fill-opacity:1;stroke-width:1;stroke-linecap:round;stroke-linejoin:round;stroke:rgb(0%,0%,0%);stroke-opacity:1;stroke-miterlimit:10;" d="M 153.183594 173.40625 L 187.941406 173.40625 L 187.941406 185.234375 L 153.183594 185.234375 Z M 153.183594 173.40625 "/><path style="fill-rule:nonzero;fill:rgb(96.862745%,50.588235%,74.901961%);fill-opacity:1;stroke-width:1;stroke-linecap:round;stroke-linejoin:round;stroke:rgb(0%,0%,0%);stroke-opacity:1;stroke-miterlimit:10;" d="M 153.183594 185.234375 L 187.941406 185.234375 L 187.941406 197.0625 L 153.183594 197.0625 Z M 153.183594 185.234375 "/><path style="fill-rule:nonzero;fill:rgb(60%,60%,60%);fill-opacity:1;stroke-width:1;stroke-linecap:round;stroke-linejoin:round;stroke:rgb(0%,0%,0%);stroke-opacity:1;stroke-miterlimit:10;" d="M 153.183594 197.0625 L 187.941406 197.0625 L 187.941406 208.890625 L 153.183594 208.890625 Z M 153.183594 197.0625 "/><g style="fill:rgb(0%,0%,0%);fill-opacity:1;"><use xlink:href="#pca-glyph0-0" x="201.84375" y="112.828125"/><use xlink:href="#pca-glyph0-1" x="205.31665" y="112.828125"/></g><g style="fill:rgb(0%,0%,0%);fill-opacity:1;"><use xlink:href="#pca-glyph0-0" x="201.84375" y="124.65625"/><use xlink:href="#pca-glyph0-2" x="205.31665" y="124.65625"/></g><g style="fill:rgb(0%,0%,0%);fill-opacity:1;"><use xlink:href="#pca-glyph0-0" x="201.84375" y="136.484375"/><use xlink:href="#pca-glyph0-3" x="205.31665" y="136.484375"/></g><g style="fill:rgb(0%,0%,0%);fill-opacity:1;"><use xlink:href="#pca-glyph0-0" x="201.84375" y="148.3125"/><use xlink:href="#pca-glyph0-4" x="205.31665" y="148.3125"/></g><g style="fill:rgb(0%,0%,0%);fill-opacity:1;"><use xlink:href="#pca-glyph0-0" x="201.84375" y="160.136719"/><use xlink:href="#pca-glyph0-5" x="205.31665" y="160.136719"/></g><g style="fill:rgb(0%,0%,0%);fill-opacity:1;"><use xlink:href="#pca-glyph0-0" x="201.84375" y="171.964844"/><use xlink:href="#pca-glyph0-6" x="205.31665" y="171.964844"/></g><g style="fill:rgb(0%,0%,0%);fill-opacity:1;"><use xlink:href="#pca-glyph0-0" x="201.84375" y="183.792969"/><use xlink:href="#pca-glyph0-7" x="205.31665" y="183.792969"/></g><g style="fill:rgb(0%,0%,0%);fill-opacity:1;"><use xlink:href="#pca-glyph0-0" x="201.84375" y="195.621094"/><use xlink:href="#pca-glyph0-8" x="205.31665" y="195.621094"/></g><g style="fill:rgb(0%,0%,0%);fill-opacity:1;"><use xlink:href="#pca-glyph0-9" x="201.84375" y="207.449219"/><use xlink:href="#pca-glyph0-10" x="208.795654" y="207.449219"/><use xlink:href="#pca-glyph0-11" x="212.268555" y="207.449219"/><use xlink:href="#pca-glyph0-12" x="219.220459" y="207.449219"/><use xlink:href="#pca-glyph0-13" x="226.172363" y="207.449219"/></g><g style="fill:rgb(0%,0%,0%);fill-opacity:1;"><use xlink:href="#pca-glyph0-14" x="191.375" y="404.679688"/><use xlink:href="#pca-glyph0-15" x="199.712402" y="404.679688"/><use xlink:href="#pca-glyph0-1" x="208.739502" y="404.679688"/></g><g style="fill:rgb(0%,0%,0%);fill-opacity:1;"><use xlink:href="#pca-glyph1-0" x="14.949219" y="313.851563"/><use xlink:href="#pca-glyph1-1" x="14.949219" y="305.51416"/><use xlink:href="#pca-glyph1-2" x="14.949219" y="296.487061"/></g><path style="fill:none;stroke-width:1;stroke-linecap:round;stroke-linejoin:round;stroke:rgb(0%,0%,0%);stroke-opacity:1;stroke-miterlimit:10;" d="M 122.222656 237.898438 L 122.222656 232.226563 "/><path style="fill:none;stroke-width:1;stroke-linecap:round;stroke-linejoin:round;stroke:rgb(0%,0%,0%);stroke-opacity:1;stroke-miterlimit:10;" d="M 201.070313 237.898438 L 201.070313 232.226563 "/><path style="fill:none;stroke-width:1;stroke-linecap:round;stroke-linejoin:round;stroke:rgb(0%,0%,0%);stroke-opacity:1;stroke-miterlimit:10;" d="M 279.914063 237.898438 L 279.914063 232.226563 "/><path style="fill:none;stroke-width:1;stroke-linecap:round;stroke-linejoin:round;stroke:rgb(0%,0%,0%);stroke-opacity:1;stroke-miterlimit:10;" d="M 52.554688 359.867188 L 46.882813 359.867188 "/><path style="fill:none;stroke-width:1;stroke-linecap:round;stroke-linejoin:round;stroke:rgb(0%,0%,0%);stroke-opacity:1;stroke-miterlimit:10;" d="M 52.554688 328.332031 L 46.882813 328.332031 "/><path style="fill:none;stroke-width:1;stroke-linecap:round;stroke-linejoin:round;stroke:rgb(0%,0%,0%);stroke-opacity:1;stroke-miterlimit:10;" d="M 52.554688 296.792969 L 46.882813 296.792969 "/><path style="fill:none;stroke-width:1;stroke-linecap:round;stroke-linejoin:round;stroke:rgb(0%,0%,0%);stroke-opacity:1;stroke-miterlimit:10;" d="M 52.554688 265.253906 L 46.882813 265.253906 "/><g style="fill:rgb(0%,0%,0%);fill-opacity:1;"><use xlink:href="#pca-glyph2-0" x="26.617188" y="363.484375"/><use xlink:href="#pca-glyph2-1" x="29.980566" y="363.484375"/><use xlink:href="#pca-glyph2-2" x="35.597705" y="363.484375"/></g><g style="fill:rgb(0%,0%,0%);fill-opacity:1;"><use xlink:href="#pca-glyph2-0" x="26.617188" y="331.945313"/><use xlink:href="#pca-glyph2-3" x="29.980566" y="331.945313"/><use xlink:href="#pca-glyph2-2" x="35.597705" y="331.945313"/></g><g style="fill:rgb(0%,0%,0%);fill-opacity:1;"><use xlink:href="#pca-glyph2-2" x="35.597656" y="300.40625"/></g><g style="fill:rgb(0%,0%,0%);fill-opacity:1;"><use xlink:href="#pca-glyph2-3" x="29.980469" y="268.867188"/><use xlink:href="#pca-glyph2-2" x="35.597607" y="268.867188"/></g><path style="fill:none;stroke-width:1;stroke-linecap:round;stroke-linejoin:round;stroke:rgb(0%,0%,0%);stroke-opacity:1;stroke-miterlimit:10;" d="M 122.222656 365.492188 L 122.222656 371.164063 "/><path style="fill:none;stroke-width:1;stroke-linecap:round;stroke-linejoin:round;stroke:rgb(0%,0%,0%);stroke-opacity:1;stroke-miterlimit:10;" d="M 201.070313 365.492188 L 201.070313 371.164063 "/><path style="fill:none;stroke-width:1;stroke-linecap:round;stroke-linejoin:round;stroke:rgb(0%,0%,0%);stroke-opacity:1;stroke-miterlimit:10;" d="M 279.914063 365.492188 L 279.914063 371.164063 "/><g style="fill:rgb(0%,0%,0%);fill-opacity:1;"><use xlink:href="#pca-glyph2-0" x="114.925781" y="384.0625"/><use xlink:href="#pca-glyph2-4" x="118.28916" y="384.0625"/><use xlink:href="#pca-glyph2-2" x="123.906299" y="384.0625"/></g><g style="fill:rgb(0%,0%,0%);fill-opacity:1;"><use xlink:href="#pca-glyph2-2" x="198.261719" y="384.0625"/></g><g style="fill:rgb(0%,0%,0%);fill-opacity:1;"><use xlink:href="#pca-glyph2-4" x="274.296875" y="384.0625"/><use xlink:href="#pca-glyph2-2" x="279.914014" y="384.0625"/></g><path style="fill:none;stroke-width:1;stroke-linecap:round;stroke-linejoin:round;stroke:rgb(0%,0%,0%);stroke-opacity:1;stroke-miterlimit:10;" d="M 354.511719 359.867188 L 360.179688 359.867188 "/><path style="fill:none;stroke-width:1;stroke-linecap:round;stroke-linejoin:round;stroke:rgb(0%,0%,0%);stroke-opacity:1;stroke-miterlimit:10;" d="M 354.511719 328.332031 L 360.179688 328.332031 "/><path style="fill:none;stroke-width:1;stroke-linecap:round;stroke-linejoin:round;stroke:rgb(0%,0%,0%);stroke-opacity:1;stroke-miterlimit:10;" d="M 354.511719 296.792969 L 360.179688 296.792969 "/><path style="fill:none;stroke-width:1;stroke-linecap:round;stroke-linejoin:round;stroke:rgb(0%,0%,0%);stroke-opacity:1;stroke-miterlimit:10;" d="M 354.511719 265.253906 L 360.179688 265.253906 "/><g clip-path="url(#pca-clip1)" clip-rule="nonzero" type="plot-region" class="plot-region"><path d="M 182.351563 286.394531 C 182.351563 291.0625 175.351563 291.0625 175.351563 286.394531 C 175.351563 281.730469 182.351563 281.730469 182.351563 286.394531 " type="plot-point" class="aqm1" onclick="plotObjRespond('click', 1, 'pca')" onmouseover="plotObjRespond('show', 1, 'pca')" onmouseout="plotObjRespond('hide', 1, 'pca')" fill-rule="nonzero" fill="rgb(89.411765%,10.196078%,10.980392%)" fill-opacity="1" stroke-width="1" stroke-linecap="round" stroke-linejoin="round" stroke="rgb(89.411765%,10.196078%,10.980392%)" stroke-opacity="1" stroke-miterlimit="10"/><path d="M 155.605469 307.398438 C 155.605469 312.066406 148.605469 312.066406 148.605469 307.398438 C 148.605469 302.734375 155.605469 302.734375 155.605469 307.398438 " type="plot-point" class="aqm2" onclick="plotObjRespond('click', 2, 'pca')" onmouseover="plotObjRespond('show', 2, 'pca')" onmouseout="plotObjRespond('hide', 2, 'pca')" fill-rule="nonzero" fill="rgb(89.411765%,10.196078%,10.980392%)" fill-opacity="1" stroke-width="1" stroke-linecap="round" stroke-linejoin="round" stroke="rgb(89.411765%,10.196078%,10.980392%)" stroke-opacity="1" stroke-miterlimit="10"/><path d="M 74.59375 309.457031 C 74.59375 314.125 67.59375 314.125 67.59375 309.457031 C 67.59375 304.789063 74.59375 304.789063 74.59375 309.457031 " type="plot-point" class="aqm3" onclick="plotObjRespond('click', 3, 'pca')" onmouseover="plotObjRespond('show', 3, 'pca')" onmouseout="plotObjRespond('hide', 3, 'pca')" fill-rule="nonzero" fill="rgb(89.411765%,10.196078%,10.980392%)" fill-opacity="1" stroke-width="1" stroke-linecap="round" stroke-linejoin="round" stroke="rgb(89.411765%,10.196078%,10.980392%)" stroke-opacity="1" stroke-miterlimit="10"/><path d="M 339.46875 322.890625 C 339.46875 327.554688 332.46875 327.554688 332.46875 322.890625 C 332.46875 318.222656 339.46875 318.222656 339.46875 322.890625 " type="plot-point" class="aqm4" onclick="plotObjRespond('click', 4, 'pca')" onmouseover="plotObjRespond('show', 4, 'pca')" onmouseout="plotObjRespond('hide', 4, 'pca')" fill-rule="nonzero" fill="rgb(89.411765%,10.196078%,10.980392%)" fill-opacity="1" stroke-width="1" stroke-linecap="round" stroke-linejoin="round" stroke="rgb(89.411765%,10.196078%,10.980392%)" stroke-opacity="1" stroke-miterlimit="10"/><path d="M 198.046875 294.507813 C 198.046875 299.175781 191.046875 299.175781 191.046875 294.507813 C 191.046875 289.84375 198.046875 289.84375 198.046875 294.507813 " type="plot-point" class="aqm5" onclick="plotObjRespond('click', 5, 'pca')" onmouseover="plotObjRespond('show', 5, 'pca')" onmouseout="plotObjRespond('hide', 5, 'pca')" fill-rule="nonzero" fill="rgb(21.568627%,49.411765%,72.156863%)" fill-opacity="1" stroke-width="1" stroke-linecap="round" stroke-linejoin="round" stroke="rgb(21.568627%,49.411765%,72.156863%)" stroke-opacity="1" stroke-miterlimit="10"/><path d="M 300.109375 278.378906 C 300.109375 283.046875 293.109375 283.046875 293.109375 278.378906 C 293.109375 273.710938 300.109375 273.710938 300.109375 278.378906 " type="plot-point" class="aqm6" onclick="plotObjRespond('click', 6, 'pca')" onmouseover="plotObjRespond('show', 6, 'pca')" onmouseout="plotObjRespond('hide', 6, 'pca')" fill-rule="nonzero" fill="rgb(21.568627%,49.411765%,72.156863%)" fill-opacity="1" stroke-width="1" stroke-linecap="round" stroke-linejoin="round" stroke="rgb(21.568627%,49.411765%,72.156863%)" stroke-opacity="1" stroke-miterlimit="10"/><path d="M 218.5 261.558594 C 218.5 266.222656 211.5 266.222656 211.5 261.558594 C 211.5 256.890625 218.5 256.890625 218.5 261.558594 " type="plot-point" class="aqm7" onclick="plotObjRespond('click', 7, 'pca')" onmouseover="plotObjRespond('show', 7, 'pca')" onmouseout="plotObjRespond('hide', 7, 'pca')" fill-rule="nonzero" fill="rgb(21.568627%,49.411765%,72.156863%)" fill-opacity="1" stroke-width="1" stroke-linecap="round" stroke-linejoin="round" stroke="rgb(21.568627%,49.411765%,72.156863%)" stroke-opacity="1" stroke-miterlimit="10"/><path d="M 211.726563 258.691406 C 211.726563 263.359375 204.726563 263.359375 204.726563 258.691406 C 204.726563 254.027344 211.726563 254.027344 211.726563 258.691406 " type="plot-point" class="aqm8" onclick="plotObjRespond('click', 8, 'pca')" onmouseover="plotObjRespond('show', 8, 'pca')" onmouseout="plotObjRespond('hide', 8, 'pca')" fill-rule="nonzero" fill="rgb(21.568627%,49.411765%,72.156863%)" fill-opacity="1" stroke-width="1" stroke-linecap="round" stroke-linejoin="round" stroke="rgb(21.568627%,49.411765%,72.156863%)" stroke-opacity="1" stroke-miterlimit="10"/><path d="M 178.234375 280.628906 C 178.234375 285.296875 171.234375 285.296875 171.234375 280.628906 C 171.234375 275.960938 178.234375 275.960938 178.234375 280.628906 " type="plot-point" class="aqm9" onclick="plotObjRespond('click', 9, 'pca')" onmouseover="plotObjRespond('show', 9, 'pca')" onmouseout="plotObjRespond('hide', 9, 'pca')" fill-rule="nonzero" fill="rgb(30.196078%,68.627451%,29.019608%)" fill-opacity="1" stroke-width="1" stroke-linecap="round" stroke-linejoin="round" stroke="rgb(30.196078%,68.627451%,29.019608%)" stroke-opacity="1" stroke-miterlimit="10"/><path d="M 149.894531 289.855469 C 149.894531 294.519531 142.894531 294.519531 142.894531 289.855469 C 142.894531 285.1875 149.894531 285.1875 149.894531 289.855469 " type="plot-point" class="aqm10" onclick="plotObjRespond('click', 10, 'pca')" onmouseover="plotObjRespond('show', 10, 'pca')" onmouseout="plotObjRespond('hide', 10, 'pca')" fill-rule="nonzero" fill="rgb(30.196078%,68.627451%,29.019608%)" fill-opacity="1" stroke-width="1" stroke-linecap="round" stroke-linejoin="round" stroke="rgb(30.196078%,68.627451%,29.019608%)" stroke-opacity="1" stroke-miterlimit="10"/><path d="M 249.773438 301.207031 C 249.773438 305.875 242.773438 305.875 242.773438 301.207031 C 242.773438 296.542969 249.773438 296.542969 249.773438 301.207031 " type="plot-point" class="aqm11" onclick="plotObjRespond('click', 11, 'pca')" onmouseover="plotObjRespond('show', 11, 'pca')" onmouseout="plotObjRespond('hide', 11, 'pca')" fill-rule="nonzero" fill="rgb(30.196078%,68.627451%,29.019608%)" fill-opacity="1" stroke-width="1" stroke-linecap="round" stroke-linejoin="round" stroke="rgb(30.196078%,68.627451%,29.019608%)" stroke-opacity="1" stroke-miterlimit="10"/><path d="M 299.421875 302.808594 C 299.421875 307.476563 292.421875 307.476563 292.421875 302.808594 C 292.421875 298.140625 299.421875 298.140625 299.421875 302.808594 " type="plot-point" class="aqm12" onclick="plotObjRespond('click', 12, 'pca')" onmouseover="plotObjRespond('show', 12, 'pca')" onmouseout="plotObjRespond('hide', 12, 'pca')" fill-rule="nonzero" fill="rgb(30.196078%,68.627451%,29.019608%)" fill-opacity="1" stroke-width="1" stroke-linecap="round" stroke-linejoin="round" stroke="rgb(30.196078%,68.627451%,29.019608%)" stroke-opacity="1" stroke-miterlimit="10"/><path d="M 172.5 277.675781 C 172.5 282.34375 165.5 282.34375 165.5 277.675781 C 165.5 273.007813 172.5 273.007813 172.5 277.675781 " type="plot-point" class="aqm13" onclick="plotObjRespond('click', 13, 'pca')" onmouseover="plotObjRespond('show', 13, 'pca')" onmouseout="plotObjRespond('hide', 13, 'pca')" fill-rule="nonzero" fill="rgb(59.607843%,30.588235%,63.921569%)" fill-opacity="1" stroke-width="1" stroke-linecap="round" stroke-linejoin="round" stroke="rgb(59.607843%,30.588235%,63.921569%)" stroke-opacity="1" stroke-miterlimit="10"/><path d="M 235.046875 297.515625 C 235.046875 302.183594 228.046875 302.183594 228.046875 297.515625 C 228.046875 292.851563 235.046875 292.851563 235.046875 297.515625 " type="plot-point" class="aqm14" onclick="plotObjRespond('click', 14, 'pca')" onmouseover="plotObjRespond('show', 14, 'pca')" onmouseout="plotObjRespond('hide', 14, 'pca')" fill-rule="nonzero" fill="rgb(59.607843%,30.588235%,63.921569%)" fill-opacity="1" stroke-width="1" stroke-linecap="round" stroke-linejoin="round" stroke="rgb(59.607843%,30.588235%,63.921569%)" stroke-opacity="1" stroke-miterlimit="10"/><path d="M 199.113281 299.050781 C 199.113281 303.71875 192.113281 303.71875 192.113281 299.050781 C 192.113281 294.386719 199.113281 294.386719 199.113281 299.050781 " type="plot-point" class="aqm15" onclick="plotObjRespond('click', 15, 'pca')" onmouseover="plotObjRespond('show', 15, 'pca')" onmouseout="plotObjRespond('hide', 15, 'pca')" fill-rule="nonzero" fill="rgb(59.607843%,30.588235%,63.921569%)" fill-opacity="1" stroke-width="1" stroke-linecap="round" stroke-linejoin="round" stroke="rgb(59.607843%,30.588235%,63.921569%)" stroke-opacity="1" stroke-miterlimit="10"/><path d="M 262.277344 315.894531 C 262.277344 320.558594 255.277344 320.558594 255.277344 315.894531 C 255.277344 311.226563 262.277344 311.226563 262.277344 315.894531 " type="plot-point" class="aqm16" onclick="plotObjRespond('click', 16, 'pca')" onmouseover="plotObjRespond('show', 16, 'pca')" onmouseout="plotObjRespond('hide', 16, 'pca')" fill-rule="nonzero" fill="rgb(59.607843%,30.588235%,63.921569%)" fill-opacity="1" stroke-width="1" stroke-linecap="round" stroke-linejoin="round" stroke="rgb(59.607843%,30.588235%,63.921569%)" stroke-opacity="1" stroke-miterlimit="10"/><path d="M 141.007813 275.257813 C 141.007813 279.921875 134.007813 279.921875 134.007813 275.257813 C 134.007813 270.589844 141.007813 270.589844 141.007813 275.257813 " type="plot-point" class="aqm17" onclick="plotObjRespond('click', 17, 'pca')" onmouseover="plotObjRespond('show', 17, 'pca')" onmouseout="plotObjRespond('hide', 17, 'pca')" fill-rule="nonzero" fill="rgb(100%,49.803922%,0%)" fill-opacity="1" stroke-width="1" stroke-linecap="round" stroke-linejoin="round" stroke="rgb(100%,49.803922%,0%)" stroke-opacity="1" stroke-miterlimit="10"/><path d="M 152.898438 302.625 C 152.898438 307.292969 145.898438 307.292969 145.898438 302.625 C 145.898438 297.960938 152.898438 297.960938 152.898438 302.625 " type="plot-point" class="aqm18" onclick="plotObjRespond('click', 18, 'pca')" onmouseover="plotObjRespond('show', 18, 'pca')" onmouseout="plotObjRespond('hide', 18, 'pca')" fill-rule="nonzero" fill="rgb(100%,49.803922%,0%)" fill-opacity="1" stroke-width="1" stroke-linecap="round" stroke-linejoin="round" stroke="rgb(100%,49.803922%,0%)" stroke-opacity="1" stroke-miterlimit="10"/><path d="M 161.984375 311.90625 C 161.984375 316.574219 154.984375 316.574219 154.984375 311.90625 C 154.984375 307.238281 161.984375 307.238281 161.984375 311.90625 " type="plot-point" class="aqm19" onclick="plotObjRespond('click', 19, 'pca')" onmouseover="plotObjRespond('show', 19, 'pca')" onmouseout="plotObjRespond('hide', 19, 'pca')" fill-rule="nonzero" fill="rgb(100%,49.803922%,0%)" fill-opacity="1" stroke-width="1" stroke-linecap="round" stroke-linejoin="round" stroke="rgb(100%,49.803922%,0%)" stroke-opacity="1" stroke-miterlimit="10"/><path d="M 108.503906 357.660156 C 108.503906 362.324219 101.503906 362.324219 101.503906 357.660156 C 101.503906 352.992188 108.503906 352.992188 108.503906 357.660156 " type="plot-point" class="aqm20" onclick="plotObjRespond('click', 20, 'pca')" onmouseover="plotObjRespond('show', 20, 'pca')" onmouseout="plotObjRespond('hide', 20, 'pca')" fill-rule="nonzero" fill="rgb(100%,49.803922%,0%)" fill-opacity="1" stroke-width="1" stroke-linecap="round" stroke-linejoin="round" stroke="rgb(100%,49.803922%,0%)" stroke-opacity="1" stroke-miterlimit="10"/><path d="M 152.15625 272.515625 C 152.15625 277.179688 145.15625 277.179688 145.15625 272.515625 C 145.15625 267.847656 152.15625 267.847656 152.15625 272.515625 " type="plot-point" class="aqm21" onclick="plotObjRespond('click', 21, 'pca')" onmouseover="plotObjRespond('show', 21, 'pca')" onmouseout="plotObjRespond('hide', 21, 'pca')" fill-rule="nonzero" fill="rgb(100%,100%,20%)" fill-opacity="1" stroke-width="1" stroke-linecap="round" stroke-linejoin="round" stroke="rgb(100%,100%,20%)" stroke-opacity="1" stroke-miterlimit="10"/><path d="M 200.738281 301.027344 C 200.738281 305.695313 193.738281 305.695313 193.738281 301.027344 C 193.738281 296.359375 200.738281 296.359375 200.738281 301.027344 " type="plot-point" class="aqm22" onclick="plotObjRespond('click', 22, 'pca')" onmouseover="plotObjRespond('show', 22, 'pca')" onmouseout="plotObjRespond('hide', 22, 'pca')" fill-rule="nonzero" fill="rgb(100%,100%,20%)" fill-opacity="1" stroke-width="1" stroke-linecap="round" stroke-linejoin="round" stroke="rgb(100%,100%,20%)" stroke-opacity="1" stroke-miterlimit="10"/><path d="M 194.269531 292.34375 C 194.269531 297.011719 187.269531 297.011719 187.269531 292.34375 C 187.269531 287.675781 194.269531 287.675781 194.269531 292.34375 " type="plot-point" class="aqm23" onclick="plotObjRespond('click', 23, 'pca')" onmouseover="plotObjRespond('show', 23, 'pca')" onmouseout="plotObjRespond('hide', 23, 'pca')" fill-rule="nonzero" fill="rgb(100%,100%,20%)" fill-opacity="1" stroke-width="1" stroke-linecap="round" stroke-linejoin="round" stroke="rgb(100%,100%,20%)" stroke-opacity="1" stroke-miterlimit="10"/><path d="M 248.28125 322.648438 C 248.28125 327.316406 241.28125 327.316406 241.28125 322.648438 C 241.28125 317.980469 248.28125 317.980469 248.28125 322.648438 " type="plot-point" class="aqm24" onclick="plotObjRespond('click', 24, 'pca')" onmouseover="plotObjRespond('show', 24, 'pca')" onmouseout="plotObjRespond('hide', 24, 'pca')" fill-rule="nonzero" fill="rgb(100%,100%,20%)" fill-opacity="1" stroke-width="1" stroke-linecap="round" stroke-linejoin="round" stroke="rgb(100%,100%,20%)" stroke-opacity="1" stroke-miterlimit="10"/><path d="M 197.585938 300.71875 C 197.585938 305.382813 190.585938 305.382813 190.585938 300.71875 C 190.585938 296.050781 197.585938 296.050781 197.585938 300.71875 " type="plot-point" class="aqm25" onclick="plotObjRespond('click', 25, 'pca')" onmouseover="plotObjRespond('show', 25, 'pca')" onmouseout="plotObjRespond('hide', 25, 'pca')" fill-rule="nonzero" fill="rgb(65.098039%,33.72549%,15.686275%)" fill-opacity="1" stroke-width="1" stroke-linecap="round" stroke-linejoin="round" stroke="rgb(65.098039%,33.72549%,15.686275%)" stroke-opacity="1" stroke-miterlimit="10"/><path d="M 128.949219 321.898438 C 128.949219 326.566406 121.949219 326.566406 121.949219 321.898438 C 121.949219 317.230469 128.949219 317.230469 128.949219 321.898438 " type="plot-point" class="aqm26" onclick="plotObjRespond('click', 26, 'pca')" onmouseover="plotObjRespond('show', 26, 'pca')" onmouseout="plotObjRespond('hide', 26, 'pca')" fill-rule="nonzero" fill="rgb(65.098039%,33.72549%,15.686275%)" fill-opacity="1" stroke-width="1" stroke-linecap="round" stroke-linejoin="round" stroke="rgb(65.098039%,33.72549%,15.686275%)" stroke-opacity="1" stroke-miterlimit="10"/><path d="M 112.269531 319.640625 C 112.269531 324.304688 105.269531 324.304688 105.269531 319.640625 C 105.269531 314.972656 112.269531 314.972656 112.269531 319.640625 " type="plot-point" class="aqm27" onclick="plotObjRespond('click', 27, 'pca')" onmouseover="plotObjRespond('show', 27, 'pca')" onmouseout="plotObjRespond('hide', 27, 'pca')" fill-rule="nonzero" fill="rgb(65.098039%,33.72549%,15.686275%)" fill-opacity="1" stroke-width="1" stroke-linecap="round" stroke-linejoin="round" stroke="rgb(65.098039%,33.72549%,15.686275%)" stroke-opacity="1" stroke-miterlimit="10"/><path d="M 186.484375 319.769531 C 186.484375 324.433594 179.484375 324.433594 179.484375 319.769531 C 179.484375 315.101563 186.484375 315.101563 186.484375 319.769531 " type="plot-point" class="aqm28" onclick="plotObjRespond('click', 28, 'pca')" onmouseover="plotObjRespond('show', 28, 'pca')" onmouseout="plotObjRespond('hide', 28, 'pca')" fill-rule="nonzero" fill="rgb(65.098039%,33.72549%,15.686275%)" fill-opacity="1" stroke-width="1" stroke-linecap="round" stroke-linejoin="round" stroke="rgb(65.098039%,33.72549%,15.686275%)" stroke-opacity="1" stroke-miterlimit="10"/><path d="M 134.304688 272.265625 C 134.304688 276.933594 127.304688 276.933594 127.304688 272.265625 C 127.304688 267.597656 134.304688 267.597656 134.304688 272.265625 " type="plot-point" class="aqm29" onclick="plotObjRespond('click', 29, 'pca')" onmouseover="plotObjRespond('show', 29, 'pca')" onmouseout="plotObjRespond('hide', 29, 'pca')" fill-rule="nonzero" fill="rgb(96.862745%,50.588235%,74.901961%)" fill-opacity="1" stroke-width="1" stroke-linecap="round" stroke-linejoin="round" stroke="rgb(96.862745%,50.588235%,74.901961%)" stroke-opacity="1" stroke-miterlimit="10"/><path d="M 167.609375 245.730469 C 167.609375 250.398438 160.609375 250.398438 160.609375 245.730469 C 160.609375 241.066406 167.609375 241.066406 167.609375 245.730469 " type="plot-point" class="aqm30" onclick="plotObjRespond('click', 30, 'pca')" onmouseover="plotObjRespond('show', 30, 'pca')" onmouseout="plotObjRespond('hide', 30, 'pca')" fill-rule="nonzero" fill="rgb(96.862745%,50.588235%,74.901961%)" fill-opacity="1" stroke-width="1" stroke-linecap="round" stroke-linejoin="round" stroke="rgb(96.862745%,50.588235%,74.901961%)" stroke-opacity="1" stroke-miterlimit="10"/><path d="M 200.296875 258.839844 C 200.296875 263.503906 193.296875 263.503906 193.296875 258.839844 C 193.296875 254.171875 200.296875 254.171875 200.296875 258.839844 " type="plot-point" class="aqm31" onclick="plotObjRespond('click', 31, 'pca')" onmouseover="plotObjRespond('show', 31, 'pca')" onmouseout="plotObjRespond('hide', 31, 'pca')" fill-rule="nonzero" fill="rgb(96.862745%,50.588235%,74.901961%)" fill-opacity="1" stroke-width="1" stroke-linecap="round" stroke-linejoin="round" stroke="rgb(96.862745%,50.588235%,74.901961%)" stroke-opacity="1" stroke-miterlimit="10"/><path d="M 284.796875 276.84375 C 284.796875 281.511719 277.796875 281.511719 277.796875 276.84375 C 277.796875 272.179688 284.796875 272.179688 284.796875 276.84375 " type="plot-point" class="aqm32" onclick="plotObjRespond('click', 32, 'pca')" onmouseover="plotObjRespond('show', 32, 'pca')" onmouseout="plotObjRespond('hide', 32, 'pca')" fill-rule="nonzero" fill="rgb(96.862745%,50.588235%,74.901961%)" fill-opacity="1" stroke-width="1" stroke-linecap="round" stroke-linejoin="round" stroke="rgb(96.862745%,50.588235%,74.901961%)" stroke-opacity="1" stroke-miterlimit="10"/><path d="M 168.554688 278.300781 C 168.554688 282.96875 161.554688 282.96875 161.554688 278.300781 C 161.554688 273.632813 168.554688 273.632813 168.554688 278.300781 " type="plot-point" class="aqm33" onclick="plotObjRespond('click', 33, 'pca')" onmouseover="plotObjRespond('show', 33, 'pca')" onmouseout="plotObjRespond('hide', 33, 'pca')" fill-rule="nonzero" fill="rgb(60%,60%,60%)" fill-opacity="1" stroke-width="1" stroke-linecap="round" stroke-linejoin="round" stroke="rgb(60%,60%,60%)" stroke-opacity="1" stroke-miterlimit="10"/><path d="M 235.007813 313.316406 C 235.007813 317.984375 228.007813 317.984375 228.007813 313.316406 C 228.007813 308.648438 235.007813 308.648438 235.007813 313.316406 " type="plot-point" class="aqm34" onclick="plotObjRespond('click', 34, 'pca')" onmouseover="plotObjRespond('show', 34, 'pca')" onmouseout="plotObjRespond('hide', 34, 'pca')" fill-rule="nonzero" fill="rgb(60%,60%,60%)" fill-opacity="1" stroke-width="1" stroke-linecap="round" stroke-linejoin="round" stroke="rgb(60%,60%,60%)" stroke-opacity="1" stroke-miterlimit="10"/><path d="M 116.195313 325.210938 C 116.195313 329.875 109.195313 329.875 109.195313 325.210938 C 109.195313 320.542969 116.195313 320.542969 116.195313 325.210938 " type="plot-point" class="aqm35" onclick="plotObjRespond('click', 35, 'pca')" onmouseover="plotObjRespond('show', 35, 'pca')" onmouseout="plotObjRespond('hide', 35, 'pca')" fill-rule="nonzero" fill="rgb(60%,60%,60%)" fill-opacity="1" stroke-width="1" stroke-linecap="round" stroke-linejoin="round" stroke="rgb(60%,60%,60%)" stroke-opacity="1" stroke-miterlimit="10"/><path d="M 188.222656 330.488281 C 188.222656 335.152344 181.222656 335.152344 181.222656 330.488281 C 181.222656 325.820313 188.222656 325.820313 188.222656 330.488281 " type="plot-point" class="aqm36" onclick="plotObjRespond('click', 36, 'pca')" onmouseover="plotObjRespond('show', 36, 'pca')" onmouseout="plotObjRespond('hide', 36, 'pca')" fill-rule="nonzero" fill="rgb(60%,60%,60%)" fill-opacity="1" stroke-width="1" stroke-linecap="round" stroke-linejoin="round" stroke="rgb(60%,60%,60%)" stroke-opacity="1" stroke-miterlimit="10"/><path d="M 234.410156 273.585938 C 234.410156 278.253906 227.410156 278.253906 227.410156 273.585938 C 227.410156 268.917969 234.410156 268.917969 234.410156 273.585938 " type="plot-point" class="aqm37" onclick="plotObjRespond('click', 37, 'pca')" onmouseover="plotObjRespond('show', 37, 'pca')" onmouseout="plotObjRespond('hide', 37, 'pca')" fill-rule="nonzero" fill="rgb(60%,60%,60%)" fill-opacity="1" stroke-width="1" stroke-linecap="round" stroke-linejoin="round" stroke="rgb(60%,60%,60%)" stroke-opacity="1" stroke-miterlimit="10"/><path d="M 278.058594 283.246094 C 278.058594 287.914063 271.058594 287.914063 271.058594 283.246094 C 271.058594 278.582031 278.058594 278.582031 278.058594 283.246094 " type="plot-point" class="aqm38" onclick="plotObjRespond('click', 38, 'pca')" onmouseover="plotObjRespond('show', 38, 'pca')" onmouseout="plotObjRespond('hide', 38, 'pca')" fill-rule="nonzero" fill="rgb(60%,60%,60%)" fill-opacity="1" stroke-width="1" stroke-linecap="round" stroke-linejoin="round" stroke="rgb(60%,60%,60%)" stroke-opacity="1" stroke-miterlimit="10"/><path d="M 282.636719 319.0625 C 282.636719 323.726563 275.636719 323.726563 275.636719 319.0625 C 275.636719 314.394531 282.636719 314.394531 282.636719 319.0625 " type="plot-point" class="aqm39" onclick="plotObjRespond('click', 39, 'pca')" onmouseover="plotObjRespond('show', 39, 'pca')" onmouseout="plotObjRespond('hide', 39, 'pca')" fill-rule="nonzero" fill="rgb(60%,60%,60%)" fill-opacity="1" stroke-width="1" stroke-linecap="round" stroke-linejoin="round" stroke="rgb(60%,60%,60%)" stroke-opacity="1" stroke-miterlimit="10"/><path d="M 318.941406 324.648438 C 318.941406 329.316406 311.941406 329.316406 311.941406 324.648438 C 311.941406 319.980469 318.941406 319.980469 318.941406 324.648438 " type="plot-point" class="aqm40" onclick="plotObjRespond('click', 40, 'pca')" onmouseover="plotObjRespond('show', 40, 'pca')" onmouseout="plotObjRespond('hide', 40, 'pca')" fill-rule="nonzero" fill="rgb(60%,60%,60%)" fill-opacity="1" stroke-width="1" stroke-linecap="round" stroke-linejoin="round" stroke="rgb(60%,60%,60%)" stroke-opacity="1" stroke-miterlimit="10"/><path d="M 232.632813 274.496094 C 232.632813 279.164063 225.632813 279.164063 225.632813 274.496094 C 225.632813 269.832031 232.632813 269.832031 232.632813 274.496094 " type="plot-point" class="aqm41" onclick="plotObjRespond('click', 41, 'pca')" onmouseover="plotObjRespond('show', 41, 'pca')" onmouseout="plotObjRespond('hide', 41, 'pca')" fill-rule="nonzero" fill="rgb(60%,60%,60%)" fill-opacity="1" stroke-width="1" stroke-linecap="round" stroke-linejoin="round" stroke="rgb(60%,60%,60%)" stroke-opacity="1" stroke-miterlimit="10"/><path d="M 207.242188 270.757813 C 207.242188 275.425781 200.242188 275.425781 200.242188 270.757813 C 200.242188 266.09375 207.242188 266.09375 207.242188 270.757813 " type="plot-point" class="aqm42" onclick="plotObjRespond('click', 42, 'pca')" onmouseover="plotObjRespond('show', 42, 'pca')" onmouseout="plotObjRespond('hide', 42, 'pca')" fill-rule="nonzero" fill="rgb(60%,60%,60%)" fill-opacity="1" stroke-width="1" stroke-linecap="round" stroke-linejoin="round" stroke="rgb(60%,60%,60%)" stroke-opacity="1" stroke-miterlimit="10"/><path d="M 275.234375 299.578125 C 275.234375 304.246094 268.234375 304.246094 268.234375 299.578125 C 268.234375 294.910156 275.234375 294.910156 275.234375 299.578125 " type="plot-point" class="aqm43" onclick="plotObjRespond('click', 43, 'pca')" onmouseover="plotObjRespond('show', 43, 'pca')" onmouseout="plotObjRespond('hide', 43, 'pca')" fill-rule="nonzero" fill="rgb(60%,60%,60%)" fill-opacity="1" stroke-width="1" stroke-linecap="round" stroke-linejoin="round" stroke="rgb(60%,60%,60%)" stroke-opacity="1" stroke-miterlimit="10"/><path d="M 265.136719 330.5625 C 265.136719 335.230469 258.136719 335.230469 258.136719 330.5625 C 258.136719 325.898438 265.136719 325.898438 265.136719 330.5625 " type="plot-point" class="aqm44" onclick="plotObjRespond('click', 44, 'pca')" onmouseover="plotObjRespond('show', 44, 'pca')" onmouseout="plotObjRespond('hide', 44, 'pca')" fill-rule="nonzero" fill="rgb(60%,60%,60%)" fill-opacity="1" stroke-width="1" stroke-linecap="round" stroke-linejoin="round" stroke="rgb(60%,60%,60%)" stroke-opacity="1" stroke-miterlimit="10"/></g><path style="fill:none;stroke-width:1;stroke-linecap:round;stroke-linejoin:round;stroke:rgb(0%,0%,0%);stroke-opacity:1;stroke-miterlimit:10;" d="M 52.554688 237.898438 L 354.511719 237.898438 L 354.511719 365.496094 L 52.554688 365.496094 Z M 52.554688 237.898438 "/></g></svg>
