<?xml version="1.0" encoding="UTF-8"?>
<svg xmlns="http://www.w3.org/2000/svg" xmlns:xlink="http://www.w3.org/1999/xlink" width="382.427115pt" height="512.027115pt" viewBox="0 0 382.427115 512.027115" version="1.1" id="Fig:pca"><defs><g><symbol overflow="visible" id="pca-glyph0-0"><path style="stroke:none;" d=""/></symbol><symbol overflow="visible" id="pca-glyph0-1"><path style="stroke:none;" d="M 4.65625 0 L 3.558594 0 L 3.558594 -7 C 3.289063 -6.746094 2.941406 -6.492188 2.515625 -6.242188 C 2.085938 -5.988281 1.703125 -5.800781 1.359375 -5.675781 L 1.359375 -6.738281 C 1.972656 -7.027344 2.507813 -7.375 2.972656 -7.789063 C 3.429688 -8.195313 3.757813 -8.59375 3.949219 -8.984375 L 4.65625 -8.984375 Z M 4.65625 0 "/></symbol><symbol overflow="visible" id="pca-glyph0-2"><path style="stroke:none;" d="M 6.292969 -1.054688 L 6.292969 0 L 0.378906 0 C 0.367188 -0.265625 0.410156 -0.519531 0.507813 -0.761719 C 0.65625 -1.164063 0.898438 -1.558594 1.230469 -1.953125 C 1.558594 -2.339844 2.035156 -2.792969 2.667969 -3.308594 C 3.636719 -4.101563 4.292969 -4.734375 4.636719 -5.203125 C 4.976563 -5.667969 5.148438 -6.105469 5.152344 -6.523438 C 5.148438 -6.957031 4.992188 -7.324219 4.683594 -7.625 C 4.371094 -7.921875 3.96875 -8.074219 3.46875 -8.074219 C 2.9375 -8.074219 2.511719 -7.914063 2.195313 -7.597656 C 1.878906 -7.277344 1.71875 -6.839844 1.714844 -6.28125 L 0.585938 -6.398438 C 0.664063 -7.238281 0.953125 -7.878906 1.457031 -8.320313 C 1.960938 -8.761719 2.640625 -8.980469 3.492188 -8.984375 C 4.347656 -8.980469 5.023438 -8.742188 5.527344 -8.269531 C 6.027344 -7.789063 6.28125 -7.199219 6.28125 -6.5 C 6.28125 -6.140625 6.207031 -5.789063 6.058594 -5.445313 C 5.910156 -5.09375 5.664063 -4.730469 5.328125 -4.351563 C 4.984375 -3.964844 4.421875 -3.441406 3.636719 -2.777344 C 2.976563 -2.222656 2.554688 -1.84375 2.367188 -1.648438 C 2.179688 -1.449219 2.023438 -1.253906 1.90625 -1.054688 Z M 6.292969 -1.054688 "/></symbol><symbol overflow="visible" id="pca-glyph0-3"><path style="stroke:none;" d="M 0.523438 -2.363281 L 1.625 -2.507813 C 1.746094 -1.882813 1.960938 -1.433594 2.265625 -1.160156 C 2.566406 -0.886719 2.9375 -0.75 3.375 -0.75 C 3.890625 -0.75 4.324219 -0.925781 4.683594 -1.285156 C 5.035156 -1.640625 5.214844 -2.085938 5.21875 -2.617188 C 5.214844 -3.121094 5.050781 -3.539063 4.722656 -3.867188 C 4.394531 -4.195313 3.976563 -4.359375 3.46875 -4.359375 C 3.257813 -4.359375 2.996094 -4.316406 2.691406 -4.234375 L 2.8125 -5.199219 C 2.882813 -5.1875 2.941406 -5.183594 2.992188 -5.1875 C 3.457031 -5.183594 3.878906 -5.308594 4.253906 -5.554688 C 4.628906 -5.796875 4.816406 -6.171875 4.816406 -6.683594 C 4.816406 -7.085938 4.679688 -7.417969 4.40625 -7.683594 C 4.132813 -7.945313 3.78125 -8.078125 3.351563 -8.082031 C 2.921875 -8.078125 2.5625 -7.945313 2.28125 -7.675781 C 1.992188 -7.40625 1.8125 -7.003906 1.734375 -6.46875 L 0.632813 -6.664063 C 0.765625 -7.398438 1.070313 -7.96875 1.550781 -8.375 C 2.023438 -8.777344 2.617188 -8.980469 3.328125 -8.984375 C 3.8125 -8.980469 4.261719 -8.875 4.675781 -8.667969 C 5.085938 -8.457031 5.398438 -8.171875 5.617188 -7.8125 C 5.832031 -7.445313 5.941406 -7.0625 5.945313 -6.660156 C 5.941406 -6.269531 5.835938 -5.917969 5.632813 -5.601563 C 5.421875 -5.28125 5.117188 -5.027344 4.710938 -4.847656 C 5.238281 -4.722656 5.648438 -4.46875 5.941406 -4.085938 C 6.234375 -3.695313 6.378906 -3.214844 6.382813 -2.644531 C 6.378906 -1.859375 6.09375 -1.199219 5.527344 -0.65625 C 4.957031 -0.113281 4.238281 0.15625 3.367188 0.160156 C 2.582031 0.15625 1.929688 -0.0742188 1.410156 -0.542969 C 0.890625 -1.007813 0.59375 -1.613281 0.523438 -2.363281 Z M 0.523438 -2.363281 "/></symbol><symbol overflow="visible" id="pca-glyph0-4"><path style="stroke:none;" d="M 4.039063 0 L 4.039063 -2.140625 L 0.160156 -2.140625 L 0.160156 -3.148438 L 4.242188 -8.949219 L 5.140625 -8.949219 L 5.140625 -3.148438 L 6.347656 -3.148438 L 6.347656 -2.140625 L 5.140625 -2.140625 L 5.140625 0 Z M 4.039063 -3.148438 L 4.039063 -7.183594 L 1.238281 -3.148438 Z M 4.039063 -3.148438 "/></symbol><symbol overflow="visible" id="pca-glyph0-5"><path style="stroke:none;" d="M 0.519531 -2.34375 L 1.671875 -2.441406 C 1.753906 -1.875 1.953125 -1.453125 2.265625 -1.171875 C 2.574219 -0.890625 2.949219 -0.75 3.394531 -0.75 C 3.917969 -0.75 4.367188 -0.949219 4.734375 -1.347656 C 5.101563 -1.746094 5.285156 -2.273438 5.285156 -2.9375 C 5.285156 -3.558594 5.109375 -4.054688 4.757813 -4.417969 C 4.40625 -4.777344 3.945313 -4.957031 3.375 -4.960938 C 3.019531 -4.957031 2.699219 -4.875 2.414063 -4.71875 C 2.128906 -4.554688 1.90625 -4.347656 1.746094 -4.09375 L 0.714844 -4.230469 L 1.582031 -8.824219 L 6.03125 -8.824219 L 6.03125 -7.777344 L 2.460938 -7.777344 L 1.976563 -5.371094 C 2.507813 -5.742188 3.074219 -5.929688 3.667969 -5.933594 C 4.449219 -5.929688 5.105469 -5.660156 5.644531 -5.121094 C 6.179688 -4.578125 6.449219 -3.882813 6.453125 -3.035156 C 6.449219 -2.222656 6.214844 -1.519531 5.742188 -0.933594 C 5.167969 -0.207031 4.382813 0.152344 3.394531 0.152344 C 2.574219 0.152344 1.910156 -0.0742188 1.398438 -0.53125 C 0.882813 -0.984375 0.589844 -1.589844 0.519531 -2.34375 Z M 0.519531 -2.34375 "/></symbol><symbol overflow="visible" id="pca-glyph0-6"><path style="stroke:none;" d="M 6.21875 -6.757813 L 5.125 -6.671875 C 5.027344 -7.097656 4.890625 -7.410156 4.710938 -7.609375 C 4.414063 -7.921875 4.046875 -8.078125 3.613281 -8.082031 C 3.261719 -8.078125 2.953125 -7.980469 2.691406 -7.789063 C 2.339844 -7.53125 2.066406 -7.164063 1.871094 -6.683594 C 1.667969 -6.195313 1.566406 -5.503906 1.5625 -4.613281 C 1.824219 -5.011719 2.148438 -5.3125 2.53125 -5.511719 C 2.914063 -5.703125 3.3125 -5.800781 3.734375 -5.804688 C 4.464844 -5.800781 5.089844 -5.53125 5.605469 -4.996094 C 6.117188 -4.453125 6.375 -3.757813 6.378906 -2.90625 C 6.375 -2.34375 6.253906 -1.820313 6.015625 -1.339844 C 5.769531 -0.855469 5.4375 -0.484375 5.015625 -0.230469 C 4.59375 0.0273438 4.113281 0.152344 3.578125 0.152344 C 2.660156 0.152344 1.914063 -0.183594 1.335938 -0.855469 C 0.757813 -1.527344 0.46875 -2.636719 0.46875 -4.1875 C 0.46875 -5.914063 0.789063 -7.171875 1.429688 -7.960938 C 1.984375 -8.640625 2.734375 -8.980469 3.679688 -8.984375 C 4.382813 -8.980469 4.957031 -8.785156 5.410156 -8.390625 C 5.855469 -7.996094 6.125 -7.449219 6.21875 -6.757813 Z M 1.734375 -2.898438 C 1.734375 -2.519531 1.8125 -2.15625 1.972656 -1.8125 C 2.132813 -1.460938 2.359375 -1.199219 2.648438 -1.019531 C 2.9375 -0.839844 3.238281 -0.75 3.558594 -0.75 C 4.019531 -0.75 4.417969 -0.9375 4.753906 -1.3125 C 5.082031 -1.6875 5.25 -2.195313 5.253906 -2.839844 C 5.25 -3.453125 5.085938 -3.941406 4.757813 -4.300781 C 4.429688 -4.65625 4.015625 -4.832031 3.515625 -4.835938 C 3.015625 -4.832031 2.59375 -4.65625 2.25 -4.300781 C 1.90625 -3.941406 1.734375 -3.472656 1.734375 -2.898438 Z M 1.734375 -2.898438 "/></symbol><symbol overflow="visible" id="pca-glyph0-7"><path style="stroke:none;" d="M 0.59375 -7.777344 L 0.59375 -8.832031 L 6.382813 -8.832031 L 6.382813 -7.976563 C 5.8125 -7.367188 5.25 -6.5625 4.691406 -5.558594 C 4.128906 -4.554688 3.695313 -3.523438 3.394531 -2.460938 C 3.167969 -1.710938 3.027344 -0.890625 2.972656 0 L 1.84375 0 C 1.855469 -0.703125 1.992188 -1.550781 2.257813 -2.550781 C 2.519531 -3.542969 2.898438 -4.503906 3.394531 -5.433594 C 3.886719 -6.355469 4.414063 -7.136719 4.972656 -7.777344 Z M 0.59375 -7.777344 "/></symbol><symbol overflow="visible" id="pca-glyph0-8"><path style="stroke:none;" d="M 2.210938 -4.851563 C 1.75 -5.015625 1.414063 -5.253906 1.195313 -5.566406 C 0.976563 -5.875 0.867188 -6.242188 0.867188 -6.675781 C 0.867188 -7.324219 1.097656 -7.871094 1.566406 -8.316406 C 2.03125 -8.757813 2.65625 -8.980469 3.4375 -8.984375 C 4.214844 -8.980469 4.84375 -8.753906 5.320313 -8.304688 C 5.796875 -7.847656 6.035156 -7.296875 6.035156 -6.648438 C 6.035156 -6.230469 5.925781 -5.867188 5.707031 -5.5625 C 5.488281 -5.25 5.15625 -5.015625 4.71875 -4.851563 C 5.265625 -4.671875 5.683594 -4.382813 5.972656 -3.984375 C 6.253906 -3.585938 6.398438 -3.109375 6.402344 -2.558594 C 6.398438 -1.789063 6.128906 -1.144531 5.589844 -0.628906 C 5.046875 -0.105469 4.332031 0.152344 3.453125 0.152344 C 2.566406 0.152344 1.855469 -0.105469 1.316406 -0.628906 C 0.773438 -1.148438 0.503906 -1.800781 0.507813 -2.585938 C 0.503906 -3.164063 0.652344 -3.652344 0.949219 -4.050781 C 1.242188 -4.441406 1.660156 -4.710938 2.210938 -4.851563 Z M 1.988281 -6.714844 C 1.984375 -6.289063 2.121094 -5.941406 2.398438 -5.675781 C 2.667969 -5.40625 3.023438 -5.273438 3.460938 -5.273438 C 3.878906 -5.273438 4.226563 -5.40625 4.5 -5.671875 C 4.769531 -5.9375 4.902344 -6.261719 4.90625 -6.652344 C 4.902344 -7.050781 4.765625 -7.390625 4.488281 -7.667969 C 4.207031 -7.941406 3.859375 -8.078125 3.449219 -8.082031 C 3.027344 -8.078125 2.679688 -7.945313 2.402344 -7.675781 C 2.125 -7.40625 1.984375 -7.085938 1.988281 -6.714844 Z M 1.636719 -2.582031 C 1.632813 -2.265625 1.707031 -1.960938 1.859375 -1.671875 C 2.003906 -1.375 2.226563 -1.148438 2.519531 -0.992188 C 2.8125 -0.828125 3.128906 -0.75 3.46875 -0.75 C 3.992188 -0.75 4.421875 -0.917969 4.765625 -1.257813 C 5.105469 -1.59375 5.277344 -2.023438 5.28125 -2.546875 C 5.277344 -3.074219 5.101563 -3.511719 4.75 -3.855469 C 4.394531 -4.199219 3.953125 -4.371094 3.429688 -4.375 C 2.910156 -4.371094 2.484375 -4.199219 2.144531 -3.863281 C 1.804688 -3.519531 1.632813 -3.09375 1.636719 -2.582031 Z M 1.636719 -2.582031 "/></symbol><symbol overflow="visible" id="pca-glyph0-9"><path style="stroke:none;" d="M 0.414063 -3.242188 C 0.410156 -4.4375 0.742188 -5.328125 1.414063 -5.90625 C 1.96875 -6.386719 2.648438 -6.625 3.453125 -6.628906 C 4.34375 -6.625 5.074219 -6.332031 5.640625 -5.75 C 6.203125 -5.164063 6.484375 -4.359375 6.488281 -3.332031 C 6.484375 -2.496094 6.359375 -1.839844 6.113281 -1.363281 C 5.859375 -0.882813 5.496094 -0.511719 5.019531 -0.25 C 4.539063 0.015625 4.015625 0.144531 3.453125 0.148438 C 2.542969 0.144531 1.8125 -0.140625 1.253906 -0.722656 C 0.691406 -1.300781 0.410156 -2.140625 0.414063 -3.242188 Z M 1.542969 -3.242188 C 1.539063 -2.40625 1.722656 -1.785156 2.085938 -1.375 C 2.445313 -0.960938 2.898438 -0.753906 3.453125 -0.757813 C 3.996094 -0.753906 4.453125 -0.960938 4.816406 -1.378906 C 5.175781 -1.789063 5.355469 -2.421875 5.359375 -3.277344 C 5.355469 -4.074219 5.171875 -4.683594 4.8125 -5.097656 C 4.445313 -5.511719 3.992188 -5.71875 3.453125 -5.71875 C 2.898438 -5.71875 2.445313 -5.511719 2.085938 -5.101563 C 1.722656 -4.6875 1.539063 -4.066406 1.542969 -3.242188 Z M 1.542969 -3.242188 "/></symbol><symbol overflow="visible" id="pca-glyph0-10"><path style="stroke:none;" d="M 3.222656 -0.984375 L 3.382813 -0.0117188 C 3.070313 0.0507813 2.792969 0.0820313 2.550781 0.0859375 C 2.148438 0.0820313 1.839844 0.0234375 1.621094 -0.101563 C 1.398438 -0.226563 1.242188 -0.394531 1.15625 -0.601563 C 1.0625 -0.804688 1.019531 -1.238281 1.023438 -1.898438 L 1.023438 -5.628906 L 0.21875 -5.628906 L 0.21875 -6.480469 L 1.023438 -6.480469 L 1.023438 -8.085938 L 2.117188 -8.746094 L 2.117188 -6.480469 L 3.222656 -6.480469 L 3.222656 -5.628906 L 2.117188 -5.628906 L 2.117188 -1.835938 C 2.113281 -1.519531 2.132813 -1.320313 2.175781 -1.230469 C 2.210938 -1.140625 2.273438 -1.070313 2.363281 -1.019531 C 2.449219 -0.964844 2.578125 -0.9375 2.742188 -0.941406 C 2.859375 -0.9375 3.019531 -0.953125 3.222656 -0.984375 Z M 3.222656 -0.984375 "/></symbol><symbol overflow="visible" id="pca-glyph0-11"><path style="stroke:none;" d="M 0.824219 0 L 0.824219 -8.949219 L 1.921875 -8.949219 L 1.921875 -5.738281 C 2.433594 -6.328125 3.078125 -6.625 3.863281 -6.628906 C 4.339844 -6.625 4.757813 -6.53125 5.113281 -6.34375 C 5.464844 -6.152344 5.71875 -5.890625 5.871094 -5.558594 C 6.023438 -5.222656 6.097656 -4.738281 6.101563 -4.109375 L 6.101563 0 L 5.003906 0 L 5.003906 -4.109375 C 5.003906 -4.652344 4.882813 -5.050781 4.644531 -5.304688 C 4.40625 -5.554688 4.070313 -5.683594 3.636719 -5.683594 C 3.308594 -5.683594 3.003906 -5.597656 2.71875 -5.429688 C 2.429688 -5.257813 2.222656 -5.027344 2.105469 -4.742188 C 1.980469 -4.449219 1.921875 -4.050781 1.921875 -3.546875 L 1.921875 0 Z M 0.824219 0 "/></symbol><symbol overflow="visible" id="pca-glyph0-12"><path style="stroke:none;" d="M 5.261719 -2.085938 L 6.398438 -1.945313 C 6.21875 -1.28125 5.886719 -0.765625 5.402344 -0.402344 C 4.917969 -0.0351563 4.296875 0.144531 3.546875 0.148438 C 2.59375 0.144531 1.84375 -0.144531 1.289063 -0.726563 C 0.734375 -1.3125 0.457031 -2.132813 0.457031 -3.1875 C 0.457031 -4.273438 0.734375 -5.117188 1.296875 -5.722656 C 1.855469 -6.324219 2.585938 -6.625 3.484375 -6.628906 C 4.347656 -6.625 5.054688 -6.332031 5.609375 -5.742188 C 6.15625 -5.152344 6.433594 -4.320313 6.433594 -3.253906 C 6.433594 -3.183594 6.429688 -3.085938 6.425781 -2.960938 L 1.59375 -2.960938 C 1.632813 -2.242188 1.832031 -1.699219 2.195313 -1.324219 C 2.558594 -0.945313 3.011719 -0.753906 3.550781 -0.757813 C 3.953125 -0.753906 4.296875 -0.859375 4.582031 -1.074219 C 4.867188 -1.28125 5.09375 -1.621094 5.261719 -2.085938 Z M 1.652344 -3.863281 L 5.273438 -3.863281 C 5.222656 -4.402344 5.082031 -4.8125 4.859375 -5.089844 C 4.503906 -5.511719 4.050781 -5.722656 3.496094 -5.726563 C 2.992188 -5.722656 2.570313 -5.554688 2.226563 -5.21875 C 1.882813 -4.878906 1.691406 -4.425781 1.652344 -3.863281 Z M 1.652344 -3.863281 "/></symbol><symbol overflow="visible" id="pca-glyph0-13"><path style="stroke:none;" d="M 0.8125 0 L 0.8125 -6.480469 L 1.800781 -6.480469 L 1.800781 -5.5 C 2.050781 -5.957031 2.285156 -6.257813 2.5 -6.40625 C 2.710938 -6.550781 2.945313 -6.625 3.203125 -6.628906 C 3.570313 -6.625 3.945313 -6.507813 4.332031 -6.273438 L 3.953125 -5.253906 C 3.683594 -5.410156 3.414063 -5.488281 3.148438 -5.492188 C 2.90625 -5.488281 2.691406 -5.417969 2.5 -5.273438 C 2.308594 -5.128906 2.171875 -4.929688 2.09375 -4.675781 C 1.96875 -4.285156 1.910156 -3.855469 1.910156 -3.394531 L 1.910156 0 Z M 0.8125 0 "/></symbol><symbol overflow="visible" id="pca-glyph0-14"><path style="stroke:none;" d="M 0.964844 0 L 0.964844 -8.949219 L 4.339844 -8.949219 C 4.929688 -8.945313 5.382813 -8.917969 5.699219 -8.863281 C 6.136719 -8.789063 6.503906 -8.648438 6.804688 -8.445313 C 7.097656 -8.234375 7.335938 -7.945313 7.519531 -7.578125 C 7.699219 -7.203125 7.792969 -6.796875 7.792969 -6.359375 C 7.792969 -5.59375 7.550781 -4.949219 7.066406 -4.425781 C 6.582031 -3.894531 5.707031 -3.632813 4.445313 -3.636719 L 2.148438 -3.636719 L 2.148438 0 Z M 2.148438 -4.695313 L 4.460938 -4.695313 C 5.222656 -4.691406 5.765625 -4.835938 6.089844 -5.121094 C 6.410156 -5.402344 6.574219 -5.800781 6.574219 -6.324219 C 6.574219 -6.691406 6.476563 -7.011719 6.289063 -7.28125 C 6.097656 -7.546875 5.851563 -7.722656 5.542969 -7.8125 C 5.339844 -7.859375 4.96875 -7.886719 4.4375 -7.890625 L 2.148438 -7.890625 Z M 2.148438 -4.695313 "/></symbol><symbol overflow="visible" id="pca-glyph0-15"><path style="stroke:none;" d="M 7.347656 -3.136719 L 8.53125 -2.839844 C 8.28125 -1.863281 7.832031 -1.121094 7.191406 -0.613281 C 6.542969 -0.101563 5.757813 0.152344 4.828125 0.152344 C 3.863281 0.152344 3.078125 -0.0429688 2.476563 -0.433594 C 1.871094 -0.824219 1.410156 -1.390625 1.09375 -2.140625 C 0.777344 -2.882813 0.621094 -3.683594 0.621094 -4.539063 C 0.621094 -5.46875 0.796875 -6.28125 1.15625 -6.976563 C 1.507813 -7.667969 2.015625 -8.195313 2.675781 -8.558594 C 3.332031 -8.917969 4.054688 -9.097656 4.847656 -9.101563 C 5.738281 -9.097656 6.492188 -8.871094 7.101563 -8.417969 C 7.710938 -7.960938 8.136719 -7.320313 8.378906 -6.492188 L 7.214844 -6.21875 C 7.003906 -6.867188 6.703125 -7.34375 6.308594 -7.640625 C 5.914063 -7.9375 5.417969 -8.085938 4.820313 -8.085938 C 4.128906 -8.085938 3.554688 -7.917969 3.097656 -7.589844 C 2.632813 -7.257813 2.308594 -6.816406 2.125 -6.265625 C 1.933594 -5.707031 1.839844 -5.136719 1.84375 -4.546875 C 1.839844 -3.785156 1.949219 -3.121094 2.175781 -2.554688 C 2.394531 -1.984375 2.742188 -1.558594 3.210938 -1.28125 C 3.679688 -0.996094 4.183594 -0.855469 4.730469 -0.859375 C 5.390625 -0.855469 5.953125 -1.046875 6.414063 -1.433594 C 6.871094 -1.8125 7.183594 -2.378906 7.347656 -3.136719 Z M 7.347656 -3.136719 "/></symbol><symbol overflow="visible" id="pca-glyph1-0"><path style="stroke:none;" d="M 0 -0.964844 L -8.949219 -0.964844 L -8.949219 -4.339844 C -8.945313 -4.929688 -8.917969 -5.382813 -8.863281 -5.699219 C -8.789063 -6.136719 -8.648438 -6.503906 -8.445313 -6.804688 C -8.234375 -7.097656 -7.945313 -7.335938 -7.578125 -7.519531 C -7.203125 -7.699219 -6.796875 -7.792969 -6.359375 -7.792969 C -5.59375 -7.792969 -4.949219 -7.550781 -4.425781 -7.066406 C -3.894531 -6.582031 -3.632813 -5.707031 -3.636719 -4.445313 L -3.636719 -2.148438 L 0 -2.148438 Z M -4.695313 -2.148438 L -4.695313 -4.460938 C -4.691406 -5.222656 -4.835938 -5.765625 -5.121094 -6.089844 C -5.402344 -6.410156 -5.800781 -6.574219 -6.324219 -6.574219 C -6.691406 -6.574219 -7.011719 -6.476563 -7.28125 -6.289063 C -7.546875 -6.097656 -7.722656 -5.851563 -7.8125 -5.542969 C -7.859375 -5.339844 -7.886719 -4.96875 -7.890625 -4.4375 L -7.890625 -2.148438 Z M -4.695313 -2.148438 "/></symbol><symbol overflow="visible" id="pca-glyph1-1"><path style="stroke:none;" d="M -3.136719 -7.347656 L -2.839844 -8.53125 C -1.863281 -8.28125 -1.121094 -7.832031 -0.613281 -7.191406 C -0.101563 -6.542969 0.152344 -5.757813 0.152344 -4.828125 C 0.152344 -3.863281 -0.0429688 -3.078125 -0.433594 -2.476563 C -0.824219 -1.871094 -1.390625 -1.410156 -2.140625 -1.09375 C -2.882813 -0.777344 -3.683594 -0.621094 -4.539063 -0.621094 C -5.46875 -0.621094 -6.28125 -0.796875 -6.976563 -1.15625 C -7.667969 -1.507813 -8.195313 -2.015625 -8.558594 -2.675781 C -8.917969 -3.332031 -9.097656 -4.054688 -9.101563 -4.847656 C -9.097656 -5.738281 -8.871094 -6.492188 -8.417969 -7.101563 C -7.960938 -7.710938 -7.320313 -8.136719 -6.492188 -8.378906 L -6.21875 -7.214844 C -6.867188 -7.003906 -7.34375 -6.703125 -7.640625 -6.308594 C -7.9375 -5.914063 -8.085938 -5.417969 -8.085938 -4.820313 C -8.085938 -4.128906 -7.917969 -3.554688 -7.589844 -3.097656 C -7.257813 -2.632813 -6.816406 -2.308594 -6.265625 -2.125 C -5.707031 -1.933594 -5.136719 -1.839844 -4.546875 -1.84375 C -3.785156 -1.839844 -3.121094 -1.949219 -2.554688 -2.175781 C -1.984375 -2.394531 -1.558594 -2.742188 -1.28125 -3.210938 C -0.996094 -3.679688 -0.855469 -4.183594 -0.859375 -4.730469 C -0.855469 -5.390625 -1.046875 -5.953125 -1.433594 -6.414063 C -1.8125 -6.871094 -2.378906 -7.183594 -3.136719 -7.347656 Z M -3.136719 -7.347656 "/></symbol><symbol overflow="visible" id="pca-glyph1-2"><path style="stroke:none;" d="M -1.054688 -6.292969 L 0 -6.292969 L 0 -0.378906 C -0.265625 -0.367188 -0.519531 -0.410156 -0.761719 -0.507813 C -1.164063 -0.65625 -1.558594 -0.898438 -1.953125 -1.230469 C -2.339844 -1.558594 -2.792969 -2.035156 -3.308594 -2.667969 C -4.101563 -3.636719 -4.734375 -4.292969 -5.203125 -4.636719 C -5.667969 -4.976563 -6.105469 -5.148438 -6.523438 -5.152344 C -6.957031 -5.148438 -7.324219 -4.992188 -7.625 -4.683594 C -7.921875 -4.371094 -8.074219 -3.96875 -8.074219 -3.46875 C -8.074219 -2.9375 -7.914063 -2.511719 -7.597656 -2.195313 C -7.277344 -1.878906 -6.839844 -1.71875 -6.28125 -1.714844 L -6.398438 -0.585938 C -7.238281 -0.664063 -7.878906 -0.953125 -8.320313 -1.457031 C -8.761719 -1.960938 -8.980469 -2.640625 -8.984375 -3.492188 C -8.980469 -4.347656 -8.742188 -5.023438 -8.269531 -5.527344 C -7.789063 -6.027344 -7.199219 -6.28125 -6.5 -6.28125 C -6.140625 -6.28125 -5.789063 -6.207031 -5.445313 -6.058594 C -5.09375 -5.910156 -4.730469 -5.664063 -4.351563 -5.328125 C -3.964844 -4.984375 -3.441406 -4.421875 -2.777344 -3.636719 C -2.222656 -2.976563 -1.84375 -2.554688 -1.648438 -2.367188 C -1.449219 -2.179688 -1.253906 -2.023438 -1.054688 -1.90625 Z M -1.054688 -6.292969 "/></symbol><symbol overflow="visible" id="pca-glyph2-0"><path style="stroke:none;" d="M 0.320313 -2.171875 L 0.320313 -3.0625 L 3.046875 -3.0625 L 3.046875 -2.171875 Z M 0.320313 -2.171875 "/></symbol><symbol overflow="visible" id="pca-glyph2-1"><path style="stroke:none;" d="M 3.761719 0 L 2.875 0 L 2.875 -5.65625 C 2.660156 -5.449219 2.378906 -5.246094 2.035156 -5.042969 C 1.683594 -4.835938 1.375 -4.683594 1.101563 -4.585938 L 1.101563 -5.445313 C 1.59375 -5.671875 2.027344 -5.953125 2.402344 -6.289063 C 2.773438 -6.617188 3.035156 -6.941406 3.191406 -7.257813 L 3.761719 -7.257813 Z M 3.761719 0 "/></symbol><symbol overflow="visible" id="pca-glyph2-2"><path style="stroke:none;" d="M 0.417969 -3.566406 C 0.414063 -4.417969 0.503906 -5.105469 0.679688 -5.628906 C 0.855469 -6.148438 1.117188 -6.550781 1.464844 -6.832031 C 1.8125 -7.113281 2.25 -7.253906 2.777344 -7.257813 C 3.164063 -7.253906 3.503906 -7.175781 3.796875 -7.023438 C 4.085938 -6.863281 4.324219 -6.636719 4.519531 -6.347656 C 4.707031 -6.050781 4.859375 -5.695313 4.96875 -5.273438 C 5.078125 -4.851563 5.132813 -4.28125 5.132813 -3.566406 C 5.132813 -2.714844 5.042969 -2.03125 4.871094 -1.511719 C 4.691406 -0.988281 4.433594 -0.582031 4.089844 -0.300781 C 3.742188 -0.015625 3.304688 0.121094 2.777344 0.125 C 2.078125 0.121094 1.527344 -0.125 1.132813 -0.625 C 0.652344 -1.222656 0.414063 -2.203125 0.417969 -3.566406 Z M 1.332031 -3.566406 C 1.328125 -2.375 1.46875 -1.585938 1.746094 -1.195313 C 2.023438 -0.800781 2.367188 -0.601563 2.777344 -0.605469 C 3.183594 -0.601563 3.523438 -0.800781 3.804688 -1.195313 C 4.078125 -1.589844 4.21875 -2.378906 4.222656 -3.566406 C 4.21875 -4.753906 4.078125 -5.542969 3.804688 -5.9375 C 3.523438 -6.324219 3.179688 -6.519531 2.765625 -6.523438 C 2.359375 -6.519531 2.03125 -6.347656 1.789063 -6.007813 C 1.480469 -5.5625 1.328125 -4.75 1.332031 -3.566406 Z M 1.332031 -3.566406 "/></symbol><symbol overflow="visible" id="pca-glyph2-3"><path style="stroke:none;" d="M 5.085938 -0.851563 L 5.085938 0 L 0.304688 0 C 0.296875 -0.210938 0.332031 -0.414063 0.410156 -0.617188 C 0.53125 -0.9375 0.722656 -1.257813 0.992188 -1.578125 C 1.257813 -1.890625 1.648438 -2.257813 2.15625 -2.671875 C 2.9375 -3.316406 3.464844 -3.824219 3.746094 -4.203125 C 4.019531 -4.578125 4.160156 -4.9375 4.164063 -5.273438 C 4.160156 -5.625 4.035156 -5.917969 3.785156 -6.160156 C 3.53125 -6.398438 3.203125 -6.519531 2.800781 -6.523438 C 2.371094 -6.519531 2.027344 -6.390625 1.773438 -6.136719 C 1.515625 -5.878906 1.386719 -5.527344 1.386719 -5.074219 L 0.472656 -5.167969 C 0.53125 -5.847656 0.765625 -6.363281 1.175781 -6.722656 C 1.582031 -7.074219 2.128906 -7.253906 2.820313 -7.257813 C 3.511719 -7.253906 4.0625 -7.0625 4.46875 -6.679688 C 4.871094 -6.296875 5.074219 -5.820313 5.074219 -5.253906 C 5.074219 -4.960938 5.011719 -4.675781 4.894531 -4.398438 C 4.773438 -4.117188 4.578125 -3.824219 4.304688 -3.515625 C 4.027344 -3.203125 3.570313 -2.777344 2.9375 -2.242188 C 2.402344 -1.792969 2.0625 -1.488281 1.914063 -1.332031 C 1.761719 -1.167969 1.636719 -1.007813 1.539063 -0.851563 Z M 5.085938 -0.851563 "/></symbol><symbol overflow="visible" id="pca-glyph2-4"><path style="stroke:none;" d="M 0.425781 -1.910156 L 1.3125 -2.027344 C 1.414063 -1.523438 1.585938 -1.160156 1.832031 -0.9375 C 2.074219 -0.714844 2.371094 -0.601563 2.726563 -0.605469 C 3.140625 -0.601563 3.492188 -0.746094 3.78125 -1.039063 C 4.066406 -1.324219 4.210938 -1.683594 4.214844 -2.117188 C 4.210938 -2.519531 4.078125 -2.855469 3.816406 -3.121094 C 3.546875 -3.382813 3.210938 -3.515625 2.800781 -3.519531 C 2.632813 -3.515625 2.421875 -3.484375 2.175781 -3.421875 L 2.273438 -4.203125 C 2.332031 -4.191406 2.378906 -4.1875 2.417969 -4.191406 C 2.792969 -4.1875 3.132813 -4.289063 3.4375 -4.488281 C 3.738281 -4.683594 3.890625 -4.984375 3.890625 -5.398438 C 3.890625 -5.71875 3.777344 -5.988281 3.558594 -6.207031 C 3.335938 -6.417969 3.054688 -6.527344 2.707031 -6.53125 C 2.363281 -6.527344 2.074219 -6.417969 1.84375 -6.203125 C 1.613281 -5.984375 1.464844 -5.660156 1.402344 -5.226563 L 0.511719 -5.386719 C 0.617188 -5.976563 0.863281 -6.4375 1.25 -6.765625 C 1.632813 -7.089844 2.113281 -7.253906 2.6875 -7.257813 C 3.082031 -7.253906 3.445313 -7.167969 3.777344 -7.003906 C 4.109375 -6.832031 4.363281 -6.601563 4.539063 -6.3125 C 4.714844 -6.015625 4.804688 -5.707031 4.804688 -5.378906 C 4.804688 -5.066406 4.71875 -4.78125 4.550781 -4.523438 C 4.382813 -4.265625 4.136719 -4.0625 3.808594 -3.914063 C 4.234375 -3.816406 4.566406 -3.609375 4.804688 -3.300781 C 5.039063 -2.988281 5.15625 -2.601563 5.160156 -2.136719 C 5.15625 -1.5 4.925781 -0.964844 4.46875 -0.527344 C 4.003906 -0.0898438 3.421875 0.128906 2.722656 0.128906 C 2.085938 0.128906 1.558594 -0.0585938 1.140625 -0.4375 C 0.71875 -0.816406 0.480469 -1.308594 0.425781 -1.910156 Z M 0.425781 -1.910156 "/></symbol></g><clipPath id="pca-clip1"><path d="M 55.8125 141.457031 L 351.164063 141.457031 L 351.164063 461.839844 L 55.8125 461.839844 Z M 55.8125 141.457031 "/></clipPath></defs><g id="surface1"><path style="fill-rule:nonzero;fill:rgb(89.411765%,10.196078%,10.980392%);fill-opacity:1;stroke-width:1;stroke-linecap:round;stroke-linejoin:round;stroke:rgb(0%,0%,0%);stroke-opacity:1;stroke-miterlimit:10;" d="M 152.636719 6 L 187.394531 6 L 187.394531 17.828125 L 152.636719 17.828125 Z M 152.636719 6 "/><path style="fill-rule:nonzero;fill:rgb(21.568627%,49.411765%,72.156863%);fill-opacity:1;stroke-width:1;stroke-linecap:round;stroke-linejoin:round;stroke:rgb(0%,0%,0%);stroke-opacity:1;stroke-miterlimit:10;" d="M 152.636719 17.828125 L 187.394531 17.828125 L 187.394531 29.65625 L 152.636719 29.65625 Z M 152.636719 17.828125 "/><path style="fill-rule:nonzero;fill:rgb(30.196078%,68.627451%,29.019608%);fill-opacity:1;stroke-width:1;stroke-linecap:round;stroke-linejoin:round;stroke:rgb(0%,0%,0%);stroke-opacity:1;stroke-miterlimit:10;" d="M 152.636719 29.65625 L 187.394531 29.65625 L 187.394531 41.484375 L 152.636719 41.484375 Z M 152.636719 29.65625 "/><path style="fill-rule:nonzero;fill:rgb(59.607843%,30.588235%,63.921569%);fill-opacity:1;stroke-width:1;stroke-linecap:round;stroke-linejoin:round;stroke:rgb(0%,0%,0%);stroke-opacity:1;stroke-miterlimit:10;" d="M 152.636719 41.484375 L 187.394531 41.484375 L 187.394531 53.3125 L 152.636719 53.3125 Z M 152.636719 41.484375 "/><path style="fill-rule:nonzero;fill:rgb(100%,49.803922%,0%);fill-opacity:1;stroke-width:1;stroke-linecap:round;stroke-linejoin:round;stroke:rgb(0%,0%,0%);stroke-opacity:1;stroke-miterlimit:10;" d="M 152.636719 53.3125 L 187.394531 53.3125 L 187.394531 65.140625 L 152.636719 65.140625 Z M 152.636719 53.3125 "/><path style="fill-rule:nonzero;fill:rgb(100%,100%,20%);fill-opacity:1;stroke-width:1;stroke-linecap:round;stroke-linejoin:round;stroke:rgb(0%,0%,0%);stroke-opacity:1;stroke-miterlimit:10;" d="M 152.636719 65.140625 L 187.394531 65.140625 L 187.394531 76.96875 L 152.636719 76.96875 Z M 152.636719 65.140625 "/><path style="fill-rule:nonzero;fill:rgb(65.098039%,33.72549%,15.686275%);fill-opacity:1;stroke-width:1;stroke-linecap:round;stroke-linejoin:round;stroke:rgb(0%,0%,0%);stroke-opacity:1;stroke-miterlimit:10;" d="M 152.636719 76.964844 L 187.394531 76.964844 L 187.394531 88.792969 L 152.636719 88.792969 Z M 152.636719 76.964844 "/><path style="fill-rule:nonzero;fill:rgb(96.862745%,50.588235%,74.901961%);fill-opacity:1;stroke-width:1;stroke-linecap:round;stroke-linejoin:round;stroke:rgb(0%,0%,0%);stroke-opacity:1;stroke-miterlimit:10;" d="M 152.636719 88.792969 L 187.394531 88.792969 L 187.394531 100.621094 L 152.636719 100.621094 Z M 152.636719 88.792969 "/><path style="fill-rule:nonzero;fill:rgb(60%,60%,60%);fill-opacity:1;stroke-width:1;stroke-linecap:round;stroke-linejoin:round;stroke:rgb(0%,0%,0%);stroke-opacity:1;stroke-miterlimit:10;" d="M 152.636719 100.621094 L 187.394531 100.621094 L 187.394531 112.449219 L 152.636719 112.449219 Z M 152.636719 100.621094 "/><g style="fill:rgb(0%,0%,0%);fill-opacity:1;"><use xlink:href="#pca-glyph0-0" x="201.300781" y="16.386719"/><use xlink:href="#pca-glyph0-1" x="204.773682" y="16.386719"/></g><g style="fill:rgb(0%,0%,0%);fill-opacity:1;"><use xlink:href="#pca-glyph0-0" x="201.300781" y="28.214844"/><use xlink:href="#pca-glyph0-2" x="204.773682" y="28.214844"/></g><g style="fill:rgb(0%,0%,0%);fill-opacity:1;"><use xlink:href="#pca-glyph0-0" x="201.300781" y="40.042969"/><use xlink:href="#pca-glyph0-3" x="204.773682" y="40.042969"/></g><g style="fill:rgb(0%,0%,0%);fill-opacity:1;"><use xlink:href="#pca-glyph0-0" x="201.300781" y="51.871094"/><use xlink:href="#pca-glyph0-4" x="204.773682" y="51.871094"/></g><g style="fill:rgb(0%,0%,0%);fill-opacity:1;"><use xlink:href="#pca-glyph0-0" x="201.300781" y="63.699219"/><use xlink:href="#pca-glyph0-5" x="204.773682" y="63.699219"/></g><g style="fill:rgb(0%,0%,0%);fill-opacity:1;"><use xlink:href="#pca-glyph0-0" x="201.300781" y="75.527344"/><use xlink:href="#pca-glyph0-6" x="204.773682" y="75.527344"/></g><g style="fill:rgb(0%,0%,0%);fill-opacity:1;"><use xlink:href="#pca-glyph0-0" x="201.300781" y="87.355469"/><use xlink:href="#pca-glyph0-7" x="204.773682" y="87.355469"/></g><g style="fill:rgb(0%,0%,0%);fill-opacity:1;"><use xlink:href="#pca-glyph0-0" x="201.300781" y="99.183594"/><use xlink:href="#pca-glyph0-8" x="204.773682" y="99.183594"/></g><g style="fill:rgb(0%,0%,0%);fill-opacity:1;"><use xlink:href="#pca-glyph0-9" x="201.300781" y="111.011719"/><use xlink:href="#pca-glyph0-10" x="208.252686" y="111.011719"/><use xlink:href="#pca-glyph0-11" x="211.725586" y="111.011719"/><use xlink:href="#pca-glyph0-12" x="218.67749" y="111.011719"/><use xlink:href="#pca-glyph0-13" x="225.629395" y="111.011719"/></g><g style="fill:rgb(0%,0%,0%);fill-opacity:1;"><use xlink:href="#pca-glyph0-14" x="190.828125" y="500.027344"/><use xlink:href="#pca-glyph0-15" x="199.165527" y="500.027344"/><use xlink:href="#pca-glyph0-1" x="208.192627" y="500.027344"/></g><g style="fill:rgb(0%,0%,0%);fill-opacity:1;"><use xlink:href="#pca-glyph1-0" x="18.207031" y="313.304688"/><use xlink:href="#pca-glyph1-1" x="18.207031" y="304.967285"/><use xlink:href="#pca-glyph1-2" x="18.207031" y="295.940186"/></g><path style="fill:none;stroke-width:1;stroke-linecap:round;stroke-linejoin:round;stroke:rgb(0%,0%,0%);stroke-opacity:1;stroke-miterlimit:10;" d="M 100.679688 141.457031 L 100.679688 135.789063 "/><path style="fill:none;stroke-width:1;stroke-linecap:round;stroke-linejoin:round;stroke:rgb(0%,0%,0%);stroke-opacity:1;stroke-miterlimit:10;" d="M 172.402344 141.457031 L 172.402344 135.789063 "/><path style="fill:none;stroke-width:1;stroke-linecap:round;stroke-linejoin:round;stroke:rgb(0%,0%,0%);stroke-opacity:1;stroke-miterlimit:10;" d="M 244.125 141.457031 L 244.125 135.789063 "/><path style="fill:none;stroke-width:1;stroke-linecap:round;stroke-linejoin:round;stroke:rgb(0%,0%,0%);stroke-opacity:1;stroke-miterlimit:10;" d="M 315.851563 141.457031 L 315.851563 135.789063 "/><path style="fill:none;stroke-width:1;stroke-linecap:round;stroke-linejoin:round;stroke:rgb(0%,0%,0%);stroke-opacity:1;stroke-miterlimit:10;" d="M 55.8125 435.683594 L 50.140625 435.683594 "/><path style="fill:none;stroke-width:1;stroke-linecap:round;stroke-linejoin:round;stroke:rgb(0%,0%,0%);stroke-opacity:1;stroke-miterlimit:10;" d="M 55.8125 363.960938 L 50.140625 363.960938 "/><path style="fill:none;stroke-width:1;stroke-linecap:round;stroke-linejoin:round;stroke:rgb(0%,0%,0%);stroke-opacity:1;stroke-miterlimit:10;" d="M 55.8125 292.238281 L 50.140625 292.238281 "/><path style="fill:none;stroke-width:1;stroke-linecap:round;stroke-linejoin:round;stroke:rgb(0%,0%,0%);stroke-opacity:1;stroke-miterlimit:10;" d="M 55.8125 220.511719 L 50.140625 220.511719 "/><path style="fill:none;stroke-width:1;stroke-linecap:round;stroke-linejoin:round;stroke:rgb(0%,0%,0%);stroke-opacity:1;stroke-miterlimit:10;" d="M 55.8125 148.789063 L 50.140625 148.789063 "/><g style="fill:rgb(0%,0%,0%);fill-opacity:1;"><use xlink:href="#pca-glyph2-0" x="29.875" y="439.296875"/><use xlink:href="#pca-glyph2-1" x="33.238379" y="439.296875"/><use xlink:href="#pca-glyph2-2" x="38.855518" y="439.296875"/></g><g style="fill:rgb(0%,0%,0%);fill-opacity:1;"><use xlink:href="#pca-glyph2-2" x="38.855469" y="367.574219"/></g><g style="fill:rgb(0%,0%,0%);fill-opacity:1;"><use xlink:href="#pca-glyph2-1" x="33.238281" y="295.851563"/><use xlink:href="#pca-glyph2-2" x="38.85542" y="295.851563"/></g><g style="fill:rgb(0%,0%,0%);fill-opacity:1;"><use xlink:href="#pca-glyph2-3" x="33.238281" y="224.128906"/><use xlink:href="#pca-glyph2-2" x="38.85542" y="224.128906"/></g><g style="fill:rgb(0%,0%,0%);fill-opacity:1;"><use xlink:href="#pca-glyph2-4" x="33.238281" y="152.40625"/><use xlink:href="#pca-glyph2-2" x="38.85542" y="152.40625"/></g><path style="fill:none;stroke-width:1;stroke-linecap:round;stroke-linejoin:round;stroke:rgb(0%,0%,0%);stroke-opacity:1;stroke-miterlimit:10;" d="M 100.679688 460.839844 L 100.679688 466.511719 "/><path style="fill:none;stroke-width:1;stroke-linecap:round;stroke-linejoin:round;stroke:rgb(0%,0%,0%);stroke-opacity:1;stroke-miterlimit:10;" d="M 172.402344 460.839844 L 172.402344 466.511719 "/><path style="fill:none;stroke-width:1;stroke-linecap:round;stroke-linejoin:round;stroke:rgb(0%,0%,0%);stroke-opacity:1;stroke-miterlimit:10;" d="M 244.125 460.839844 L 244.125 466.511719 "/><path style="fill:none;stroke-width:1;stroke-linecap:round;stroke-linejoin:round;stroke:rgb(0%,0%,0%);stroke-opacity:1;stroke-miterlimit:10;" d="M 315.851563 460.839844 L 315.851563 466.511719 "/><g style="fill:rgb(0%,0%,0%);fill-opacity:1;"><use xlink:href="#pca-glyph2-0" x="93.382813" y="479.410156"/><use xlink:href="#pca-glyph2-1" x="96.746191" y="479.410156"/><use xlink:href="#pca-glyph2-2" x="102.36333" y="479.410156"/></g><g style="fill:rgb(0%,0%,0%);fill-opacity:1;"><use xlink:href="#pca-glyph2-2" x="169.59375" y="479.410156"/></g><g style="fill:rgb(0%,0%,0%);fill-opacity:1;"><use xlink:href="#pca-glyph2-1" x="238.507813" y="479.410156"/><use xlink:href="#pca-glyph2-2" x="244.124951" y="479.410156"/></g><g style="fill:rgb(0%,0%,0%);fill-opacity:1;"><use xlink:href="#pca-glyph2-3" x="310.234375" y="479.410156"/><use xlink:href="#pca-glyph2-2" x="315.851514" y="479.410156"/></g><path style="fill:none;stroke-width:1;stroke-linecap:round;stroke-linejoin:round;stroke:rgb(0%,0%,0%);stroke-opacity:1;stroke-miterlimit:10;" d="M 350.160156 435.683594 L 355.832031 435.683594 "/><path style="fill:none;stroke-width:1;stroke-linecap:round;stroke-linejoin:round;stroke:rgb(0%,0%,0%);stroke-opacity:1;stroke-miterlimit:10;" d="M 350.160156 363.960938 L 355.832031 363.960938 "/><path style="fill:none;stroke-width:1;stroke-linecap:round;stroke-linejoin:round;stroke:rgb(0%,0%,0%);stroke-opacity:1;stroke-miterlimit:10;" d="M 350.160156 292.238281 L 355.832031 292.238281 "/><path style="fill:none;stroke-width:1;stroke-linecap:round;stroke-linejoin:round;stroke:rgb(0%,0%,0%);stroke-opacity:1;stroke-miterlimit:10;" d="M 350.160156 220.511719 L 355.832031 220.511719 "/><path style="fill:none;stroke-width:1;stroke-linecap:round;stroke-linejoin:round;stroke:rgb(0%,0%,0%);stroke-opacity:1;stroke-miterlimit:10;" d="M 350.160156 148.789063 L 355.832031 148.789063 "/><g clip-path="url(#pca-clip1)" clip-rule="nonzero" type="plot-region" class="plot-region"><path d="M 146.429688 374.136719 C 146.429688 378.804688 139.429688 378.804688 139.429688 374.136719 C 139.429688 369.472656 146.429688 369.472656 146.429688 374.136719 " type="plot-point" class="aqm1" onclick="plotObjRespond('click', 1, 'pca')" onmouseover="plotObjRespond('show', 1, 'pca')" onmouseout="plotObjRespond('hide', 1, 'pca')" fill-rule="nonzero" fill="rgb(89.411765%,10.196078%,10.980392%)" fill-opacity="1" stroke-width="1" stroke-linecap="round" stroke-linejoin="round" stroke="rgb(89.411765%,10.196078%,10.980392%)" stroke-opacity="1" stroke-miterlimit="10"/><path d="M 220.964844 345.113281 C 220.964844 349.777344 213.964844 349.777344 213.964844 345.113281 C 213.964844 340.445313 220.964844 340.445313 220.964844 345.113281 " type="plot-point" class="aqm2" onclick="plotObjRespond('click', 2, 'pca')" onmouseover="plotObjRespond('show', 2, 'pca')" onmouseout="plotObjRespond('hide', 2, 'pca')" fill-rule="nonzero" fill="rgb(89.411765%,10.196078%,10.980392%)" fill-opacity="1" stroke-width="1" stroke-linecap="round" stroke-linejoin="round" stroke="rgb(89.411765%,10.196078%,10.980392%)" stroke-opacity="1" stroke-miterlimit="10"/><path d="M 240.472656 348.984375 C 240.472656 353.648438 233.472656 353.648438 233.472656 348.984375 C 233.472656 344.316406 240.472656 344.316406 240.472656 348.984375 " type="plot-point" class="aqm3" onclick="plotObjRespond('click', 3, 'pca')" onmouseover="plotObjRespond('show', 3, 'pca')" onmouseout="plotObjRespond('hide', 3, 'pca')" fill-rule="nonzero" fill="rgb(89.411765%,10.196078%,10.980392%)" fill-opacity="1" stroke-width="1" stroke-linecap="round" stroke-linejoin="round" stroke="rgb(89.411765%,10.196078%,10.980392%)" stroke-opacity="1" stroke-miterlimit="10"/><path d="M 90.351563 161.070313 C 90.351563 165.734375 83.351563 165.734375 83.351563 161.070313 C 83.351563 156.402344 90.351563 156.402344 90.351563 161.070313 " type="plot-point" class="aqm4" onclick="plotObjRespond('click', 4, 'pca')" onmouseover="plotObjRespond('show', 4, 'pca')" onmouseout="plotObjRespond('hide', 4, 'pca')" fill-rule="nonzero" fill="rgb(21.568627%,49.411765%,72.156863%)" fill-opacity="1" stroke-width="1" stroke-linecap="round" stroke-linejoin="round" stroke="rgb(21.568627%,49.411765%,72.156863%)" stroke-opacity="1" stroke-miterlimit="10"/><path d="M 79.59375 253.183594 C 79.59375 257.851563 72.59375 257.851563 72.59375 253.183594 C 72.59375 248.515625 79.59375 248.515625 79.59375 253.183594 " type="plot-point" class="aqm5" onclick="plotObjRespond('click', 5, 'pca')" onmouseover="plotObjRespond('show', 5, 'pca')" onmouseout="plotObjRespond('hide', 5, 'pca')" fill-rule="nonzero" fill="rgb(21.568627%,49.411765%,72.156863%)" fill-opacity="1" stroke-width="1" stroke-linecap="round" stroke-linejoin="round" stroke="rgb(21.568627%,49.411765%,72.156863%)" stroke-opacity="1" stroke-miterlimit="10"/><path d="M 77.386719 333.726563 C 77.386719 338.390625 70.386719 338.390625 70.386719 333.726563 C 70.386719 329.058594 77.386719 329.058594 77.386719 333.726563 " type="plot-point" class="aqm6" onclick="plotObjRespond('click', 6, 'pca')" onmouseover="plotObjRespond('show', 6, 'pca')" onmouseout="plotObjRespond('hide', 6, 'pca')" fill-rule="nonzero" fill="rgb(21.568627%,49.411765%,72.156863%)" fill-opacity="1" stroke-width="1" stroke-linecap="round" stroke-linejoin="round" stroke="rgb(21.568627%,49.411765%,72.156863%)" stroke-opacity="1" stroke-miterlimit="10"/><path d="M 88.710938 262.722656 C 88.710938 267.386719 81.710938 267.386719 81.710938 262.722656 C 81.710938 258.054688 88.710938 258.054688 88.710938 262.722656 " type="plot-point" class="aqm7" onclick="plotObjRespond('click', 7, 'pca')" onmouseover="plotObjRespond('show', 7, 'pca')" onmouseout="plotObjRespond('hide', 7, 'pca')" fill-rule="nonzero" fill="rgb(21.568627%,49.411765%,72.156863%)" fill-opacity="1" stroke-width="1" stroke-linecap="round" stroke-linejoin="round" stroke="rgb(21.568627%,49.411765%,72.156863%)" stroke-opacity="1" stroke-miterlimit="10"/><path d="M 124.207031 405.742188 C 124.207031 410.40625 117.207031 410.40625 117.207031 405.742188 C 117.207031 401.074219 124.207031 401.074219 124.207031 405.742188 " type="plot-point" class="aqm8" onclick="plotObjRespond('click', 8, 'pca')" onmouseover="plotObjRespond('show', 8, 'pca')" onmouseout="plotObjRespond('hide', 8, 'pca')" fill-rule="nonzero" fill="rgb(30.196078%,68.627451%,29.019608%)" fill-opacity="1" stroke-width="1" stroke-linecap="round" stroke-linejoin="round" stroke="rgb(30.196078%,68.627451%,29.019608%)" stroke-opacity="1" stroke-miterlimit="10"/><path d="M 194.699219 384.53125 C 194.699219 389.199219 187.699219 389.199219 187.699219 384.53125 C 187.699219 379.863281 194.699219 379.863281 194.699219 384.53125 " type="plot-point" class="aqm9" onclick="plotObjRespond('click', 9, 'pca')" onmouseover="plotObjRespond('show', 9, 'pca')" onmouseout="plotObjRespond('hide', 9, 'pca')" fill-rule="nonzero" fill="rgb(30.196078%,68.627451%,29.019608%)" fill-opacity="1" stroke-width="1" stroke-linecap="round" stroke-linejoin="round" stroke="rgb(30.196078%,68.627451%,29.019608%)" stroke-opacity="1" stroke-miterlimit="10"/><path d="M 226.578125 362.394531 C 226.578125 367.058594 219.578125 367.058594 219.578125 362.394531 C 219.578125 357.726563 226.578125 357.726563 226.578125 362.394531 " type="plot-point" class="aqm10" onclick="plotObjRespond('click', 10, 'pca')" onmouseover="plotObjRespond('show', 10, 'pca')" onmouseout="plotObjRespond('hide', 10, 'pca')" fill-rule="nonzero" fill="rgb(30.196078%,68.627451%,29.019608%)" fill-opacity="1" stroke-width="1" stroke-linecap="round" stroke-linejoin="round" stroke="rgb(30.196078%,68.627451%,29.019608%)" stroke-opacity="1" stroke-miterlimit="10"/><path d="M 206.296875 369.261719 C 206.296875 373.925781 199.296875 373.925781 199.296875 369.261719 C 199.296875 364.59375 206.296875 364.59375 206.296875 369.261719 " type="plot-point" class="aqm11" onclick="plotObjRespond('click', 11, 'pca')" onmouseover="plotObjRespond('show', 11, 'pca')" onmouseout="plotObjRespond('hide', 11, 'pca')" fill-rule="nonzero" fill="rgb(30.196078%,68.627451%,29.019608%)" fill-opacity="1" stroke-width="1" stroke-linecap="round" stroke-linejoin="round" stroke="rgb(30.196078%,68.627451%,29.019608%)" stroke-opacity="1" stroke-miterlimit="10"/><path d="M 117.027344 385.070313 C 117.027344 389.734375 110.027344 389.734375 110.027344 385.070313 C 110.027344 380.402344 117.027344 380.402344 117.027344 385.070313 " type="plot-point" class="aqm12" onclick="plotObjRespond('click', 12, 'pca')" onmouseover="plotObjRespond('show', 12, 'pca')" onmouseout="plotObjRespond('hide', 12, 'pca')" fill-rule="nonzero" fill="rgb(59.607843%,30.588235%,63.921569%)" fill-opacity="1" stroke-width="1" stroke-linecap="round" stroke-linejoin="round" stroke="rgb(59.607843%,30.588235%,63.921569%)" stroke-opacity="1" stroke-miterlimit="10"/><path d="M 186.019531 322.613281 C 186.019531 327.28125 179.019531 327.28125 179.019531 322.613281 C 179.019531 317.945313 186.019531 317.945313 186.019531 322.613281 " type="plot-point" class="aqm13" onclick="plotObjRespond('click', 13, 'pca')" onmouseover="plotObjRespond('show', 13, 'pca')" onmouseout="plotObjRespond('hide', 13, 'pca')" fill-rule="nonzero" fill="rgb(59.607843%,30.588235%,63.921569%)" fill-opacity="1" stroke-width="1" stroke-linecap="round" stroke-linejoin="round" stroke="rgb(59.607843%,30.588235%,63.921569%)" stroke-opacity="1" stroke-miterlimit="10"/><path d="M 200.203125 342.597656 C 200.203125 347.265625 193.203125 347.265625 193.203125 342.597656 C 193.203125 337.929688 200.203125 337.929688 200.203125 342.597656 " type="plot-point" class="aqm14" onclick="plotObjRespond('click', 14, 'pca')" onmouseover="plotObjRespond('show', 14, 'pca')" onmouseout="plotObjRespond('hide', 14, 'pca')" fill-rule="nonzero" fill="rgb(59.607843%,30.588235%,63.921569%)" fill-opacity="1" stroke-width="1" stroke-linecap="round" stroke-linejoin="round" stroke="rgb(59.607843%,30.588235%,63.921569%)" stroke-opacity="1" stroke-miterlimit="10"/><path d="M 246.707031 319.957031 C 246.707031 324.621094 239.707031 324.621094 239.707031 319.957031 C 239.707031 315.289063 246.707031 315.289063 246.707031 319.957031 " type="plot-point" class="aqm15" onclick="plotObjRespond('click', 15, 'pca')" onmouseover="plotObjRespond('show', 15, 'pca')" onmouseout="plotObjRespond('hide', 15, 'pca')" fill-rule="nonzero" fill="rgb(59.607843%,30.588235%,63.921569%)" fill-opacity="1" stroke-width="1" stroke-linecap="round" stroke-linejoin="round" stroke="rgb(59.607843%,30.588235%,63.921569%)" stroke-opacity="1" stroke-miterlimit="10"/><path d="M 119.78125 386.125 C 119.78125 390.792969 112.78125 390.792969 112.78125 386.125 C 112.78125 381.457031 119.78125 381.457031 119.78125 386.125 " type="plot-point" class="aqm16" onclick="plotObjRespond('click', 16, 'pca')" onmouseover="plotObjRespond('show', 16, 'pca')" onmouseout="plotObjRespond('hide', 16, 'pca')" fill-rule="nonzero" fill="rgb(100%,49.803922%,0%)" fill-opacity="1" stroke-width="1" stroke-linecap="round" stroke-linejoin="round" stroke="rgb(100%,49.803922%,0%)" stroke-opacity="1" stroke-miterlimit="10"/><path d="M 212.546875 346.664063 C 212.546875 351.332031 205.546875 351.332031 205.546875 346.664063 C 205.546875 342 212.546875 342 212.546875 346.664063 " type="plot-point" class="aqm17" onclick="plotObjRespond('click', 17, 'pca')" onmouseover="plotObjRespond('show', 17, 'pca')" onmouseout="plotObjRespond('hide', 17, 'pca')" fill-rule="nonzero" fill="rgb(100%,49.803922%,0%)" fill-opacity="1" stroke-width="1" stroke-linecap="round" stroke-linejoin="round" stroke="rgb(100%,49.803922%,0%)" stroke-opacity="1" stroke-miterlimit="10"/><path d="M 234.253906 351.308594 C 234.253906 355.976563 227.253906 355.976563 227.253906 351.308594 C 227.253906 346.644531 234.253906 346.644531 234.253906 351.308594 " type="plot-point" class="aqm18" onclick="plotObjRespond('click', 18, 'pca')" onmouseover="plotObjRespond('show', 18, 'pca')" onmouseout="plotObjRespond('hide', 18, 'pca')" fill-rule="nonzero" fill="rgb(100%,49.803922%,0%)" fill-opacity="1" stroke-width="1" stroke-linecap="round" stroke-linejoin="round" stroke="rgb(100%,49.803922%,0%)" stroke-opacity="1" stroke-miterlimit="10"/><path d="M 266.921875 337.65625 C 266.921875 342.320313 259.921875 342.320313 259.921875 337.65625 C 259.921875 332.988281 266.921875 332.988281 266.921875 337.65625 " type="plot-point" class="aqm19" onclick="plotObjRespond('click', 19, 'pca')" onmouseover="plotObjRespond('show', 19, 'pca')" onmouseout="plotObjRespond('hide', 19, 'pca')" fill-rule="nonzero" fill="rgb(100%,49.803922%,0%)" fill-opacity="1" stroke-width="1" stroke-linecap="round" stroke-linejoin="round" stroke="rgb(100%,49.803922%,0%)" stroke-opacity="1" stroke-miterlimit="10"/><path d="M 111.066406 318.691406 C 111.066406 323.355469 104.066406 323.355469 104.066406 318.691406 C 104.066406 314.023438 111.066406 314.023438 111.066406 318.691406 " type="plot-point" class="aqm20" onclick="plotObjRespond('click', 20, 'pca')" onmouseover="plotObjRespond('show', 20, 'pca')" onmouseout="plotObjRespond('hide', 20, 'pca')" fill-rule="nonzero" fill="rgb(100%,100%,20%)" fill-opacity="1" stroke-width="1" stroke-linecap="round" stroke-linejoin="round" stroke="rgb(100%,100%,20%)" stroke-opacity="1" stroke-miterlimit="10"/><path d="M 202.3125 327.707031 C 202.3125 332.375 195.3125 332.375 195.3125 327.707031 C 195.3125 323.039063 202.3125 323.039063 202.3125 327.707031 " type="plot-point" class="aqm21" onclick="plotObjRespond('click', 21, 'pca')" onmouseover="plotObjRespond('show', 21, 'pca')" onmouseout="plotObjRespond('hide', 21, 'pca')" fill-rule="nonzero" fill="rgb(100%,100%,20%)" fill-opacity="1" stroke-width="1" stroke-linecap="round" stroke-linejoin="round" stroke="rgb(100%,100%,20%)" stroke-opacity="1" stroke-miterlimit="10"/><path d="M 185.585938 352.78125 C 185.585938 357.449219 178.585938 357.449219 178.585938 352.78125 C 178.585938 348.113281 185.585938 348.113281 185.585938 352.78125 " type="plot-point" class="aqm22" onclick="plotObjRespond('click', 22, 'pca')" onmouseover="plotObjRespond('show', 22, 'pca')" onmouseout="plotObjRespond('hide', 22, 'pca')" fill-rule="nonzero" fill="rgb(100%,100%,20%)" fill-opacity="1" stroke-width="1" stroke-linecap="round" stroke-linejoin="round" stroke="rgb(100%,100%,20%)" stroke-opacity="1" stroke-miterlimit="10"/><path d="M 223.179688 349.824219 C 223.179688 354.488281 216.179688 354.488281 216.179688 349.824219 C 216.179688 345.15625 223.179688 345.15625 223.179688 349.824219 " type="plot-point" class="aqm23" onclick="plotObjRespond('click', 23, 'pca')" onmouseover="plotObjRespond('show', 23, 'pca')" onmouseout="plotObjRespond('hide', 23, 'pca')" fill-rule="nonzero" fill="rgb(100%,100%,20%)" fill-opacity="1" stroke-width="1" stroke-linecap="round" stroke-linejoin="round" stroke="rgb(100%,100%,20%)" stroke-opacity="1" stroke-miterlimit="10"/><path d="M 190.109375 376.453125 C 190.109375 381.121094 183.109375 381.121094 183.109375 376.453125 C 183.109375 371.785156 190.109375 371.785156 190.109375 376.453125 " type="plot-point" class="aqm24" onclick="plotObjRespond('click', 24, 'pca')" onmouseover="plotObjRespond('show', 24, 'pca')" onmouseout="plotObjRespond('hide', 24, 'pca')" fill-rule="nonzero" fill="rgb(65.098039%,33.72549%,15.686275%)" fill-opacity="1" stroke-width="1" stroke-linecap="round" stroke-linejoin="round" stroke="rgb(65.098039%,33.72549%,15.686275%)" stroke-opacity="1" stroke-miterlimit="10"/><path d="M 235.554688 362.285156 C 235.554688 366.953125 228.554688 366.953125 228.554688 362.285156 C 228.554688 357.617188 235.554688 357.617188 235.554688 362.285156 " type="plot-point" class="aqm25" onclick="plotObjRespond('click', 25, 'pca')" onmouseover="plotObjRespond('show', 25, 'pca')" onmouseout="plotObjRespond('hide', 25, 'pca')" fill-rule="nonzero" fill="rgb(65.098039%,33.72549%,15.686275%)" fill-opacity="1" stroke-width="1" stroke-linecap="round" stroke-linejoin="round" stroke="rgb(65.098039%,33.72549%,15.686275%)" stroke-opacity="1" stroke-miterlimit="10"/><path d="M 259.109375 365.875 C 259.109375 370.539063 252.109375 370.539063 252.109375 365.875 C 252.109375 361.207031 259.109375 361.207031 259.109375 365.875 " type="plot-point" class="aqm26" onclick="plotObjRespond('click', 26, 'pca')" onmouseover="plotObjRespond('show', 26, 'pca')" onmouseout="plotObjRespond('hide', 26, 'pca')" fill-rule="nonzero" fill="rgb(65.098039%,33.72549%,15.686275%)" fill-opacity="1" stroke-width="1" stroke-linecap="round" stroke-linejoin="round" stroke="rgb(65.098039%,33.72549%,15.686275%)" stroke-opacity="1" stroke-miterlimit="10"/><path d="M 335.585938 363.347656 C 335.585938 368.015625 328.585938 368.015625 328.585938 363.347656 C 328.585938 358.683594 335.585938 358.683594 335.585938 363.347656 " type="plot-point" class="aqm27" onclick="plotObjRespond('click', 27, 'pca')" onmouseover="plotObjRespond('show', 27, 'pca')" onmouseout="plotObjRespond('hide', 27, 'pca')" fill-rule="nonzero" fill="rgb(65.098039%,33.72549%,15.686275%)" fill-opacity="1" stroke-width="1" stroke-linecap="round" stroke-linejoin="round" stroke="rgb(65.098039%,33.72549%,15.686275%)" stroke-opacity="1" stroke-miterlimit="10"/><path d="M 103.757813 407.144531 C 103.757813 411.808594 96.757813 411.808594 96.757813 407.144531 C 96.757813 402.476563 103.757813 402.476563 103.757813 407.144531 " type="plot-point" class="aqm28" onclick="plotObjRespond('click', 28, 'pca')" onmouseover="plotObjRespond('show', 28, 'pca')" onmouseout="plotObjRespond('hide', 28, 'pca')" fill-rule="nonzero" fill="rgb(96.862745%,50.588235%,74.901961%)" fill-opacity="1" stroke-width="1" stroke-linecap="round" stroke-linejoin="round" stroke="rgb(96.862745%,50.588235%,74.901961%)" stroke-opacity="1" stroke-miterlimit="10"/><path d="M 101.78125 408.203125 C 101.78125 412.871094 94.78125 412.871094 94.78125 408.203125 C 94.78125 403.539063 101.78125 403.539063 101.78125 408.203125 " type="plot-point" class="aqm29" onclick="plotObjRespond('click', 29, 'pca')" onmouseover="plotObjRespond('show', 29, 'pca')" onmouseout="plotObjRespond('hide', 29, 'pca')" fill-rule="nonzero" fill="rgb(96.862745%,50.588235%,74.901961%)" fill-opacity="1" stroke-width="1" stroke-linecap="round" stroke-linejoin="round" stroke="rgb(96.862745%,50.588235%,74.901961%)" stroke-opacity="1" stroke-miterlimit="10"/><path d="M 142.144531 431.183594 C 142.144531 435.847656 135.144531 435.847656 135.144531 431.183594 C 135.144531 426.515625 142.144531 426.515625 142.144531 431.183594 " type="plot-point" class="aqm30" onclick="plotObjRespond('click', 30, 'pca')" onmouseover="plotObjRespond('show', 30, 'pca')" onmouseout="plotObjRespond('hide', 30, 'pca')" fill-rule="nonzero" fill="rgb(96.862745%,50.588235%,74.901961%)" fill-opacity="1" stroke-width="1" stroke-linecap="round" stroke-linejoin="round" stroke="rgb(96.862745%,50.588235%,74.901961%)" stroke-opacity="1" stroke-miterlimit="10"/><path d="M 194.140625 415.511719 C 194.140625 420.179688 187.140625 420.179688 187.140625 415.511719 C 187.140625 410.84375 194.140625 410.84375 194.140625 415.511719 " type="plot-point" class="aqm31" onclick="plotObjRespond('click', 31, 'pca')" onmouseover="plotObjRespond('show', 31, 'pca')" onmouseout="plotObjRespond('hide', 31, 'pca')" fill-rule="nonzero" fill="rgb(96.862745%,50.588235%,74.901961%)" fill-opacity="1" stroke-width="1" stroke-linecap="round" stroke-linejoin="round" stroke="rgb(96.862745%,50.588235%,74.901961%)" stroke-opacity="1" stroke-miterlimit="10"/><path d="M 124.289063 407.894531 C 124.289063 412.558594 117.289063 412.558594 117.289063 407.894531 C 117.289063 403.226563 124.289063 403.226563 124.289063 407.894531 " type="plot-point" class="aqm32" onclick="plotObjRespond('click', 32, 'pca')" onmouseover="plotObjRespond('show', 32, 'pca')" onmouseout="plotObjRespond('hide', 32, 'pca')" fill-rule="nonzero" fill="rgb(60%,60%,60%)" fill-opacity="1" stroke-width="1" stroke-linecap="round" stroke-linejoin="round" stroke="rgb(60%,60%,60%)" stroke-opacity="1" stroke-miterlimit="10"/><path d="M 192.644531 375.445313 C 192.644531 380.113281 185.644531 380.113281 185.644531 375.445313 C 185.644531 370.78125 192.644531 370.78125 192.644531 375.445313 " type="plot-point" class="aqm33" onclick="plotObjRespond('click', 33, 'pca')" onmouseover="plotObjRespond('show', 33, 'pca')" onmouseout="plotObjRespond('hide', 33, 'pca')" fill-rule="nonzero" fill="rgb(60%,60%,60%)" fill-opacity="1" stroke-width="1" stroke-linecap="round" stroke-linejoin="round" stroke="rgb(60%,60%,60%)" stroke-opacity="1" stroke-miterlimit="10"/><path d="M 219.921875 380.742188 C 219.921875 385.40625 212.921875 385.40625 212.921875 380.742188 C 212.921875 376.074219 219.921875 376.074219 219.921875 380.742188 " type="plot-point" class="aqm34" onclick="plotObjRespond('click', 34, 'pca')" onmouseover="plotObjRespond('show', 34, 'pca')" onmouseout="plotObjRespond('hide', 34, 'pca')" fill-rule="nonzero" fill="rgb(60%,60%,60%)" fill-opacity="1" stroke-width="1" stroke-linecap="round" stroke-linejoin="round" stroke="rgb(60%,60%,60%)" stroke-opacity="1" stroke-miterlimit="10"/><path d="M 243.394531 365.058594 C 243.394531 369.722656 236.394531 369.722656 236.394531 365.058594 C 236.394531 360.390625 243.394531 360.390625 243.394531 365.058594 " type="plot-point" class="aqm35" onclick="plotObjRespond('click', 35, 'pca')" onmouseover="plotObjRespond('show', 35, 'pca')" onmouseout="plotObjRespond('hide', 35, 'pca')" fill-rule="nonzero" fill="rgb(60%,60%,60%)" fill-opacity="1" stroke-width="1" stroke-linecap="round" stroke-linejoin="round" stroke="rgb(60%,60%,60%)" stroke-opacity="1" stroke-miterlimit="10"/><path d="M 91.910156 441.230469 C 91.910156 445.898438 84.910156 445.898438 84.910156 441.230469 C 84.910156 436.5625 91.910156 436.5625 91.910156 441.230469 " type="plot-point" class="aqm36" onclick="plotObjRespond('click', 36, 'pca')" onmouseover="plotObjRespond('show', 36, 'pca')" onmouseout="plotObjRespond('hide', 36, 'pca')" fill-rule="nonzero" fill="rgb(60%,60%,60%)" fill-opacity="1" stroke-width="1" stroke-linecap="round" stroke-linejoin="round" stroke="rgb(60%,60%,60%)" stroke-opacity="1" stroke-miterlimit="10"/><path d="M 129.128906 433.621094 C 129.128906 438.289063 122.128906 438.289063 122.128906 433.621094 C 122.128906 428.953125 129.128906 428.953125 129.128906 433.621094 " type="plot-point" class="aqm37" onclick="plotObjRespond('click', 37, 'pca')" onmouseover="plotObjRespond('show', 37, 'pca')" onmouseout="plotObjRespond('hide', 37, 'pca')" fill-rule="nonzero" fill="rgb(60%,60%,60%)" fill-opacity="1" stroke-width="1" stroke-linecap="round" stroke-linejoin="round" stroke="rgb(60%,60%,60%)" stroke-opacity="1" stroke-miterlimit="10"/><path d="M 188.777344 362.1875 C 188.777344 366.851563 181.777344 366.851563 181.777344 362.1875 C 181.777344 357.519531 188.777344 357.519531 188.777344 362.1875 " type="plot-point" class="aqm38" onclick="plotObjRespond('click', 38, 'pca')" onmouseover="plotObjRespond('show', 38, 'pca')" onmouseout="plotObjRespond('hide', 38, 'pca')" fill-rule="nonzero" fill="rgb(60%,60%,60%)" fill-opacity="1" stroke-width="1" stroke-linecap="round" stroke-linejoin="round" stroke="rgb(60%,60%,60%)" stroke-opacity="1" stroke-miterlimit="10"/><path d="M 197.90625 389.867188 C 197.90625 394.53125 190.90625 394.53125 190.90625 389.867188 C 190.90625 385.199219 197.90625 385.199219 197.90625 389.867188 " type="plot-point" class="aqm39" onclick="plotObjRespond('click', 39, 'pca')" onmouseover="plotObjRespond('show', 39, 'pca')" onmouseout="plotObjRespond('hide', 39, 'pca')" fill-rule="nonzero" fill="rgb(60%,60%,60%)" fill-opacity="1" stroke-width="1" stroke-linecap="round" stroke-linejoin="round" stroke="rgb(60%,60%,60%)" stroke-opacity="1" stroke-miterlimit="10"/><path d="M 110.535156 439.03125 C 110.535156 443.695313 103.535156 443.695313 103.535156 439.03125 C 103.535156 434.363281 110.535156 434.363281 110.535156 439.03125 " type="plot-point" class="aqm40" onclick="plotObjRespond('click', 40, 'pca')" onmouseover="plotObjRespond('show', 40, 'pca')" onmouseout="plotObjRespond('hide', 40, 'pca')" fill-rule="nonzero" fill="rgb(60%,60%,60%)" fill-opacity="1" stroke-width="1" stroke-linecap="round" stroke-linejoin="round" stroke="rgb(60%,60%,60%)" stroke-opacity="1" stroke-miterlimit="10"/><path d="M 126.816406 440.601563 C 126.816406 445.269531 119.816406 445.269531 119.816406 440.601563 C 119.816406 435.9375 126.816406 435.9375 126.816406 440.601563 " type="plot-point" class="aqm41" onclick="plotObjRespond('click', 41, 'pca')" onmouseover="plotObjRespond('show', 41, 'pca')" onmouseout="plotObjRespond('hide', 41, 'pca')" fill-rule="nonzero" fill="rgb(60%,60%,60%)" fill-opacity="1" stroke-width="1" stroke-linecap="round" stroke-linejoin="round" stroke="rgb(60%,60%,60%)" stroke-opacity="1" stroke-miterlimit="10"/><path d="M 174.433594 385.648438 C 174.433594 390.316406 167.433594 390.316406 167.433594 385.648438 C 167.433594 380.980469 174.433594 380.980469 174.433594 385.648438 " type="plot-point" class="aqm42" onclick="plotObjRespond('click', 42, 'pca')" onmouseover="plotObjRespond('show', 42, 'pca')" onmouseout="plotObjRespond('hide', 42, 'pca')" fill-rule="nonzero" fill="rgb(60%,60%,60%)" fill-opacity="1" stroke-width="1" stroke-linecap="round" stroke-linejoin="round" stroke="rgb(60%,60%,60%)" stroke-opacity="1" stroke-miterlimit="10"/><path d="M 200.605469 357.113281 C 200.605469 361.78125 193.605469 361.78125 193.605469 357.113281 C 193.605469 352.445313 200.605469 352.445313 200.605469 357.113281 " type="plot-point" class="aqm43" onclick="plotObjRespond('click', 43, 'pca')" onmouseover="plotObjRespond('show', 43, 'pca')" onmouseout="plotObjRespond('hide', 43, 'pca')" fill-rule="nonzero" fill="rgb(60%,60%,60%)" fill-opacity="1" stroke-width="1" stroke-linecap="round" stroke-linejoin="round" stroke="rgb(60%,60%,60%)" stroke-opacity="1" stroke-miterlimit="10"/></g><path style="fill:none;stroke-width:1;stroke-linecap:round;stroke-linejoin:round;stroke:rgb(0%,0%,0%);stroke-opacity:1;stroke-miterlimit:10;" d="M 55.8125 141.457031 L 350.164063 141.457031 L 350.164063 460.839844 L 55.8125 460.839844 Z M 55.8125 141.457031 "/></g></svg>
