<?xml version="1.0" encoding="UTF-8"?>
<svg xmlns="http://www.w3.org/2000/svg" xmlns:xlink="http://www.w3.org/1999/xlink" width="331.2pt" height="374.4pt" viewBox="0 0 331.2 374.4" version="1.1" id="Fig:pca"><defs><g><symbol overflow="visible" id="pca-glyph0-0"><path style="stroke:none;" d=""/></symbol><symbol overflow="visible" id="pca-glyph0-1"><path style="stroke:none;" d="M 5.46875 -4.71875 C 5.46875 -6.015625 4.609375 -6.734375 3.09375 -6.734375 C 1.578125 -6.734375 0.59375 -5.953125 0.59375 -4.734375 C 0.59375 -3.71875 1.109375 -3.21875 2.65625 -2.84375 L 3.640625 -2.609375 C 4.359375 -2.4375 4.65625 -2.171875 4.65625 -1.703125 C 4.65625 -1.09375 4.03125 -0.671875 3.125 -0.671875 C 2.5625 -0.671875 2.09375 -0.84375 1.828125 -1.109375 C 1.65625 -1.296875 1.59375 -1.484375 1.53125 -1.953125 L 0.421875 -1.953125 C 0.46875 -0.4375 1.328125 0.28125 3.03125 0.28125 C 4.6875 0.28125 5.734375 -0.53125 5.734375 -1.78125 C 5.734375 -2.765625 5.1875 -3.296875 3.890625 -3.609375 L 2.890625 -3.84375 C 2.03125 -4.046875 1.671875 -4.328125 1.671875 -4.78125 C 1.671875 -5.390625 2.21875 -5.78125 3.0625 -5.78125 C 3.90625 -5.78125 4.34375 -5.40625 4.375 -4.71875 Z "/></symbol><symbol overflow="visible" id="pca-glyph0-2"><path style="stroke:none;" d="M 6.6875 -0.609375 C 6.578125 -0.59375 6.53125 -0.59375 6.46875 -0.59375 C 6.09375 -0.59375 5.90625 -0.78125 5.90625 -1.09375 L 5.90625 -4.953125 C 5.90625 -6.109375 5.046875 -6.734375 3.4375 -6.734375 C 2.484375 -6.734375 1.703125 -6.46875 1.265625 -5.96875 C 0.96875 -5.640625 0.84375 -5.265625 0.8125 -4.609375 L 1.859375 -4.609375 C 1.953125 -5.40625 2.421875 -5.78125 3.40625 -5.78125 C 4.34375 -5.78125 4.859375 -5.421875 4.859375 -4.796875 L 4.859375 -4.53125 C 4.859375 -4.09375 4.59375 -3.90625 3.78125 -3.796875 C 2.296875 -3.609375 2.078125 -3.5625 1.671875 -3.40625 C 0.90625 -3.09375 0.53125 -2.5 0.53125 -1.65625 C 0.53125 -0.46875 1.34375 0.28125 2.671875 0.28125 C 3.5 0.28125 4.15625 0 4.90625 -0.671875 C 4.96875 -0.015625 5.296875 0.28125 5.96875 0.28125 C 6.1875 0.28125 6.34375 0.265625 6.6875 0.171875 Z M 4.859375 -2.0625 C 4.859375 -1.71875 4.765625 -1.5 4.453125 -1.21875 C 4.03125 -0.828125 3.515625 -0.625 2.90625 -0.625 C 2.09375 -0.625 1.609375 -1.015625 1.609375 -1.671875 C 1.609375 -2.359375 2.078125 -2.71875 3.1875 -2.875 C 4.28125 -3.03125 4.515625 -3.078125 4.859375 -3.234375 Z "/></symbol><symbol overflow="visible" id="pca-glyph0-3"><path style="stroke:none;" d="M 1.90625 -9.109375 L 0.84375 -9.109375 L 0.84375 0 L 1.90625 0 Z "/></symbol><symbol overflow="visible" id="pca-glyph0-4"><path style="stroke:none;" d="M 6.328125 -1.09375 L 1.65625 -1.09375 C 1.78125 -1.8125 2.171875 -2.28125 3.265625 -2.90625 L 4.515625 -3.59375 C 5.75 -4.265625 6.390625 -5.171875 6.390625 -6.265625 C 6.390625 -7 6.09375 -7.6875 5.5625 -8.15625 C 5.03125 -8.640625 4.390625 -8.859375 3.546875 -8.859375 C 2.421875 -8.859375 1.59375 -8.46875 1.09375 -7.71875 C 0.78125 -7.234375 0.65625 -6.6875 0.625 -5.78125 L 1.71875 -5.78125 C 1.765625 -6.390625 1.84375 -6.75 1.984375 -7.03125 C 2.28125 -7.578125 2.84375 -7.90625 3.515625 -7.90625 C 4.515625 -7.90625 5.265625 -7.1875 5.265625 -6.234375 C 5.265625 -5.53125 4.84375 -4.9375 4.0625 -4.484375 L 2.90625 -3.84375 C 1.0625 -2.78125 0.53125 -1.953125 0.421875 0 L 6.328125 0 Z "/></symbol><symbol overflow="visible" id="pca-glyph0-5"><path style="stroke:none;" d="M 5.953125 -8.859375 L 1.375 -8.859375 L 0.71875 -4.03125 L 1.71875 -4.03125 C 2.234375 -4.65625 2.65625 -4.859375 3.34375 -4.859375 C 4.53125 -4.859375 5.28125 -4.046875 5.28125 -2.734375 C 5.28125 -1.46875 4.546875 -0.6875 3.34375 -0.6875 C 2.390625 -0.6875 1.796875 -1.171875 1.53125 -2.171875 L 0.4375 -2.171875 C 0.59375 -1.453125 0.71875 -1.09375 0.96875 -0.78125 C 1.46875 -0.09375 2.375 0.28125 3.375 0.28125 C 5.15625 0.28125 6.40625 -1.015625 6.40625 -2.890625 C 6.40625 -4.640625 5.25 -5.84375 3.546875 -5.84375 C 2.921875 -5.84375 2.421875 -5.671875 1.90625 -5.296875 L 2.265625 -7.78125 L 5.953125 -7.78125 Z "/></symbol><symbol overflow="visible" id="pca-glyph0-6"><path style="stroke:none;" d="M 0.671875 2.71875 L 1.71875 2.71875 L 1.71875 -0.6875 C 2.28125 -0.015625 2.890625 0.28125 3.734375 0.28125 C 5.421875 0.28125 6.53125 -1.078125 6.53125 -3.15625 C 6.53125 -5.359375 5.46875 -6.734375 3.71875 -6.734375 C 2.84375 -6.734375 2.125 -6.34375 1.640625 -5.5625 L 1.640625 -6.546875 L 0.671875 -6.546875 Z M 3.546875 -5.765625 C 4.703125 -5.765625 5.453125 -4.75 5.453125 -3.1875 C 5.453125 -1.703125 4.6875 -0.6875 3.546875 -0.6875 C 2.453125 -0.6875 1.71875 -1.6875 1.71875 -3.21875 C 1.71875 -4.765625 2.453125 -5.765625 3.546875 -5.765625 Z "/></symbol><symbol overflow="visible" id="pca-glyph0-7"><path style="stroke:none;" d="M 3.171875 -6.546875 L 2.09375 -6.546875 L 2.09375 -8.34375 L 1.0625 -8.34375 L 1.0625 -6.546875 L 0.171875 -6.546875 L 0.171875 -5.703125 L 1.0625 -5.703125 L 1.0625 -0.75 C 1.0625 -0.09375 1.515625 0.28125 2.328125 0.28125 C 2.578125 0.28125 2.828125 0.265625 3.171875 0.203125 L 3.171875 -0.671875 C 3.03125 -0.640625 2.875 -0.625 2.671875 -0.625 C 2.21875 -0.625 2.09375 -0.75 2.09375 -1.21875 L 2.09375 -5.703125 L 3.171875 -5.703125 Z "/></symbol><symbol overflow="visible" id="pca-glyph0-8"><path style="stroke:none;" d="M 2.765625 -4.0625 L 2.90625 -4.0625 L 3.359375 -4.078125 C 4.578125 -4.078125 5.203125 -3.53125 5.203125 -2.46875 C 5.203125 -1.34375 4.515625 -0.6875 3.359375 -0.6875 C 2.15625 -0.6875 1.578125 -1.28125 1.5 -2.578125 L 0.40625 -2.578125 C 0.453125 -1.859375 0.578125 -1.40625 0.78125 -1 C 1.234375 -0.15625 2.109375 0.28125 3.328125 0.28125 C 5.15625 0.28125 6.328125 -0.796875 6.328125 -2.46875 C 6.328125 -3.59375 5.890625 -4.21875 4.828125 -4.59375 C 5.65625 -4.90625 6.0625 -5.53125 6.0625 -6.421875 C 6.0625 -7.953125 5.046875 -8.859375 3.359375 -8.859375 C 1.578125 -8.859375 0.625 -7.890625 0.59375 -6 L 1.6875 -6 C 1.703125 -6.53125 1.75 -6.84375 1.890625 -7.109375 C 2.140625 -7.59375 2.6875 -7.90625 3.375 -7.90625 C 4.34375 -7.90625 4.9375 -7.328125 4.9375 -6.390625 C 4.9375 -5.765625 4.71875 -5.390625 4.21875 -5.1875 C 3.921875 -5.0625 3.53125 -5.015625 2.765625 -5 Z "/></symbol><symbol overflow="visible" id="pca-glyph0-9"><path style="stroke:none;" d="M 3.4375 -8.859375 C 2.609375 -8.859375 1.859375 -8.5 1.40625 -7.890625 C 0.828125 -7.109375 0.53125 -5.921875 0.53125 -4.28125 C 0.53125 -1.296875 1.53125 0.28125 3.4375 0.28125 C 5.3125 0.28125 6.34375 -1.296875 6.34375 -4.21875 C 6.34375 -5.9375 6.0625 -7.09375 5.46875 -7.890625 C 5.015625 -8.515625 4.28125 -8.859375 3.4375 -8.859375 Z M 3.4375 -7.890625 C 4.625 -7.890625 5.21875 -6.6875 5.21875 -4.3125 C 5.21875 -1.796875 4.640625 -0.625 3.40625 -0.625 C 2.25 -0.625 1.65625 -1.84375 1.65625 -4.28125 C 1.65625 -6.703125 2.25 -7.890625 3.4375 -7.890625 Z "/></symbol><symbol overflow="visible" id="pca-glyph0-10"><path style="stroke:none;" d="M 2.296875 -3.859375 L 5.15625 -3.859375 C 5.875 -3.859375 6.4375 -4.078125 6.921875 -4.515625 C 7.46875 -5.015625 7.71875 -5.59375 7.71875 -6.4375 C 7.71875 -8.15625 6.703125 -9.109375 4.90625 -9.109375 L 1.140625 -9.109375 L 1.140625 0 L 2.296875 0 Z M 2.296875 -4.890625 L 2.296875 -8.09375 L 4.71875 -8.09375 C 5.84375 -8.09375 6.5 -7.484375 6.5 -6.484375 C 6.5 -5.484375 5.84375 -4.890625 4.71875 -4.890625 Z "/></symbol><symbol overflow="visible" id="pca-glyph0-11"><path style="stroke:none;" d="M 8.28125 -6.28125 C 7.90625 -8.28125 6.765625 -9.265625 4.765625 -9.265625 C 3.53125 -9.265625 2.546875 -8.875 1.875 -8.125 C 1.046875 -7.21875 0.59375 -5.921875 0.59375 -4.453125 C 0.59375 -2.953125 1.0625 -1.65625 1.921875 -0.78125 C 2.625 -0.046875 3.53125 0.28125 4.71875 0.28125 C 6.9375 0.28125 8.1875 -0.90625 8.46875 -3.328125 L 7.265625 -3.328125 C 7.15625 -2.703125 7.03125 -2.28125 6.84375 -1.90625 C 6.46875 -1.15625 5.703125 -0.734375 4.71875 -0.734375 C 2.90625 -0.734375 1.765625 -2.1875 1.765625 -4.46875 C 1.765625 -6.796875 2.859375 -8.234375 4.625 -8.234375 C 5.359375 -8.234375 6.046875 -8.015625 6.421875 -7.65625 C 6.765625 -7.34375 6.953125 -6.96875 7.09375 -6.28125 Z "/></symbol><symbol overflow="visible" id="pca-glyph0-12"><path style="stroke:none;" d="M 3.234375 -6.3125 L 3.234375 0 L 4.34375 0 L 4.34375 -8.859375 L 3.609375 -8.859375 C 3.21875 -7.5 2.96875 -7.3125 1.28125 -7.09375 L 1.28125 -6.3125 Z "/></symbol><symbol overflow="visible" id="pca-glyph1-0"><path style="stroke:none;" d=""/></symbol><symbol overflow="visible" id="pca-glyph1-1"><path style="stroke:none;" d="M -3.859375 -2.296875 L -3.859375 -5.15625 C -3.859375 -5.875 -4.078125 -6.4375 -4.515625 -6.921875 C -5.015625 -7.46875 -5.59375 -7.71875 -6.4375 -7.71875 C -8.15625 -7.71875 -9.109375 -6.703125 -9.109375 -4.90625 L -9.109375 -1.140625 L 0 -1.140625 L 0 -2.296875 Z M -4.890625 -2.296875 L -8.09375 -2.296875 L -8.09375 -4.71875 C -8.09375 -5.84375 -7.484375 -6.5 -6.484375 -6.5 C -5.484375 -6.5 -4.890625 -5.84375 -4.890625 -4.71875 Z "/></symbol><symbol overflow="visible" id="pca-glyph1-2"><path style="stroke:none;" d="M -6.28125 -8.28125 C -8.28125 -7.90625 -9.265625 -6.765625 -9.265625 -4.765625 C -9.265625 -3.53125 -8.875 -2.546875 -8.125 -1.875 C -7.21875 -1.046875 -5.921875 -0.59375 -4.453125 -0.59375 C -2.953125 -0.59375 -1.65625 -1.0625 -0.78125 -1.921875 C -0.046875 -2.625 0.28125 -3.53125 0.28125 -4.71875 C 0.28125 -6.9375 -0.90625 -8.1875 -3.328125 -8.46875 L -3.328125 -7.265625 C -2.703125 -7.15625 -2.28125 -7.03125 -1.90625 -6.84375 C -1.15625 -6.46875 -0.734375 -5.703125 -0.734375 -4.71875 C -0.734375 -2.90625 -2.1875 -1.765625 -4.46875 -1.765625 C -6.796875 -1.765625 -8.234375 -2.859375 -8.234375 -4.625 C -8.234375 -5.359375 -8.015625 -6.046875 -7.65625 -6.421875 C -7.34375 -6.765625 -6.96875 -6.953125 -6.28125 -7.09375 Z "/></symbol><symbol overflow="visible" id="pca-glyph1-3"><path style="stroke:none;" d="M -1.09375 -6.328125 L -1.09375 -1.65625 C -1.8125 -1.78125 -2.28125 -2.171875 -2.90625 -3.265625 L -3.59375 -4.515625 C -4.265625 -5.75 -5.171875 -6.390625 -6.265625 -6.390625 C -7 -6.390625 -7.6875 -6.09375 -8.15625 -5.5625 C -8.640625 -5.03125 -8.859375 -4.390625 -8.859375 -3.546875 C -8.859375 -2.421875 -8.46875 -1.59375 -7.71875 -1.09375 C -7.234375 -0.78125 -6.6875 -0.65625 -5.78125 -0.625 L -5.78125 -1.71875 C -6.390625 -1.765625 -6.75 -1.84375 -7.03125 -1.984375 C -7.578125 -2.28125 -7.90625 -2.84375 -7.90625 -3.515625 C -7.90625 -4.515625 -7.1875 -5.265625 -6.234375 -5.265625 C -5.53125 -5.265625 -4.9375 -4.84375 -4.484375 -4.0625 L -3.84375 -2.90625 C -2.78125 -1.0625 -1.953125 -0.53125 0 -0.421875 L 0 -6.328125 Z "/></symbol><symbol overflow="visible" id="pca-glyph2-0"><path style="stroke:none;" d=""/></symbol><symbol overflow="visible" id="pca-glyph2-1"><path style="stroke:none;" d="M 2.859375 -3.15625 L 0.46875 -3.15625 L 0.46875 -2.421875 L 2.859375 -2.421875 Z "/></symbol><symbol overflow="visible" id="pca-glyph2-2"><path style="stroke:none;" d="M 2.609375 -5.09375 L 2.609375 0 L 3.5 0 L 3.5 -7.15625 L 2.921875 -7.15625 C 2.609375 -6.0625 2.40625 -5.90625 1.03125 -5.734375 L 1.03125 -5.09375 Z "/></symbol><symbol overflow="visible" id="pca-glyph2-3"><path style="stroke:none;" d="M 2.78125 -7.15625 C 2.109375 -7.15625 1.5 -6.859375 1.125 -6.375 C 0.671875 -5.75 0.4375 -4.78125 0.4375 -3.46875 C 0.4375 -1.046875 1.234375 0.234375 2.78125 0.234375 C 4.296875 0.234375 5.125 -1.046875 5.125 -3.40625 C 5.125 -4.796875 4.890625 -5.71875 4.421875 -6.375 C 4.046875 -6.875 3.453125 -7.15625 2.78125 -7.15625 Z M 2.78125 -6.375 C 3.734375 -6.375 4.203125 -5.40625 4.203125 -3.484375 C 4.203125 -1.453125 3.75 -0.5 2.75 -0.5 C 1.8125 -0.5 1.34375 -1.5 1.34375 -3.453125 C 1.34375 -5.40625 1.8125 -6.375 2.78125 -6.375 Z "/></symbol><symbol overflow="visible" id="pca-glyph2-4"><path style="stroke:none;" d="M 4.796875 -7.15625 L 1.109375 -7.15625 L 0.578125 -3.265625 L 1.390625 -3.265625 C 1.8125 -3.75 2.15625 -3.921875 2.703125 -3.921875 C 3.65625 -3.921875 4.265625 -3.265625 4.265625 -2.203125 C 4.265625 -1.1875 3.671875 -0.5625 2.703125 -0.5625 C 1.921875 -0.5625 1.453125 -0.953125 1.234375 -1.75 L 0.359375 -1.75 C 0.46875 -1.171875 0.578125 -0.890625 0.78125 -0.625 C 1.1875 -0.078125 1.921875 0.234375 2.71875 0.234375 C 4.171875 0.234375 5.171875 -0.8125 5.171875 -2.328125 C 5.171875 -3.75 4.234375 -4.71875 2.859375 -4.71875 C 2.359375 -4.71875 1.953125 -4.578125 1.546875 -4.28125 L 1.828125 -6.28125 L 4.796875 -6.28125 Z "/></symbol></g><clipPath id="pca-clip1"><path d="M 64 216 L 73 216 L 73 224.742188 L 64 224.742188 Z "/></clipPath><clipPath id="pca-clip2"><path d="M 140 170.160156 L 148 170.160156 L 148 178 L 140 178 Z "/></clipPath><clipPath id="pca-clip3"><path d="M 139 170.160156 L 148 170.160156 L 148 178 L 139 178 Z "/></clipPath><clipPath id="pca-clip4"><path d="M 153 170.160156 L 161 170.160156 L 161 177 L 153 177 Z "/></clipPath><clipPath id="pca-clip5"><path d="M 153 170.160156 L 162 170.160156 L 162 178 L 153 178 Z "/></clipPath></defs><g id="surface84"><path style="fill-rule:nonzero;fill:rgb(89.411765%,10.196078%,10.980392%);fill-opacity:1;stroke-width:1;stroke-linecap:round;stroke-linejoin:round;stroke:rgb(0%,0%,0%);stroke-opacity:1;stroke-miterlimit:10;" d="M 117.648438 105.183594 L 152.398438 105.183594 L 152.398438 117.171875 L 117.648438 117.171875 Z "/><path style="fill-rule:nonzero;fill:rgb(21.568627%,49.411765%,72.156863%);fill-opacity:1;stroke-width:1;stroke-linecap:round;stroke-linejoin:round;stroke:rgb(0%,0%,0%);stroke-opacity:1;stroke-miterlimit:10;" d="M 117.648438 117.171875 L 152.398438 117.171875 L 152.398438 129.160156 L 117.648438 129.160156 Z "/><path style="fill-rule:nonzero;fill:rgb(30.196078%,68.627451%,29.019608%);fill-opacity:1;stroke-width:1;stroke-linecap:round;stroke-linejoin:round;stroke:rgb(0%,0%,0%);stroke-opacity:1;stroke-miterlimit:10;" d="M 117.648438 129.160156 L 152.398438 129.160156 L 152.398438 141.148438 L 117.648438 141.148438 Z "/><g style="fill:rgb(0%,0%,0%);fill-opacity:1;"><use xlink:href="#pca-glyph0-1" x="166.300781" y="115.730469"/><use xlink:href="#pca-glyph0-2" x="172.550812" y="115.730469"/><use xlink:href="#pca-glyph0-3" x="179.500839" y="115.730469"/><use xlink:href="#pca-glyph0-4" x="182.275848" y="115.730469"/><use xlink:href="#pca-glyph0-5" x="189.225876" y="115.730469"/><use xlink:href="#pca-glyph0-6" x="196.175903" y="115.730469"/><use xlink:href="#pca-glyph0-6" x="203.125931" y="115.730469"/><use xlink:href="#pca-glyph0-7" x="210.075958" y="115.730469"/></g><g style="fill:rgb(0%,0%,0%);fill-opacity:1;"><use xlink:href="#pca-glyph0-1" x="166.300781" y="127.722656"/><use xlink:href="#pca-glyph0-2" x="172.550812" y="127.722656"/><use xlink:href="#pca-glyph0-3" x="179.500839" y="127.722656"/><use xlink:href="#pca-glyph0-8" x="182.275848" y="127.722656"/><use xlink:href="#pca-glyph0-9" x="189.225876" y="127.722656"/><use xlink:href="#pca-glyph0-6" x="196.175903" y="127.722656"/><use xlink:href="#pca-glyph0-6" x="203.125931" y="127.722656"/><use xlink:href="#pca-glyph0-7" x="210.075958" y="127.722656"/></g><g style="fill:rgb(0%,0%,0%);fill-opacity:1;"><use xlink:href="#pca-glyph0-1" x="166.300781" y="139.710938"/><use xlink:href="#pca-glyph0-2" x="172.550812" y="139.710938"/><use xlink:href="#pca-glyph0-3" x="179.500839" y="139.710938"/><use xlink:href="#pca-glyph0-8" x="182.275848" y="139.710938"/><use xlink:href="#pca-glyph0-5" x="189.225876" y="139.710938"/><use xlink:href="#pca-glyph0-6" x="196.175903" y="139.710938"/><use xlink:href="#pca-glyph0-6" x="203.125931" y="139.710938"/><use xlink:href="#pca-glyph0-7" x="210.075958" y="139.710938"/></g><g style="fill:rgb(0%,0%,0%);fill-opacity:1;"><use xlink:href="#pca-glyph0-10" x="165.292969" y="263.21875"/><use xlink:href="#pca-glyph0-11" x="173.630493" y="263.21875"/><use xlink:href="#pca-glyph0-12" x="182.655533" y="263.21875"/></g><g style="fill:rgb(0%,0%,0%);fill-opacity:1;"><use xlink:href="#pca-glyph1-1" x="15.109375" y="209.105469"/><use xlink:href="#pca-glyph1-2" x="15.109375" y="200.767944"/><use xlink:href="#pca-glyph1-3" x="15.109375" y="191.742905"/></g><path style="fill:none;stroke-width:1;stroke-linecap:round;stroke-linejoin:round;stroke:rgb(0%,0%,0%);stroke-opacity:1;stroke-miterlimit:10;" d="M 68.664062 170.160156 L 68.664062 164.488281 "/><path style="fill:none;stroke-width:1;stroke-linecap:round;stroke-linejoin:round;stroke:rgb(0%,0%,0%);stroke-opacity:1;stroke-miterlimit:10;" d="M 137.644531 170.160156 L 137.644531 164.488281 "/><path style="fill:none;stroke-width:1;stroke-linecap:round;stroke-linejoin:round;stroke:rgb(0%,0%,0%);stroke-opacity:1;stroke-miterlimit:10;" d="M 206.621094 170.160156 L 206.621094 164.488281 "/><path style="fill:none;stroke-width:1;stroke-linecap:round;stroke-linejoin:round;stroke:rgb(0%,0%,0%);stroke-opacity:1;stroke-miterlimit:10;" d="M 275.601562 170.160156 L 275.601562 164.488281 "/><path style="fill:none;stroke-width:1;stroke-linecap:round;stroke-linejoin:round;stroke:rgb(0%,0%,0%);stroke-opacity:1;stroke-miterlimit:10;" d="M 52.703125 210.359375 L 47.035156 210.359375 "/><path style="fill:none;stroke-width:1;stroke-linecap:round;stroke-linejoin:round;stroke:rgb(0%,0%,0%);stroke-opacity:1;stroke-miterlimit:10;" d="M 52.703125 196.5625 L 47.035156 196.5625 "/><path style="fill:none;stroke-width:1;stroke-linecap:round;stroke-linejoin:round;stroke:rgb(0%,0%,0%);stroke-opacity:1;stroke-miterlimit:10;" d="M 52.703125 182.765625 L 47.035156 182.765625 "/><g style="fill:rgb(0%,0%,0%);fill-opacity:1;"><use xlink:href="#pca-glyph2-1" x="26.777344" y="214.039062"/><use xlink:href="#pca-glyph2-2" x="30.13855" y="214.039062"/><use xlink:href="#pca-glyph2-3" x="35.750641" y="214.039062"/></g><g style="fill:rgb(0%,0%,0%);fill-opacity:1;"><use xlink:href="#pca-glyph2-3" x="35.75" y="200.242188"/></g><g style="fill:rgb(0%,0%,0%);fill-opacity:1;"><use xlink:href="#pca-glyph2-2" x="30.140625" y="186.445312"/><use xlink:href="#pca-glyph2-3" x="35.752716" y="186.445312"/></g><path style="fill:none;stroke-width:1;stroke-linecap:round;stroke-linejoin:round;stroke:rgb(0%,0%,0%);stroke-opacity:1;stroke-miterlimit:10;" d="M 68.664062 223.742188 L 68.664062 229.410156 "/><path style="fill:none;stroke-width:1;stroke-linecap:round;stroke-linejoin:round;stroke:rgb(0%,0%,0%);stroke-opacity:1;stroke-miterlimit:10;" d="M 137.644531 223.742188 L 137.644531 229.410156 "/><path style="fill:none;stroke-width:1;stroke-linecap:round;stroke-linejoin:round;stroke:rgb(0%,0%,0%);stroke-opacity:1;stroke-miterlimit:10;" d="M 206.621094 223.742188 L 206.621094 229.410156 "/><path style="fill:none;stroke-width:1;stroke-linecap:round;stroke-linejoin:round;stroke:rgb(0%,0%,0%);stroke-opacity:1;stroke-miterlimit:10;" d="M 275.601562 223.742188 L 275.601562 229.410156 "/><g style="fill:rgb(0%,0%,0%);fill-opacity:1;"><use xlink:href="#pca-glyph2-1" x="61.371094" y="242.4375"/><use xlink:href="#pca-glyph2-4" x="64.7323" y="242.4375"/><use xlink:href="#pca-glyph2-3" x="70.344391" y="242.4375"/></g><g style="fill:rgb(0%,0%,0%);fill-opacity:1;"><use xlink:href="#pca-glyph2-3" x="134.839844" y="242.4375"/></g><g style="fill:rgb(0%,0%,0%);fill-opacity:1;"><use xlink:href="#pca-glyph2-4" x="201.007812" y="242.4375"/><use xlink:href="#pca-glyph2-3" x="206.619904" y="242.4375"/></g><g style="fill:rgb(0%,0%,0%);fill-opacity:1;"><use xlink:href="#pca-glyph2-2" x="267.183594" y="242.4375"/><use xlink:href="#pca-glyph2-3" x="272.795685" y="242.4375"/><use xlink:href="#pca-glyph2-3" x="278.407776" y="242.4375"/></g><path style="fill:none;stroke-width:1;stroke-linecap:round;stroke-linejoin:round;stroke:rgb(0%,0%,0%);stroke-opacity:1;stroke-miterlimit:10;" d="M 302.191406 210.359375 L 307.863281 210.359375 "/><path style="fill:none;stroke-width:1;stroke-linecap:round;stroke-linejoin:round;stroke:rgb(0%,0%,0%);stroke-opacity:1;stroke-miterlimit:10;" d="M 302.191406 196.5625 L 307.863281 196.5625 "/><path style="fill:none;stroke-width:1;stroke-linecap:round;stroke-linejoin:round;stroke:rgb(0%,0%,0%);stroke-opacity:1;stroke-miterlimit:10;" d="M 302.191406 182.765625 L 307.863281 182.765625 "/><path style="fill-rule:nonzero;fill:rgb(89.411765%,10.196078%,10.980392%);fill-opacity:1;stroke-width:1;stroke-linecap:round;stroke-linejoin:round;stroke:rgb(89.411765%,10.196078%,10.980392%);stroke-opacity:1;stroke-miterlimit:10;" d="M 87.335938 208.03125 C 87.335938 212.699219 80.335938 212.699219 80.335938 208.03125 C 80.335938 203.367188 87.335938 203.367188 87.335938 208.03125 "/><path style=" stroke:none;fill-rule:nonzero;fill:rgb(89.411765%,10.196078%,10.980392%);fill-opacity:1;" d="M 71.523438 220.449219 C 71.523438 225.117188 64.523438 225.117188 64.523438 220.449219 C 64.523438 215.785156 71.523438 215.785156 71.523438 220.449219 "/><g clip-path="url(#pca-clip1)" clip-rule="nonzero" type="plot-region" class="plot-region"><path style="fill:none;stroke-width:1;stroke-linecap:round;stroke-linejoin:round;stroke:rgb(89.411765%,10.196078%,10.980392%);stroke-opacity:1;stroke-miterlimit:10;" d="M 71.523438 220.449219 C 71.523438 225.117188 64.523438 225.117188 64.523438 220.449219 C 64.523438 215.785156 71.523438 215.785156 71.523438 220.449219 " type="plot-point" class="plot-point"/></g><path style="fill-rule:nonzero;fill:rgb(89.411765%,10.196078%,10.980392%);fill-opacity:1;stroke-width:1;stroke-linecap:round;stroke-linejoin:round;stroke:rgb(89.411765%,10.196078%,10.980392%);stroke-opacity:1;stroke-miterlimit:10;" d="M 124.1875 189.992188 C 124.1875 194.660156 117.1875 194.660156 117.1875 189.992188 C 117.1875 185.324219 124.1875 185.324219 124.1875 189.992188 "/><path style="fill-rule:nonzero;fill:rgb(21.568627%,49.411765%,72.156863%);fill-opacity:1;stroke-width:1;stroke-linecap:round;stroke-linejoin:round;stroke:rgb(21.568627%,49.411765%,72.156863%);stroke-opacity:1;stroke-miterlimit:10;" d="M 125.34375 191.359375 C 125.34375 196.023438 118.34375 196.023438 118.34375 191.359375 C 118.34375 186.691406 125.34375 186.691406 125.34375 191.359375 "/><g clip-path="url(#pca-clip2)" clip-rule="nonzero" type="plot-region" class="plot-region"><path style=" stroke:none;fill-rule:nonzero;fill:rgb(21.568627%,49.411765%,72.156863%);fill-opacity:1;" d="M 147.09375 173.816406 C 147.09375 178.484375 140.09375 178.484375 140.09375 173.816406 C 140.09375 169.148438 147.09375 169.148438 147.09375 173.816406 " type="plot-point" class="plot-point"/></g><g clip-path="url(#pca-clip3)" clip-rule="nonzero" type="plot-region" class="plot-region"><path style="fill:none;stroke-width:1;stroke-linecap:round;stroke-linejoin:round;stroke:rgb(21.568627%,49.411765%,72.156863%);stroke-opacity:1;stroke-miterlimit:10;" d="M 147.09375 173.816406 C 147.09375 178.484375 140.09375 178.484375 140.09375 173.816406 C 140.09375 169.148438 147.09375 169.148438 147.09375 173.816406 " type="plot-point" class="plot-point"/></g><path style="fill-rule:nonzero;fill:rgb(21.568627%,49.411765%,72.156863%);fill-opacity:1;stroke-width:1;stroke-linecap:round;stroke-linejoin:round;stroke:rgb(21.568627%,49.411765%,72.156863%);stroke-opacity:1;stroke-miterlimit:10;" d="M 119.242188 202.832031 C 119.242188 207.5 112.242188 207.5 112.242188 202.832031 C 112.242188 198.167969 119.242188 198.167969 119.242188 202.832031 "/><g clip-path="url(#pca-clip4)" clip-rule="nonzero" type="plot-region" class="plot-region"><path style=" stroke:none;fill-rule:nonzero;fill:rgb(30.196078%,68.627451%,29.019608%);fill-opacity:1;" d="M 160.960938 173.449219 C 160.960938 178.113281 153.960938 178.113281 153.960938 173.449219 C 153.960938 168.78125 160.960938 168.78125 160.960938 173.449219 " type="plot-point" class="plot-point"/></g><g clip-path="url(#pca-clip5)" clip-rule="nonzero" type="plot-region" class="plot-region"><path style="fill:none;stroke-width:1;stroke-linecap:round;stroke-linejoin:round;stroke:rgb(30.196078%,68.627451%,29.019608%);stroke-opacity:1;stroke-miterlimit:10;" d="M 160.960938 173.449219 C 160.960938 178.113281 153.960938 178.113281 153.960938 173.449219 C 153.960938 168.78125 160.960938 168.78125 160.960938 173.449219 " type="plot-point" class="plot-point"/></g><path style="fill-rule:nonzero;fill:rgb(30.196078%,68.627451%,29.019608%);fill-opacity:1;stroke-width:1;stroke-linecap:round;stroke-linejoin:round;stroke:rgb(30.196078%,68.627451%,29.019608%);stroke-opacity:1;stroke-miterlimit:10;" d="M 144.238281 193.625 C 144.238281 198.289062 137.238281 198.289062 137.238281 193.625 C 137.238281 188.957031 144.238281 188.957031 144.238281 193.625 "/><path style="fill-rule:nonzero;fill:rgb(30.196078%,68.627451%,29.019608%);fill-opacity:1;stroke-width:1;stroke-linecap:round;stroke-linejoin:round;stroke:rgb(30.196078%,68.627451%,29.019608%);stroke-opacity:1;stroke-miterlimit:10;" d="M 290.371094 215.503906 C 290.371094 220.167969 283.371094 220.167969 283.371094 215.503906 C 283.371094 210.835938 290.371094 210.835938 290.371094 215.503906 "/><path style="fill:none;stroke-width:1;stroke-linecap:round;stroke-linejoin:round;stroke:rgb(0%,0%,0%);stroke-opacity:1;stroke-miterlimit:10;" d="M 52.703125 170.160156 L 302.191406 170.160156 L 302.191406 223.742188 L 52.703125 223.742188 Z "/></g></svg>
