<?xml version="1.0" encoding="UTF-8"?>
<svg xmlns="http://www.w3.org/2000/svg" xmlns:xlink="http://www.w3.org/1999/xlink" width="383.518794pt" height="513.118794pt" viewBox="0 0 383.518794 513.118794" version="1.1" id="Fig:pca"><defs><g><symbol overflow="visible" id="pca-glyph0-0"><path style="stroke:none;" d=""/></symbol><symbol overflow="visible" id="pca-glyph0-1"><path style="stroke:none;" d="M 4.65625 0 L 3.558594 0 L 3.558594 -7 C 3.289063 -6.746094 2.941406 -6.492188 2.515625 -6.242188 C 2.085938 -5.988281 1.703125 -5.800781 1.359375 -5.675781 L 1.359375 -6.738281 C 1.972656 -7.027344 2.507813 -7.375 2.972656 -7.789063 C 3.429688 -8.195313 3.757813 -8.59375 3.949219 -8.984375 L 4.65625 -8.984375 Z M 4.65625 0 "/></symbol><symbol overflow="visible" id="pca-glyph0-2"><path style="stroke:none;" d="M 6.292969 -1.054688 L 6.292969 0 L 0.378906 0 C 0.367188 -0.265625 0.410156 -0.519531 0.507813 -0.761719 C 0.65625 -1.164063 0.898438 -1.558594 1.230469 -1.953125 C 1.558594 -2.339844 2.035156 -2.792969 2.667969 -3.308594 C 3.636719 -4.101563 4.292969 -4.734375 4.636719 -5.203125 C 4.976563 -5.667969 5.148438 -6.105469 5.152344 -6.523438 C 5.148438 -6.957031 4.992188 -7.324219 4.683594 -7.625 C 4.371094 -7.921875 3.96875 -8.074219 3.46875 -8.074219 C 2.9375 -8.074219 2.511719 -7.914063 2.195313 -7.597656 C 1.878906 -7.277344 1.71875 -6.839844 1.714844 -6.28125 L 0.585938 -6.398438 C 0.664063 -7.238281 0.953125 -7.878906 1.457031 -8.320313 C 1.960938 -8.761719 2.640625 -8.980469 3.492188 -8.984375 C 4.347656 -8.980469 5.023438 -8.742188 5.527344 -8.269531 C 6.027344 -7.789063 6.28125 -7.199219 6.28125 -6.5 C 6.28125 -6.140625 6.207031 -5.789063 6.058594 -5.445313 C 5.910156 -5.09375 5.664063 -4.730469 5.328125 -4.351563 C 4.984375 -3.964844 4.421875 -3.441406 3.636719 -2.777344 C 2.976563 -2.222656 2.554688 -1.84375 2.367188 -1.648438 C 2.179688 -1.449219 2.023438 -1.253906 1.90625 -1.054688 Z M 6.292969 -1.054688 "/></symbol><symbol overflow="visible" id="pca-glyph0-3"><path style="stroke:none;" d="M 0.523438 -2.363281 L 1.625 -2.507813 C 1.746094 -1.882813 1.960938 -1.433594 2.265625 -1.160156 C 2.566406 -0.886719 2.9375 -0.75 3.375 -0.75 C 3.890625 -0.75 4.324219 -0.925781 4.683594 -1.285156 C 5.035156 -1.640625 5.214844 -2.085938 5.21875 -2.617188 C 5.214844 -3.121094 5.050781 -3.539063 4.722656 -3.867188 C 4.394531 -4.195313 3.976563 -4.359375 3.46875 -4.359375 C 3.257813 -4.359375 2.996094 -4.316406 2.691406 -4.234375 L 2.8125 -5.199219 C 2.882813 -5.1875 2.941406 -5.183594 2.992188 -5.1875 C 3.457031 -5.183594 3.878906 -5.308594 4.253906 -5.554688 C 4.628906 -5.796875 4.816406 -6.171875 4.816406 -6.683594 C 4.816406 -7.085938 4.679688 -7.417969 4.40625 -7.683594 C 4.132813 -7.945313 3.78125 -8.078125 3.351563 -8.082031 C 2.921875 -8.078125 2.5625 -7.945313 2.28125 -7.675781 C 1.992188 -7.40625 1.8125 -7.003906 1.734375 -6.46875 L 0.632813 -6.664063 C 0.765625 -7.398438 1.070313 -7.96875 1.550781 -8.375 C 2.023438 -8.777344 2.617188 -8.980469 3.328125 -8.984375 C 3.8125 -8.980469 4.261719 -8.875 4.675781 -8.667969 C 5.085938 -8.457031 5.398438 -8.171875 5.617188 -7.8125 C 5.832031 -7.445313 5.941406 -7.0625 5.945313 -6.660156 C 5.941406 -6.269531 5.835938 -5.917969 5.632813 -5.601563 C 5.421875 -5.28125 5.117188 -5.027344 4.710938 -4.847656 C 5.238281 -4.722656 5.648438 -4.46875 5.941406 -4.085938 C 6.234375 -3.695313 6.378906 -3.214844 6.382813 -2.644531 C 6.378906 -1.859375 6.09375 -1.199219 5.527344 -0.65625 C 4.957031 -0.113281 4.238281 0.15625 3.367188 0.160156 C 2.582031 0.15625 1.929688 -0.0742188 1.410156 -0.542969 C 0.890625 -1.007813 0.59375 -1.613281 0.523438 -2.363281 Z M 0.523438 -2.363281 "/></symbol><symbol overflow="visible" id="pca-glyph0-4"><path style="stroke:none;" d="M 4.039063 0 L 4.039063 -2.140625 L 0.160156 -2.140625 L 0.160156 -3.148438 L 4.242188 -8.949219 L 5.140625 -8.949219 L 5.140625 -3.148438 L 6.347656 -3.148438 L 6.347656 -2.140625 L 5.140625 -2.140625 L 5.140625 0 Z M 4.039063 -3.148438 L 4.039063 -7.183594 L 1.238281 -3.148438 Z M 4.039063 -3.148438 "/></symbol><symbol overflow="visible" id="pca-glyph0-5"><path style="stroke:none;" d="M 0.519531 -2.34375 L 1.671875 -2.441406 C 1.753906 -1.875 1.953125 -1.453125 2.265625 -1.171875 C 2.574219 -0.890625 2.949219 -0.75 3.394531 -0.75 C 3.917969 -0.75 4.367188 -0.949219 4.734375 -1.347656 C 5.101563 -1.746094 5.285156 -2.273438 5.285156 -2.9375 C 5.285156 -3.558594 5.109375 -4.054688 4.757813 -4.417969 C 4.40625 -4.777344 3.945313 -4.957031 3.375 -4.960938 C 3.019531 -4.957031 2.699219 -4.875 2.414063 -4.71875 C 2.128906 -4.554688 1.90625 -4.347656 1.746094 -4.09375 L 0.714844 -4.230469 L 1.582031 -8.824219 L 6.03125 -8.824219 L 6.03125 -7.777344 L 2.460938 -7.777344 L 1.976563 -5.371094 C 2.507813 -5.742188 3.074219 -5.929688 3.667969 -5.933594 C 4.449219 -5.929688 5.105469 -5.660156 5.644531 -5.121094 C 6.179688 -4.578125 6.449219 -3.882813 6.453125 -3.035156 C 6.449219 -2.222656 6.214844 -1.519531 5.742188 -0.933594 C 5.167969 -0.207031 4.382813 0.152344 3.394531 0.152344 C 2.574219 0.152344 1.910156 -0.0742188 1.398438 -0.53125 C 0.882813 -0.984375 0.589844 -1.589844 0.519531 -2.34375 Z M 0.519531 -2.34375 "/></symbol><symbol overflow="visible" id="pca-glyph0-6"><path style="stroke:none;" d="M 6.21875 -6.757813 L 5.125 -6.671875 C 5.027344 -7.097656 4.890625 -7.410156 4.710938 -7.609375 C 4.414063 -7.921875 4.046875 -8.078125 3.613281 -8.082031 C 3.261719 -8.078125 2.953125 -7.980469 2.691406 -7.789063 C 2.339844 -7.53125 2.066406 -7.164063 1.871094 -6.683594 C 1.667969 -6.195313 1.566406 -5.503906 1.5625 -4.613281 C 1.824219 -5.011719 2.148438 -5.3125 2.53125 -5.511719 C 2.914063 -5.703125 3.3125 -5.800781 3.734375 -5.804688 C 4.464844 -5.800781 5.089844 -5.53125 5.605469 -4.996094 C 6.117188 -4.453125 6.375 -3.757813 6.378906 -2.90625 C 6.375 -2.34375 6.253906 -1.820313 6.015625 -1.339844 C 5.769531 -0.855469 5.4375 -0.484375 5.015625 -0.230469 C 4.59375 0.0273438 4.113281 0.152344 3.578125 0.152344 C 2.660156 0.152344 1.914063 -0.183594 1.335938 -0.855469 C 0.757813 -1.527344 0.46875 -2.636719 0.46875 -4.1875 C 0.46875 -5.914063 0.789063 -7.171875 1.429688 -7.960938 C 1.984375 -8.640625 2.734375 -8.980469 3.679688 -8.984375 C 4.382813 -8.980469 4.957031 -8.785156 5.410156 -8.390625 C 5.855469 -7.996094 6.125 -7.449219 6.21875 -6.757813 Z M 1.734375 -2.898438 C 1.734375 -2.519531 1.8125 -2.15625 1.972656 -1.8125 C 2.132813 -1.460938 2.359375 -1.199219 2.648438 -1.019531 C 2.9375 -0.839844 3.238281 -0.75 3.558594 -0.75 C 4.019531 -0.75 4.417969 -0.9375 4.753906 -1.3125 C 5.082031 -1.6875 5.25 -2.195313 5.253906 -2.839844 C 5.25 -3.453125 5.085938 -3.941406 4.757813 -4.300781 C 4.429688 -4.65625 4.015625 -4.832031 3.515625 -4.835938 C 3.015625 -4.832031 2.59375 -4.65625 2.25 -4.300781 C 1.90625 -3.941406 1.734375 -3.472656 1.734375 -2.898438 Z M 1.734375 -2.898438 "/></symbol><symbol overflow="visible" id="pca-glyph0-7"><path style="stroke:none;" d="M 0.59375 -7.777344 L 0.59375 -8.832031 L 6.382813 -8.832031 L 6.382813 -7.976563 C 5.8125 -7.367188 5.25 -6.5625 4.691406 -5.558594 C 4.128906 -4.554688 3.695313 -3.523438 3.394531 -2.460938 C 3.167969 -1.710938 3.027344 -0.890625 2.972656 0 L 1.84375 0 C 1.855469 -0.703125 1.992188 -1.550781 2.257813 -2.550781 C 2.519531 -3.542969 2.898438 -4.503906 3.394531 -5.433594 C 3.886719 -6.355469 4.414063 -7.136719 4.972656 -7.777344 Z M 0.59375 -7.777344 "/></symbol><symbol overflow="visible" id="pca-glyph0-8"><path style="stroke:none;" d="M 2.210938 -4.851563 C 1.75 -5.015625 1.414063 -5.253906 1.195313 -5.566406 C 0.976563 -5.875 0.867188 -6.242188 0.867188 -6.675781 C 0.867188 -7.324219 1.097656 -7.871094 1.566406 -8.316406 C 2.03125 -8.757813 2.65625 -8.980469 3.4375 -8.984375 C 4.214844 -8.980469 4.84375 -8.753906 5.320313 -8.304688 C 5.796875 -7.847656 6.035156 -7.296875 6.035156 -6.648438 C 6.035156 -6.230469 5.925781 -5.867188 5.707031 -5.5625 C 5.488281 -5.25 5.15625 -5.015625 4.71875 -4.851563 C 5.265625 -4.671875 5.683594 -4.382813 5.972656 -3.984375 C 6.253906 -3.585938 6.398438 -3.109375 6.402344 -2.558594 C 6.398438 -1.789063 6.128906 -1.144531 5.589844 -0.628906 C 5.046875 -0.105469 4.332031 0.152344 3.453125 0.152344 C 2.566406 0.152344 1.855469 -0.105469 1.316406 -0.628906 C 0.773438 -1.148438 0.503906 -1.800781 0.507813 -2.585938 C 0.503906 -3.164063 0.652344 -3.652344 0.949219 -4.050781 C 1.242188 -4.441406 1.660156 -4.710938 2.210938 -4.851563 Z M 1.988281 -6.714844 C 1.984375 -6.289063 2.121094 -5.941406 2.398438 -5.675781 C 2.667969 -5.40625 3.023438 -5.273438 3.460938 -5.273438 C 3.878906 -5.273438 4.226563 -5.40625 4.5 -5.671875 C 4.769531 -5.9375 4.902344 -6.261719 4.90625 -6.652344 C 4.902344 -7.050781 4.765625 -7.390625 4.488281 -7.667969 C 4.207031 -7.941406 3.859375 -8.078125 3.449219 -8.082031 C 3.027344 -8.078125 2.679688 -7.945313 2.402344 -7.675781 C 2.125 -7.40625 1.984375 -7.085938 1.988281 -6.714844 Z M 1.636719 -2.582031 C 1.632813 -2.265625 1.707031 -1.960938 1.859375 -1.671875 C 2.003906 -1.375 2.226563 -1.148438 2.519531 -0.992188 C 2.8125 -0.828125 3.128906 -0.75 3.46875 -0.75 C 3.992188 -0.75 4.421875 -0.917969 4.765625 -1.257813 C 5.105469 -1.59375 5.277344 -2.023438 5.28125 -2.546875 C 5.277344 -3.074219 5.101563 -3.511719 4.75 -3.855469 C 4.394531 -4.199219 3.953125 -4.371094 3.429688 -4.375 C 2.910156 -4.371094 2.484375 -4.199219 2.144531 -3.863281 C 1.804688 -3.519531 1.632813 -3.09375 1.636719 -2.582031 Z M 1.636719 -2.582031 "/></symbol><symbol overflow="visible" id="pca-glyph0-9"><path style="stroke:none;" d="M 0.414063 -3.242188 C 0.410156 -4.4375 0.742188 -5.328125 1.414063 -5.90625 C 1.96875 -6.386719 2.648438 -6.625 3.453125 -6.628906 C 4.34375 -6.625 5.074219 -6.332031 5.640625 -5.75 C 6.203125 -5.164063 6.484375 -4.359375 6.488281 -3.332031 C 6.484375 -2.496094 6.359375 -1.839844 6.113281 -1.363281 C 5.859375 -0.882813 5.496094 -0.511719 5.019531 -0.25 C 4.539063 0.015625 4.015625 0.144531 3.453125 0.148438 C 2.542969 0.144531 1.8125 -0.140625 1.253906 -0.722656 C 0.691406 -1.300781 0.410156 -2.140625 0.414063 -3.242188 Z M 1.542969 -3.242188 C 1.539063 -2.40625 1.722656 -1.785156 2.085938 -1.375 C 2.445313 -0.960938 2.898438 -0.753906 3.453125 -0.757813 C 3.996094 -0.753906 4.453125 -0.960938 4.816406 -1.378906 C 5.175781 -1.789063 5.355469 -2.421875 5.359375 -3.277344 C 5.355469 -4.074219 5.171875 -4.683594 4.8125 -5.097656 C 4.445313 -5.511719 3.992188 -5.71875 3.453125 -5.71875 C 2.898438 -5.71875 2.445313 -5.511719 2.085938 -5.101563 C 1.722656 -4.6875 1.539063 -4.066406 1.542969 -3.242188 Z M 1.542969 -3.242188 "/></symbol><symbol overflow="visible" id="pca-glyph0-10"><path style="stroke:none;" d="M 3.222656 -0.984375 L 3.382813 -0.0117188 C 3.070313 0.0507813 2.792969 0.0820313 2.550781 0.0859375 C 2.148438 0.0820313 1.839844 0.0234375 1.621094 -0.101563 C 1.398438 -0.226563 1.242188 -0.394531 1.15625 -0.601563 C 1.0625 -0.804688 1.019531 -1.238281 1.023438 -1.898438 L 1.023438 -5.628906 L 0.21875 -5.628906 L 0.21875 -6.480469 L 1.023438 -6.480469 L 1.023438 -8.085938 L 2.117188 -8.746094 L 2.117188 -6.480469 L 3.222656 -6.480469 L 3.222656 -5.628906 L 2.117188 -5.628906 L 2.117188 -1.835938 C 2.113281 -1.519531 2.132813 -1.320313 2.175781 -1.230469 C 2.210938 -1.140625 2.273438 -1.070313 2.363281 -1.019531 C 2.449219 -0.964844 2.578125 -0.9375 2.742188 -0.941406 C 2.859375 -0.9375 3.019531 -0.953125 3.222656 -0.984375 Z M 3.222656 -0.984375 "/></symbol><symbol overflow="visible" id="pca-glyph0-11"><path style="stroke:none;" d="M 0.824219 0 L 0.824219 -8.949219 L 1.921875 -8.949219 L 1.921875 -5.738281 C 2.433594 -6.328125 3.078125 -6.625 3.863281 -6.628906 C 4.339844 -6.625 4.757813 -6.53125 5.113281 -6.34375 C 5.464844 -6.152344 5.71875 -5.890625 5.871094 -5.558594 C 6.023438 -5.222656 6.097656 -4.738281 6.101563 -4.109375 L 6.101563 0 L 5.003906 0 L 5.003906 -4.109375 C 5.003906 -4.652344 4.882813 -5.050781 4.644531 -5.304688 C 4.40625 -5.554688 4.070313 -5.683594 3.636719 -5.683594 C 3.308594 -5.683594 3.003906 -5.597656 2.71875 -5.429688 C 2.429688 -5.257813 2.222656 -5.027344 2.105469 -4.742188 C 1.980469 -4.449219 1.921875 -4.050781 1.921875 -3.546875 L 1.921875 0 Z M 0.824219 0 "/></symbol><symbol overflow="visible" id="pca-glyph0-12"><path style="stroke:none;" d="M 5.261719 -2.085938 L 6.398438 -1.945313 C 6.21875 -1.28125 5.886719 -0.765625 5.402344 -0.402344 C 4.917969 -0.0351563 4.296875 0.144531 3.546875 0.148438 C 2.59375 0.144531 1.84375 -0.144531 1.289063 -0.726563 C 0.734375 -1.3125 0.457031 -2.132813 0.457031 -3.1875 C 0.457031 -4.273438 0.734375 -5.117188 1.296875 -5.722656 C 1.855469 -6.324219 2.585938 -6.625 3.484375 -6.628906 C 4.347656 -6.625 5.054688 -6.332031 5.609375 -5.742188 C 6.15625 -5.152344 6.433594 -4.320313 6.433594 -3.253906 C 6.433594 -3.183594 6.429688 -3.085938 6.425781 -2.960938 L 1.59375 -2.960938 C 1.632813 -2.242188 1.832031 -1.699219 2.195313 -1.324219 C 2.558594 -0.945313 3.011719 -0.753906 3.550781 -0.757813 C 3.953125 -0.753906 4.296875 -0.859375 4.582031 -1.074219 C 4.867188 -1.28125 5.09375 -1.621094 5.261719 -2.085938 Z M 1.652344 -3.863281 L 5.273438 -3.863281 C 5.222656 -4.402344 5.082031 -4.8125 4.859375 -5.089844 C 4.503906 -5.511719 4.050781 -5.722656 3.496094 -5.726563 C 2.992188 -5.722656 2.570313 -5.554688 2.226563 -5.21875 C 1.882813 -4.878906 1.691406 -4.425781 1.652344 -3.863281 Z M 1.652344 -3.863281 "/></symbol><symbol overflow="visible" id="pca-glyph0-13"><path style="stroke:none;" d="M 0.8125 0 L 0.8125 -6.480469 L 1.800781 -6.480469 L 1.800781 -5.5 C 2.050781 -5.957031 2.285156 -6.257813 2.5 -6.40625 C 2.710938 -6.550781 2.945313 -6.625 3.203125 -6.628906 C 3.570313 -6.625 3.945313 -6.507813 4.332031 -6.273438 L 3.953125 -5.253906 C 3.683594 -5.410156 3.414063 -5.488281 3.148438 -5.492188 C 2.90625 -5.488281 2.691406 -5.417969 2.5 -5.273438 C 2.308594 -5.128906 2.171875 -4.929688 2.09375 -4.675781 C 1.96875 -4.285156 1.910156 -3.855469 1.910156 -3.394531 L 1.910156 0 Z M 0.8125 0 "/></symbol><symbol overflow="visible" id="pca-glyph0-14"><path style="stroke:none;" d="M 0.964844 0 L 0.964844 -8.949219 L 4.339844 -8.949219 C 4.929688 -8.945313 5.382813 -8.917969 5.699219 -8.863281 C 6.136719 -8.789063 6.503906 -8.648438 6.804688 -8.445313 C 7.097656 -8.234375 7.335938 -7.945313 7.519531 -7.578125 C 7.699219 -7.203125 7.792969 -6.796875 7.792969 -6.359375 C 7.792969 -5.59375 7.550781 -4.949219 7.066406 -4.425781 C 6.582031 -3.894531 5.707031 -3.632813 4.445313 -3.636719 L 2.148438 -3.636719 L 2.148438 0 Z M 2.148438 -4.695313 L 4.460938 -4.695313 C 5.222656 -4.691406 5.765625 -4.835938 6.089844 -5.121094 C 6.410156 -5.402344 6.574219 -5.800781 6.574219 -6.324219 C 6.574219 -6.691406 6.476563 -7.011719 6.289063 -7.28125 C 6.097656 -7.546875 5.851563 -7.722656 5.542969 -7.8125 C 5.339844 -7.859375 4.96875 -7.886719 4.4375 -7.890625 L 2.148438 -7.890625 Z M 2.148438 -4.695313 "/></symbol><symbol overflow="visible" id="pca-glyph0-15"><path style="stroke:none;" d="M 7.347656 -3.136719 L 8.53125 -2.839844 C 8.28125 -1.863281 7.832031 -1.121094 7.191406 -0.613281 C 6.542969 -0.101563 5.757813 0.152344 4.828125 0.152344 C 3.863281 0.152344 3.078125 -0.0429688 2.476563 -0.433594 C 1.871094 -0.824219 1.410156 -1.390625 1.09375 -2.140625 C 0.777344 -2.882813 0.621094 -3.683594 0.621094 -4.539063 C 0.621094 -5.46875 0.796875 -6.28125 1.15625 -6.976563 C 1.507813 -7.667969 2.015625 -8.195313 2.675781 -8.558594 C 3.332031 -8.917969 4.054688 -9.097656 4.847656 -9.101563 C 5.738281 -9.097656 6.492188 -8.871094 7.101563 -8.417969 C 7.710938 -7.960938 8.136719 -7.320313 8.378906 -6.492188 L 7.214844 -6.21875 C 7.003906 -6.867188 6.703125 -7.34375 6.308594 -7.640625 C 5.914063 -7.9375 5.417969 -8.085938 4.820313 -8.085938 C 4.128906 -8.085938 3.554688 -7.917969 3.097656 -7.589844 C 2.632813 -7.257813 2.308594 -6.816406 2.125 -6.265625 C 1.933594 -5.707031 1.839844 -5.136719 1.84375 -4.546875 C 1.839844 -3.785156 1.949219 -3.121094 2.175781 -2.554688 C 2.394531 -1.984375 2.742188 -1.558594 3.210938 -1.28125 C 3.679688 -0.996094 4.183594 -0.855469 4.730469 -0.859375 C 5.390625 -0.855469 5.953125 -1.046875 6.414063 -1.433594 C 6.871094 -1.8125 7.183594 -2.378906 7.347656 -3.136719 Z M 7.347656 -3.136719 "/></symbol><symbol overflow="visible" id="pca-glyph1-0"><path style="stroke:none;" d="M 0 -0.964844 L -8.949219 -0.964844 L -8.949219 -4.339844 C -8.945313 -4.929688 -8.917969 -5.382813 -8.863281 -5.699219 C -8.789063 -6.136719 -8.648438 -6.503906 -8.445313 -6.804688 C -8.234375 -7.097656 -7.945313 -7.335938 -7.578125 -7.519531 C -7.203125 -7.699219 -6.796875 -7.792969 -6.359375 -7.792969 C -5.59375 -7.792969 -4.949219 -7.550781 -4.425781 -7.066406 C -3.894531 -6.582031 -3.632813 -5.707031 -3.636719 -4.445313 L -3.636719 -2.148438 L 0 -2.148438 Z M -4.695313 -2.148438 L -4.695313 -4.460938 C -4.691406 -5.222656 -4.835938 -5.765625 -5.121094 -6.089844 C -5.402344 -6.410156 -5.800781 -6.574219 -6.324219 -6.574219 C -6.691406 -6.574219 -7.011719 -6.476563 -7.28125 -6.289063 C -7.546875 -6.097656 -7.722656 -5.851563 -7.8125 -5.542969 C -7.859375 -5.339844 -7.886719 -4.96875 -7.890625 -4.4375 L -7.890625 -2.148438 Z M -4.695313 -2.148438 "/></symbol><symbol overflow="visible" id="pca-glyph1-1"><path style="stroke:none;" d="M -3.136719 -7.347656 L -2.839844 -8.53125 C -1.863281 -8.28125 -1.121094 -7.832031 -0.613281 -7.191406 C -0.101563 -6.542969 0.152344 -5.757813 0.152344 -4.828125 C 0.152344 -3.863281 -0.0429688 -3.078125 -0.433594 -2.476563 C -0.824219 -1.871094 -1.390625 -1.410156 -2.140625 -1.09375 C -2.882813 -0.777344 -3.683594 -0.621094 -4.539063 -0.621094 C -5.46875 -0.621094 -6.28125 -0.796875 -6.976563 -1.15625 C -7.667969 -1.507813 -8.195313 -2.015625 -8.558594 -2.675781 C -8.917969 -3.332031 -9.097656 -4.054688 -9.101563 -4.847656 C -9.097656 -5.738281 -8.871094 -6.492188 -8.417969 -7.101563 C -7.960938 -7.710938 -7.320313 -8.136719 -6.492188 -8.378906 L -6.21875 -7.214844 C -6.867188 -7.003906 -7.34375 -6.703125 -7.640625 -6.308594 C -7.9375 -5.914063 -8.085938 -5.417969 -8.085938 -4.820313 C -8.085938 -4.128906 -7.917969 -3.554688 -7.589844 -3.097656 C -7.257813 -2.632813 -6.816406 -2.308594 -6.265625 -2.125 C -5.707031 -1.933594 -5.136719 -1.839844 -4.546875 -1.84375 C -3.785156 -1.839844 -3.121094 -1.949219 -2.554688 -2.175781 C -1.984375 -2.394531 -1.558594 -2.742188 -1.28125 -3.210938 C -0.996094 -3.679688 -0.855469 -4.183594 -0.859375 -4.730469 C -0.855469 -5.390625 -1.046875 -5.953125 -1.433594 -6.414063 C -1.8125 -6.871094 -2.378906 -7.183594 -3.136719 -7.347656 Z M -3.136719 -7.347656 "/></symbol><symbol overflow="visible" id="pca-glyph1-2"><path style="stroke:none;" d="M -1.054688 -6.292969 L 0 -6.292969 L 0 -0.378906 C -0.265625 -0.367188 -0.519531 -0.410156 -0.761719 -0.507813 C -1.164063 -0.65625 -1.558594 -0.898438 -1.953125 -1.230469 C -2.339844 -1.558594 -2.792969 -2.035156 -3.308594 -2.667969 C -4.101563 -3.636719 -4.734375 -4.292969 -5.203125 -4.636719 C -5.667969 -4.976563 -6.105469 -5.148438 -6.523438 -5.152344 C -6.957031 -5.148438 -7.324219 -4.992188 -7.625 -4.683594 C -7.921875 -4.371094 -8.074219 -3.96875 -8.074219 -3.46875 C -8.074219 -2.9375 -7.914063 -2.511719 -7.597656 -2.195313 C -7.277344 -1.878906 -6.839844 -1.71875 -6.28125 -1.714844 L -6.398438 -0.585938 C -7.238281 -0.664063 -7.878906 -0.953125 -8.320313 -1.457031 C -8.761719 -1.960938 -8.980469 -2.640625 -8.984375 -3.492188 C -8.980469 -4.347656 -8.742188 -5.023438 -8.269531 -5.527344 C -7.789063 -6.027344 -7.199219 -6.28125 -6.5 -6.28125 C -6.140625 -6.28125 -5.789063 -6.207031 -5.445313 -6.058594 C -5.09375 -5.910156 -4.730469 -5.664063 -4.351563 -5.328125 C -3.964844 -4.984375 -3.441406 -4.421875 -2.777344 -3.636719 C -2.222656 -2.976563 -1.84375 -2.554688 -1.648438 -2.367188 C -1.449219 -2.179688 -1.253906 -2.023438 -1.054688 -1.90625 Z M -1.054688 -6.292969 "/></symbol><symbol overflow="visible" id="pca-glyph2-0"><path style="stroke:none;" d="M 0.320313 -2.171875 L 0.320313 -3.0625 L 3.046875 -3.0625 L 3.046875 -2.171875 Z M 0.320313 -2.171875 "/></symbol><symbol overflow="visible" id="pca-glyph2-1"><path style="stroke:none;" d="M 5.085938 -0.851563 L 5.085938 0 L 0.304688 0 C 0.296875 -0.210938 0.332031 -0.414063 0.410156 -0.617188 C 0.53125 -0.9375 0.722656 -1.257813 0.992188 -1.578125 C 1.257813 -1.890625 1.648438 -2.257813 2.15625 -2.671875 C 2.9375 -3.316406 3.464844 -3.824219 3.746094 -4.203125 C 4.019531 -4.578125 4.160156 -4.9375 4.164063 -5.273438 C 4.160156 -5.625 4.035156 -5.917969 3.785156 -6.160156 C 3.53125 -6.398438 3.203125 -6.519531 2.800781 -6.523438 C 2.371094 -6.519531 2.027344 -6.390625 1.773438 -6.136719 C 1.515625 -5.878906 1.386719 -5.527344 1.386719 -5.074219 L 0.472656 -5.167969 C 0.53125 -5.847656 0.765625 -6.363281 1.175781 -6.722656 C 1.582031 -7.074219 2.128906 -7.253906 2.820313 -7.257813 C 3.511719 -7.253906 4.0625 -7.0625 4.46875 -6.679688 C 4.871094 -6.296875 5.074219 -5.820313 5.074219 -5.253906 C 5.074219 -4.960938 5.011719 -4.675781 4.894531 -4.398438 C 4.773438 -4.117188 4.578125 -3.824219 4.304688 -3.515625 C 4.027344 -3.203125 3.570313 -2.777344 2.9375 -2.242188 C 2.402344 -1.792969 2.0625 -1.488281 1.914063 -1.332031 C 1.761719 -1.167969 1.636719 -1.007813 1.539063 -0.851563 Z M 5.085938 -0.851563 "/></symbol><symbol overflow="visible" id="pca-glyph2-2"><path style="stroke:none;" d="M 0.417969 -3.566406 C 0.414063 -4.417969 0.503906 -5.105469 0.679688 -5.628906 C 0.855469 -6.148438 1.117188 -6.550781 1.464844 -6.832031 C 1.8125 -7.113281 2.25 -7.253906 2.777344 -7.257813 C 3.164063 -7.253906 3.503906 -7.175781 3.796875 -7.023438 C 4.085938 -6.863281 4.324219 -6.636719 4.519531 -6.347656 C 4.707031 -6.050781 4.859375 -5.695313 4.96875 -5.273438 C 5.078125 -4.851563 5.132813 -4.28125 5.132813 -3.566406 C 5.132813 -2.714844 5.042969 -2.03125 4.871094 -1.511719 C 4.691406 -0.988281 4.433594 -0.582031 4.089844 -0.300781 C 3.742188 -0.015625 3.304688 0.121094 2.777344 0.125 C 2.078125 0.121094 1.527344 -0.125 1.132813 -0.625 C 0.652344 -1.222656 0.414063 -2.203125 0.417969 -3.566406 Z M 1.332031 -3.566406 C 1.328125 -2.375 1.46875 -1.585938 1.746094 -1.195313 C 2.023438 -0.800781 2.367188 -0.601563 2.777344 -0.605469 C 3.183594 -0.601563 3.523438 -0.800781 3.804688 -1.195313 C 4.078125 -1.589844 4.21875 -2.378906 4.222656 -3.566406 C 4.21875 -4.753906 4.078125 -5.542969 3.804688 -5.9375 C 3.523438 -6.324219 3.179688 -6.519531 2.765625 -6.523438 C 2.359375 -6.519531 2.03125 -6.347656 1.789063 -6.007813 C 1.480469 -5.5625 1.328125 -4.75 1.332031 -3.566406 Z M 1.332031 -3.566406 "/></symbol><symbol overflow="visible" id="pca-glyph2-3"><path style="stroke:none;" d="M 3.761719 0 L 2.875 0 L 2.875 -5.65625 C 2.660156 -5.449219 2.378906 -5.246094 2.035156 -5.042969 C 1.683594 -4.835938 1.375 -4.683594 1.101563 -4.585938 L 1.101563 -5.445313 C 1.59375 -5.671875 2.027344 -5.953125 2.402344 -6.289063 C 2.773438 -6.617188 3.035156 -6.941406 3.191406 -7.257813 L 3.761719 -7.257813 Z M 3.761719 0 "/></symbol><symbol overflow="visible" id="pca-glyph2-4"><path style="stroke:none;" d="M 0.425781 -1.910156 L 1.3125 -2.027344 C 1.414063 -1.523438 1.585938 -1.160156 1.832031 -0.9375 C 2.074219 -0.714844 2.371094 -0.601563 2.726563 -0.605469 C 3.140625 -0.601563 3.492188 -0.746094 3.78125 -1.039063 C 4.066406 -1.324219 4.210938 -1.683594 4.214844 -2.117188 C 4.210938 -2.519531 4.078125 -2.855469 3.816406 -3.121094 C 3.546875 -3.382813 3.210938 -3.515625 2.800781 -3.519531 C 2.632813 -3.515625 2.421875 -3.484375 2.175781 -3.421875 L 2.273438 -4.203125 C 2.332031 -4.191406 2.378906 -4.1875 2.417969 -4.191406 C 2.792969 -4.1875 3.132813 -4.289063 3.4375 -4.488281 C 3.738281 -4.683594 3.890625 -4.984375 3.890625 -5.398438 C 3.890625 -5.71875 3.777344 -5.988281 3.558594 -6.207031 C 3.335938 -6.417969 3.054688 -6.527344 2.707031 -6.53125 C 2.363281 -6.527344 2.074219 -6.417969 1.84375 -6.203125 C 1.613281 -5.984375 1.464844 -5.660156 1.402344 -5.226563 L 0.511719 -5.386719 C 0.617188 -5.976563 0.863281 -6.4375 1.25 -6.765625 C 1.632813 -7.089844 2.113281 -7.253906 2.6875 -7.257813 C 3.082031 -7.253906 3.445313 -7.167969 3.777344 -7.003906 C 4.109375 -6.832031 4.363281 -6.601563 4.539063 -6.3125 C 4.714844 -6.015625 4.804688 -5.707031 4.804688 -5.378906 C 4.804688 -5.066406 4.71875 -4.78125 4.550781 -4.523438 C 4.382813 -4.265625 4.136719 -4.0625 3.808594 -3.914063 C 4.234375 -3.816406 4.566406 -3.609375 4.804688 -3.300781 C 5.039063 -2.988281 5.15625 -2.601563 5.160156 -2.136719 C 5.15625 -1.5 4.925781 -0.964844 4.46875 -0.527344 C 4.003906 -0.0898438 3.421875 0.128906 2.722656 0.128906 C 2.085938 0.128906 1.558594 -0.0585938 1.140625 -0.4375 C 0.71875 -0.816406 0.480469 -1.308594 0.425781 -1.910156 Z M 0.425781 -1.910156 "/></symbol><symbol overflow="visible" id="pca-glyph2-5"><path style="stroke:none;" d="M 3.265625 0 L 3.265625 -1.730469 L 0.128906 -1.730469 L 0.128906 -2.542969 L 3.425781 -7.230469 L 4.152344 -7.230469 L 4.152344 -2.542969 L 5.128906 -2.542969 L 5.128906 -1.730469 L 4.152344 -1.730469 L 4.152344 0 Z M 3.265625 -2.542969 L 3.265625 -5.804688 L 1 -2.542969 Z M 3.265625 -2.542969 "/></symbol><symbol overflow="visible" id="pca-glyph2-6"><path style="stroke:none;" d="M 5.023438 -5.460938 L 4.140625 -5.390625 C 4.058594 -5.738281 3.949219 -5.988281 3.808594 -6.148438 C 3.566406 -6.398438 3.269531 -6.527344 2.917969 -6.53125 C 2.636719 -6.527344 2.386719 -6.449219 2.175781 -6.292969 C 1.890625 -6.089844 1.671875 -5.789063 1.511719 -5.398438 C 1.351563 -5.003906 1.265625 -4.449219 1.261719 -3.726563 C 1.472656 -4.050781 1.734375 -4.292969 2.046875 -4.453125 C 2.351563 -4.609375 2.675781 -4.6875 3.019531 -4.691406 C 3.605469 -4.6875 4.109375 -4.46875 4.527344 -4.035156 C 4.941406 -3.597656 5.148438 -3.035156 5.152344 -2.347656 C 5.148438 -1.890625 5.050781 -1.46875 4.859375 -1.082031 C 4.660156 -0.691406 4.390625 -0.394531 4.050781 -0.1875 C 3.707031 0.0195313 3.320313 0.121094 2.890625 0.125 C 2.148438 0.121094 1.546875 -0.148438 1.078125 -0.691406 C 0.609375 -1.234375 0.375 -2.128906 0.378906 -3.382813 C 0.375 -4.777344 0.632813 -5.792969 1.152344 -6.429688 C 1.601563 -6.976563 2.207031 -7.253906 2.972656 -7.257813 C 3.539063 -7.253906 4.007813 -7.09375 4.371094 -6.777344 C 4.734375 -6.457031 4.949219 -6.019531 5.023438 -5.460938 Z M 1.402344 -2.34375 C 1.398438 -2.035156 1.464844 -1.742188 1.59375 -1.464844 C 1.722656 -1.183594 1.902344 -0.96875 2.140625 -0.824219 C 2.371094 -0.675781 2.617188 -0.601563 2.875 -0.605469 C 3.246094 -0.601563 3.566406 -0.753906 3.839844 -1.058594 C 4.105469 -1.359375 4.242188 -1.769531 4.246094 -2.292969 C 4.242188 -2.789063 4.109375 -3.183594 3.84375 -3.472656 C 3.578125 -3.757813 3.242188 -3.902344 2.839844 -3.90625 C 2.4375 -3.902344 2.097656 -3.757813 1.820313 -3.472656 C 1.539063 -3.183594 1.398438 -2.808594 1.402344 -2.34375 Z M 1.402344 -2.34375 "/></symbol><symbol overflow="visible" id="pca-glyph2-7"><path style="stroke:none;" d="M 4.25 -1.6875 L 5.167969 -1.574219 C 5.023438 -1.035156 4.753906 -0.617188 4.363281 -0.324219 C 3.96875 -0.0273438 3.46875 0.117188 2.867188 0.117188 C 2.09375 0.117188 1.488281 -0.117188 1.042969 -0.589844 C 0.59375 -1.058594 0.367188 -1.71875 0.371094 -2.574219 C 0.367188 -3.449219 0.59375 -4.132813 1.050781 -4.625 C 1.5 -5.109375 2.089844 -5.355469 2.816406 -5.355469 C 3.515625 -5.355469 4.085938 -5.117188 4.53125 -4.640625 C 4.972656 -4.164063 5.195313 -3.492188 5.199219 -2.628906 C 5.195313 -2.574219 5.195313 -2.496094 5.191406 -2.390625 L 1.289063 -2.390625 C 1.320313 -1.8125 1.480469 -1.371094 1.773438 -1.070313 C 2.066406 -0.761719 2.433594 -0.609375 2.871094 -0.613281 C 3.195313 -0.609375 3.472656 -0.695313 3.703125 -0.867188 C 3.933594 -1.039063 4.113281 -1.3125 4.25 -1.6875 Z M 1.335938 -3.121094 L 4.261719 -3.121094 C 4.21875 -3.558594 4.109375 -3.890625 3.925781 -4.113281 C 3.640625 -4.453125 3.273438 -4.621094 2.824219 -4.625 C 2.417969 -4.621094 2.074219 -4.484375 1.796875 -4.214844 C 1.519531 -3.941406 1.367188 -3.578125 1.335938 -3.121094 Z M 1.335938 -3.121094 "/></symbol><symbol overflow="visible" id="pca-glyph2-8"><path style="stroke:none;" d="M 2.53125 -1.167969 L 2.53125 -3.152344 L 0.5625 -3.152344 L 0.5625 -3.980469 L 2.53125 -3.980469 L 2.53125 -5.949219 L 3.367188 -5.949219 L 3.367188 -3.980469 L 5.335938 -3.980469 L 5.335938 -3.152344 L 3.367188 -3.152344 L 3.367188 -1.167969 Z M 2.53125 -1.167969 "/></symbol></g><clipPath id="pca-clip1"><path d="M 69.40625 233.265625 L 355.511719 233.265625 L 355.511719 371.125 L 69.40625 371.125 Z M 69.40625 233.265625 "/></clipPath></defs><g id="surface41"><path style="fill-rule:nonzero;fill:rgb(89.411765%,10.196078%,10.980392%);fill-opacity:1;stroke-width:1;stroke-linecap:round;stroke-linejoin:round;stroke:rgb(0%,0%,0%);stroke-opacity:1;stroke-miterlimit:10;" d="M 153.183594 97.808594 L 187.941406 97.808594 L 187.941406 109.636719 L 153.183594 109.636719 Z M 153.183594 97.808594 "/><path style="fill-rule:nonzero;fill:rgb(21.568627%,49.411765%,72.156863%);fill-opacity:1;stroke-width:1;stroke-linecap:round;stroke-linejoin:round;stroke:rgb(0%,0%,0%);stroke-opacity:1;stroke-miterlimit:10;" d="M 153.183594 109.636719 L 187.941406 109.636719 L 187.941406 121.464844 L 153.183594 121.464844 Z M 153.183594 109.636719 "/><path style="fill-rule:nonzero;fill:rgb(30.196078%,68.627451%,29.019608%);fill-opacity:1;stroke-width:1;stroke-linecap:round;stroke-linejoin:round;stroke:rgb(0%,0%,0%);stroke-opacity:1;stroke-miterlimit:10;" d="M 153.183594 121.464844 L 187.941406 121.464844 L 187.941406 133.292969 L 153.183594 133.292969 Z M 153.183594 121.464844 "/><path style="fill-rule:nonzero;fill:rgb(59.607843%,30.588235%,63.921569%);fill-opacity:1;stroke-width:1;stroke-linecap:round;stroke-linejoin:round;stroke:rgb(0%,0%,0%);stroke-opacity:1;stroke-miterlimit:10;" d="M 153.183594 133.292969 L 187.941406 133.292969 L 187.941406 145.121094 L 153.183594 145.121094 Z M 153.183594 133.292969 "/><path style="fill-rule:nonzero;fill:rgb(100%,49.803922%,0%);fill-opacity:1;stroke-width:1;stroke-linecap:round;stroke-linejoin:round;stroke:rgb(0%,0%,0%);stroke-opacity:1;stroke-miterlimit:10;" d="M 153.183594 145.121094 L 187.941406 145.121094 L 187.941406 156.949219 L 153.183594 156.949219 Z M 153.183594 145.121094 "/><path style="fill-rule:nonzero;fill:rgb(100%,100%,20%);fill-opacity:1;stroke-width:1;stroke-linecap:round;stroke-linejoin:round;stroke:rgb(0%,0%,0%);stroke-opacity:1;stroke-miterlimit:10;" d="M 153.183594 156.945313 L 187.941406 156.945313 L 187.941406 168.773438 L 153.183594 168.773438 Z M 153.183594 156.945313 "/><path style="fill-rule:nonzero;fill:rgb(65.098039%,33.72549%,15.686275%);fill-opacity:1;stroke-width:1;stroke-linecap:round;stroke-linejoin:round;stroke:rgb(0%,0%,0%);stroke-opacity:1;stroke-miterlimit:10;" d="M 153.183594 168.773438 L 187.941406 168.773438 L 187.941406 180.601563 L 153.183594 180.601563 Z M 153.183594 168.773438 "/><path style="fill-rule:nonzero;fill:rgb(96.862745%,50.588235%,74.901961%);fill-opacity:1;stroke-width:1;stroke-linecap:round;stroke-linejoin:round;stroke:rgb(0%,0%,0%);stroke-opacity:1;stroke-miterlimit:10;" d="M 153.183594 180.601563 L 187.941406 180.601563 L 187.941406 192.429688 L 153.183594 192.429688 Z M 153.183594 180.601563 "/><path style="fill-rule:nonzero;fill:rgb(60%,60%,60%);fill-opacity:1;stroke-width:1;stroke-linecap:round;stroke-linejoin:round;stroke:rgb(0%,0%,0%);stroke-opacity:1;stroke-miterlimit:10;" d="M 153.183594 192.429688 L 187.941406 192.429688 L 187.941406 204.257813 L 153.183594 204.257813 Z M 153.183594 192.429688 "/><g style="fill:rgb(0%,0%,0%);fill-opacity:1;"><use xlink:href="#pca-glyph0-0" x="201.84375" y="108.195313"/><use xlink:href="#pca-glyph0-1" x="205.31665" y="108.195313"/></g><g style="fill:rgb(0%,0%,0%);fill-opacity:1;"><use xlink:href="#pca-glyph0-0" x="201.84375" y="120.023438"/><use xlink:href="#pca-glyph0-2" x="205.31665" y="120.023438"/></g><g style="fill:rgb(0%,0%,0%);fill-opacity:1;"><use xlink:href="#pca-glyph0-0" x="201.84375" y="131.851563"/><use xlink:href="#pca-glyph0-3" x="205.31665" y="131.851563"/></g><g style="fill:rgb(0%,0%,0%);fill-opacity:1;"><use xlink:href="#pca-glyph0-0" x="201.84375" y="143.679688"/><use xlink:href="#pca-glyph0-4" x="205.31665" y="143.679688"/></g><g style="fill:rgb(0%,0%,0%);fill-opacity:1;"><use xlink:href="#pca-glyph0-0" x="201.84375" y="155.507813"/><use xlink:href="#pca-glyph0-5" x="205.31665" y="155.507813"/></g><g style="fill:rgb(0%,0%,0%);fill-opacity:1;"><use xlink:href="#pca-glyph0-0" x="201.84375" y="167.335938"/><use xlink:href="#pca-glyph0-6" x="205.31665" y="167.335938"/></g><g style="fill:rgb(0%,0%,0%);fill-opacity:1;"><use xlink:href="#pca-glyph0-0" x="201.84375" y="179.164063"/><use xlink:href="#pca-glyph0-7" x="205.31665" y="179.164063"/></g><g style="fill:rgb(0%,0%,0%);fill-opacity:1;"><use xlink:href="#pca-glyph0-0" x="201.84375" y="190.988281"/><use xlink:href="#pca-glyph0-8" x="205.31665" y="190.988281"/></g><g style="fill:rgb(0%,0%,0%);fill-opacity:1;"><use xlink:href="#pca-glyph0-9" x="201.84375" y="202.816406"/><use xlink:href="#pca-glyph0-10" x="208.795654" y="202.816406"/><use xlink:href="#pca-glyph0-11" x="212.268555" y="202.816406"/><use xlink:href="#pca-glyph0-12" x="219.220459" y="202.816406"/><use xlink:href="#pca-glyph0-13" x="226.172363" y="202.816406"/></g><g style="fill:rgb(0%,0%,0%);fill-opacity:1;"><use xlink:href="#pca-glyph0-14" x="199.800781" y="409.3125"/><use xlink:href="#pca-glyph0-15" x="208.138184" y="409.3125"/><use xlink:href="#pca-glyph0-1" x="217.165283" y="409.3125"/></g><g style="fill:rgb(0%,0%,0%);fill-opacity:1;"><use xlink:href="#pca-glyph1-0" x="14.949219" y="313.851563"/><use xlink:href="#pca-glyph1-1" x="14.949219" y="305.51416"/><use xlink:href="#pca-glyph1-2" x="14.949219" y="296.487061"/></g><path style="fill:none;stroke-width:1;stroke-linecap:round;stroke-linejoin:round;stroke:rgb(0%,0%,0%);stroke-opacity:1;stroke-miterlimit:10;" d="M 70.257813 233.265625 L 70.257813 227.597656 "/><path style="fill:none;stroke-width:1;stroke-linecap:round;stroke-linejoin:round;stroke:rgb(0%,0%,0%);stroke-opacity:1;stroke-miterlimit:10;" d="M 112.960938 233.265625 L 112.960938 227.597656 "/><path style="fill:none;stroke-width:1;stroke-linecap:round;stroke-linejoin:round;stroke:rgb(0%,0%,0%);stroke-opacity:1;stroke-miterlimit:10;" d="M 155.664063 233.265625 L 155.664063 227.597656 "/><path style="fill:none;stroke-width:1;stroke-linecap:round;stroke-linejoin:round;stroke:rgb(0%,0%,0%);stroke-opacity:1;stroke-miterlimit:10;" d="M 198.363281 233.265625 L 198.363281 227.597656 "/><path style="fill:none;stroke-width:1;stroke-linecap:round;stroke-linejoin:round;stroke:rgb(0%,0%,0%);stroke-opacity:1;stroke-miterlimit:10;" d="M 241.066406 233.265625 L 241.066406 227.597656 "/><path style="fill:none;stroke-width:1;stroke-linecap:round;stroke-linejoin:round;stroke:rgb(0%,0%,0%);stroke-opacity:1;stroke-miterlimit:10;" d="M 283.769531 233.265625 L 283.769531 227.597656 "/><path style="fill:none;stroke-width:1;stroke-linecap:round;stroke-linejoin:round;stroke:rgb(0%,0%,0%);stroke-opacity:1;stroke-miterlimit:10;" d="M 326.472656 233.265625 L 326.472656 227.597656 "/><path style="fill:none;stroke-width:1;stroke-linecap:round;stroke-linejoin:round;stroke:rgb(0%,0%,0%);stroke-opacity:1;stroke-miterlimit:10;" d="M 69.40625 364.40625 L 63.734375 364.40625 "/><path style="fill:none;stroke-width:1;stroke-linecap:round;stroke-linejoin:round;stroke:rgb(0%,0%,0%);stroke-opacity:1;stroke-miterlimit:10;" d="M 69.40625 343.054688 L 63.734375 343.054688 "/><path style="fill:none;stroke-width:1;stroke-linecap:round;stroke-linejoin:round;stroke:rgb(0%,0%,0%);stroke-opacity:1;stroke-miterlimit:10;" d="M 69.40625 321.703125 L 63.734375 321.703125 "/><path style="fill:none;stroke-width:1;stroke-linecap:round;stroke-linejoin:round;stroke:rgb(0%,0%,0%);stroke-opacity:1;stroke-miterlimit:10;" d="M 69.40625 300.351563 L 63.734375 300.351563 "/><path style="fill:none;stroke-width:1;stroke-linecap:round;stroke-linejoin:round;stroke:rgb(0%,0%,0%);stroke-opacity:1;stroke-miterlimit:10;" d="M 69.40625 279 L 63.734375 279 "/><path style="fill:none;stroke-width:1;stroke-linecap:round;stroke-linejoin:round;stroke:rgb(0%,0%,0%);stroke-opacity:1;stroke-miterlimit:10;" d="M 69.40625 257.648438 L 63.734375 257.648438 "/><path style="fill:none;stroke-width:1;stroke-linecap:round;stroke-linejoin:round;stroke:rgb(0%,0%,0%);stroke-opacity:1;stroke-miterlimit:10;" d="M 69.40625 236.296875 L 63.734375 236.296875 "/><g style="fill:rgb(0%,0%,0%);fill-opacity:1;"><use xlink:href="#pca-glyph2-0" x="26.617188" y="368.019531"/><use xlink:href="#pca-glyph2-1" x="29.980566" y="368.019531"/><use xlink:href="#pca-glyph2-2" x="35.597705" y="368.019531"/><use xlink:href="#pca-glyph2-2" x="41.214844" y="368.019531"/><use xlink:href="#pca-glyph2-2" x="46.831982" y="368.019531"/><use xlink:href="#pca-glyph2-2" x="52.449121" y="368.019531"/></g><g style="fill:rgb(0%,0%,0%);fill-opacity:1;"><use xlink:href="#pca-glyph2-0" x="26.617188" y="346.667969"/><use xlink:href="#pca-glyph2-3" x="29.980566" y="346.667969"/><use xlink:href="#pca-glyph2-2" x="35.597705" y="346.667969"/><use xlink:href="#pca-glyph2-2" x="41.214844" y="346.667969"/><use xlink:href="#pca-glyph2-2" x="46.831982" y="346.667969"/><use xlink:href="#pca-glyph2-2" x="52.449121" y="346.667969"/></g><g style="fill:rgb(0%,0%,0%);fill-opacity:1;"><use xlink:href="#pca-glyph2-2" x="52.449219" y="325.316406"/></g><g style="fill:rgb(0%,0%,0%);fill-opacity:1;"><use xlink:href="#pca-glyph2-3" x="29.980469" y="303.96875"/><use xlink:href="#pca-glyph2-2" x="35.597607" y="303.96875"/><use xlink:href="#pca-glyph2-2" x="41.214746" y="303.96875"/><use xlink:href="#pca-glyph2-2" x="46.831885" y="303.96875"/><use xlink:href="#pca-glyph2-2" x="52.449023" y="303.96875"/></g><g style="fill:rgb(0%,0%,0%);fill-opacity:1;"><use xlink:href="#pca-glyph2-1" x="29.980469" y="282.617188"/><use xlink:href="#pca-glyph2-2" x="35.597607" y="282.617188"/><use xlink:href="#pca-glyph2-2" x="41.214746" y="282.617188"/><use xlink:href="#pca-glyph2-2" x="46.831885" y="282.617188"/><use xlink:href="#pca-glyph2-2" x="52.449023" y="282.617188"/></g><g style="fill:rgb(0%,0%,0%);fill-opacity:1;"><use xlink:href="#pca-glyph2-4" x="29.980469" y="261.265625"/><use xlink:href="#pca-glyph2-2" x="35.597607" y="261.265625"/><use xlink:href="#pca-glyph2-2" x="41.214746" y="261.265625"/><use xlink:href="#pca-glyph2-2" x="46.831885" y="261.265625"/><use xlink:href="#pca-glyph2-2" x="52.449023" y="261.265625"/></g><g style="fill:rgb(0%,0%,0%);fill-opacity:1;"><use xlink:href="#pca-glyph2-5" x="29.980469" y="239.914063"/><use xlink:href="#pca-glyph2-2" x="35.597607" y="239.914063"/><use xlink:href="#pca-glyph2-2" x="41.214746" y="239.914063"/><use xlink:href="#pca-glyph2-2" x="46.831885" y="239.914063"/><use xlink:href="#pca-glyph2-2" x="52.449023" y="239.914063"/></g><path style="fill:none;stroke-width:1;stroke-linecap:round;stroke-linejoin:round;stroke:rgb(0%,0%,0%);stroke-opacity:1;stroke-miterlimit:10;" d="M 70.257813 370.125 L 70.257813 375.792969 "/><path style="fill:none;stroke-width:1;stroke-linecap:round;stroke-linejoin:round;stroke:rgb(0%,0%,0%);stroke-opacity:1;stroke-miterlimit:10;" d="M 112.960938 370.125 L 112.960938 375.792969 "/><path style="fill:none;stroke-width:1;stroke-linecap:round;stroke-linejoin:round;stroke:rgb(0%,0%,0%);stroke-opacity:1;stroke-miterlimit:10;" d="M 155.664063 370.125 L 155.664063 375.792969 "/><path style="fill:none;stroke-width:1;stroke-linecap:round;stroke-linejoin:round;stroke:rgb(0%,0%,0%);stroke-opacity:1;stroke-miterlimit:10;" d="M 198.363281 370.125 L 198.363281 375.792969 "/><path style="fill:none;stroke-width:1;stroke-linecap:round;stroke-linejoin:round;stroke:rgb(0%,0%,0%);stroke-opacity:1;stroke-miterlimit:10;" d="M 241.066406 370.125 L 241.066406 375.792969 "/><path style="fill:none;stroke-width:1;stroke-linecap:round;stroke-linejoin:round;stroke:rgb(0%,0%,0%);stroke-opacity:1;stroke-miterlimit:10;" d="M 283.769531 370.125 L 283.769531 375.792969 "/><path style="fill:none;stroke-width:1;stroke-linecap:round;stroke-linejoin:round;stroke:rgb(0%,0%,0%);stroke-opacity:1;stroke-miterlimit:10;" d="M 326.472656 370.125 L 326.472656 375.792969 "/><g style="fill:rgb(0%,0%,0%);fill-opacity:1;"><use xlink:href="#pca-glyph2-0" x="97.097656" y="388.695313"/><use xlink:href="#pca-glyph2-6" x="100.461035" y="388.695313"/><use xlink:href="#pca-glyph2-7" x="106.078174" y="388.695313"/><use xlink:href="#pca-glyph2-8" x="111.695313" y="388.695313"/><use xlink:href="#pca-glyph2-2" x="117.593555" y="388.695313"/><use xlink:href="#pca-glyph2-5" x="123.210693" y="388.695313"/></g><g style="fill:rgb(0%,0%,0%);fill-opacity:1;"><use xlink:href="#pca-glyph2-0" x="139.800781" y="388.695313"/><use xlink:href="#pca-glyph2-5" x="143.16416" y="388.695313"/><use xlink:href="#pca-glyph2-7" x="148.781299" y="388.695313"/><use xlink:href="#pca-glyph2-8" x="154.398438" y="388.695313"/><use xlink:href="#pca-glyph2-2" x="160.29668" y="388.695313"/><use xlink:href="#pca-glyph2-5" x="165.913818" y="388.695313"/></g><g style="fill:rgb(0%,0%,0%);fill-opacity:1;"><use xlink:href="#pca-glyph2-0" x="182.5" y="388.695313"/><use xlink:href="#pca-glyph2-1" x="185.863379" y="388.695313"/><use xlink:href="#pca-glyph2-7" x="191.480518" y="388.695313"/><use xlink:href="#pca-glyph2-8" x="197.097656" y="388.695313"/><use xlink:href="#pca-glyph2-2" x="202.995898" y="388.695313"/><use xlink:href="#pca-glyph2-5" x="208.613037" y="388.695313"/></g><g style="fill:rgb(0%,0%,0%);fill-opacity:1;"><use xlink:href="#pca-glyph2-2" x="226.882813" y="388.695313"/><use xlink:href="#pca-glyph2-7" x="232.499951" y="388.695313"/><use xlink:href="#pca-glyph2-8" x="238.11709" y="388.695313"/><use xlink:href="#pca-glyph2-2" x="244.015332" y="388.695313"/><use xlink:href="#pca-glyph2-2" x="249.632471" y="388.695313"/></g><g style="fill:rgb(0%,0%,0%);fill-opacity:1;"><use xlink:href="#pca-glyph2-1" x="269.585938" y="388.695313"/><use xlink:href="#pca-glyph2-7" x="275.203076" y="388.695313"/><use xlink:href="#pca-glyph2-8" x="280.820215" y="388.695313"/><use xlink:href="#pca-glyph2-2" x="286.718457" y="388.695313"/><use xlink:href="#pca-glyph2-5" x="292.335596" y="388.695313"/></g><g style="fill:rgb(0%,0%,0%);fill-opacity:1;"><use xlink:href="#pca-glyph2-5" x="312.289063" y="388.695313"/><use xlink:href="#pca-glyph2-7" x="317.906201" y="388.695313"/><use xlink:href="#pca-glyph2-8" x="323.52334" y="388.695313"/><use xlink:href="#pca-glyph2-2" x="329.421582" y="388.695313"/><use xlink:href="#pca-glyph2-5" x="335.038721" y="388.695313"/></g><path style="fill:none;stroke-width:1;stroke-linecap:round;stroke-linejoin:round;stroke:rgb(0%,0%,0%);stroke-opacity:1;stroke-miterlimit:10;" d="M 354.511719 364.40625 L 360.179688 364.40625 "/><path style="fill:none;stroke-width:1;stroke-linecap:round;stroke-linejoin:round;stroke:rgb(0%,0%,0%);stroke-opacity:1;stroke-miterlimit:10;" d="M 354.511719 343.054688 L 360.179688 343.054688 "/><path style="fill:none;stroke-width:1;stroke-linecap:round;stroke-linejoin:round;stroke:rgb(0%,0%,0%);stroke-opacity:1;stroke-miterlimit:10;" d="M 354.511719 321.703125 L 360.179688 321.703125 "/><path style="fill:none;stroke-width:1;stroke-linecap:round;stroke-linejoin:round;stroke:rgb(0%,0%,0%);stroke-opacity:1;stroke-miterlimit:10;" d="M 354.511719 300.351563 L 360.179688 300.351563 "/><path style="fill:none;stroke-width:1;stroke-linecap:round;stroke-linejoin:round;stroke:rgb(0%,0%,0%);stroke-opacity:1;stroke-miterlimit:10;" d="M 354.511719 279 L 360.179688 279 "/><path style="fill:none;stroke-width:1;stroke-linecap:round;stroke-linejoin:round;stroke:rgb(0%,0%,0%);stroke-opacity:1;stroke-miterlimit:10;" d="M 354.511719 257.648438 L 360.179688 257.648438 "/><path style="fill:none;stroke-width:1;stroke-linecap:round;stroke-linejoin:round;stroke:rgb(0%,0%,0%);stroke-opacity:1;stroke-miterlimit:10;" d="M 354.511719 236.296875 L 360.179688 236.296875 "/><g clip-path="url(#pca-clip1)" clip-rule="nonzero" type="plot-region" class="plot-region"><path d="M 206.066406 329.015625 C 206.066406 333.683594 199.066406 333.683594 199.066406 329.015625 C 199.066406 324.347656 206.066406 324.347656 206.066406 329.015625 " type="plot-point" class="aqm1" onclick="plotObjRespond('click', 1, 'pca')" onmouseover="plotObjRespond('show', 1, 'pca')" onmouseout="plotObjRespond('hide', 1, 'pca')" fill-rule="nonzero" fill="rgb(89.411765%,10.196078%,10.980392%)" fill-opacity="1" stroke-width="1" stroke-linecap="round" stroke-linejoin="round" stroke="rgb(89.411765%,10.196078%,10.980392%)" stroke-opacity="1" stroke-miterlimit="10"/><path d="M 235.414063 302.589844 C 235.414063 307.253906 228.414063 307.253906 228.414063 302.589844 C 228.414063 297.921875 235.414063 297.921875 235.414063 302.589844 " type="plot-point" class="aqm2" onclick="plotObjRespond('click', 2, 'pca')" onmouseover="plotObjRespond('show', 2, 'pca')" onmouseout="plotObjRespond('hide', 2, 'pca')" fill-rule="nonzero" fill="rgb(89.411765%,10.196078%,10.980392%)" fill-opacity="1" stroke-width="1" stroke-linecap="round" stroke-linejoin="round" stroke="rgb(89.411765%,10.196078%,10.980392%)" stroke-opacity="1" stroke-miterlimit="10"/><path d="M 204.152344 292.894531 C 204.152344 297.5625 197.152344 297.5625 197.152344 292.894531 C 197.152344 288.226563 204.152344 288.226563 204.152344 292.894531 " type="plot-point" class="aqm3" onclick="plotObjRespond('click', 3, 'pca')" onmouseover="plotObjRespond('show', 3, 'pca')" onmouseout="plotObjRespond('hide', 3, 'pca')" fill-rule="nonzero" fill="rgb(89.411765%,10.196078%,10.980392%)" fill-opacity="1" stroke-width="1" stroke-linecap="round" stroke-linejoin="round" stroke="rgb(89.411765%,10.196078%,10.980392%)" stroke-opacity="1" stroke-miterlimit="10"/><path d="M 340.503906 325.191406 C 340.503906 329.859375 333.503906 329.859375 333.503906 325.191406 C 333.503906 320.527344 340.503906 320.527344 340.503906 325.191406 " type="plot-point" class="aqm4" onclick="plotObjRespond('click', 4, 'pca')" onmouseover="plotObjRespond('show', 4, 'pca')" onmouseout="plotObjRespond('hide', 4, 'pca')" fill-rule="nonzero" fill="rgb(89.411765%,10.196078%,10.980392%)" fill-opacity="1" stroke-width="1" stroke-linecap="round" stroke-linejoin="round" stroke="rgb(89.411765%,10.196078%,10.980392%)" stroke-opacity="1" stroke-miterlimit="10"/><path d="M 253.992188 335.984375 C 253.992188 340.652344 246.992188 340.652344 246.992188 335.984375 C 246.992188 331.320313 253.992188 331.320313 253.992188 335.984375 " type="plot-point" class="aqm5" onclick="plotObjRespond('click', 5, 'pca')" onmouseover="plotObjRespond('show', 5, 'pca')" onmouseout="plotObjRespond('hide', 5, 'pca')" fill-rule="nonzero" fill="rgb(21.568627%,49.411765%,72.156863%)" fill-opacity="1" stroke-width="1" stroke-linecap="round" stroke-linejoin="round" stroke="rgb(21.568627%,49.411765%,72.156863%)" stroke-opacity="1" stroke-miterlimit="10"/><path d="M 328.335938 326.046875 C 328.335938 330.714844 321.335938 330.714844 321.335938 326.046875 C 321.335938 321.382813 328.335938 321.382813 328.335938 326.046875 " type="plot-point" class="aqm6" onclick="plotObjRespond('click', 6, 'pca')" onmouseover="plotObjRespond('show', 6, 'pca')" onmouseout="plotObjRespond('hide', 6, 'pca')" fill-rule="nonzero" fill="rgb(21.568627%,49.411765%,72.156863%)" fill-opacity="1" stroke-width="1" stroke-linecap="round" stroke-linejoin="round" stroke="rgb(21.568627%,49.411765%,72.156863%)" stroke-opacity="1" stroke-miterlimit="10"/><path d="M 286.917969 320.066406 C 286.917969 324.730469 279.917969 324.730469 279.917969 320.066406 C 279.917969 315.398438 286.917969 315.398438 286.917969 320.066406 " type="plot-point" class="aqm7" onclick="plotObjRespond('click', 7, 'pca')" onmouseover="plotObjRespond('show', 7, 'pca')" onmouseout="plotObjRespond('hide', 7, 'pca')" fill-rule="nonzero" fill="rgb(21.568627%,49.411765%,72.156863%)" fill-opacity="1" stroke-width="1" stroke-linecap="round" stroke-linejoin="round" stroke="rgb(21.568627%,49.411765%,72.156863%)" stroke-opacity="1" stroke-miterlimit="10"/><path d="M 252.171875 323.332031 C 252.171875 328 245.171875 328 245.171875 323.332031 C 245.171875 318.664063 252.171875 318.664063 252.171875 323.332031 " type="plot-point" class="aqm8" onclick="plotObjRespond('click', 8, 'pca')" onmouseover="plotObjRespond('show', 8, 'pca')" onmouseout="plotObjRespond('hide', 8, 'pca')" fill-rule="nonzero" fill="rgb(21.568627%,49.411765%,72.156863%)" fill-opacity="1" stroke-width="1" stroke-linecap="round" stroke-linejoin="round" stroke="rgb(21.568627%,49.411765%,72.156863%)" stroke-opacity="1" stroke-miterlimit="10"/><path d="M 175.199219 325.074219 C 175.199219 329.742188 168.199219 329.742188 168.199219 325.074219 C 168.199219 320.40625 175.199219 320.40625 175.199219 325.074219 " type="plot-point" class="aqm9" onclick="plotObjRespond('click', 9, 'pca')" onmouseover="plotObjRespond('show', 9, 'pca')" onmouseout="plotObjRespond('hide', 9, 'pca')" fill-rule="nonzero" fill="rgb(30.196078%,68.627451%,29.019608%)" fill-opacity="1" stroke-width="1" stroke-linecap="round" stroke-linejoin="round" stroke="rgb(30.196078%,68.627451%,29.019608%)" stroke-opacity="1" stroke-miterlimit="10"/><path d="M 107.425781 241.667969 C 107.425781 246.335938 100.425781 246.335938 100.425781 241.667969 C 100.425781 237.003906 107.425781 237.003906 107.425781 241.667969 " type="plot-point" class="aqm10" onclick="plotObjRespond('click', 10, 'pca')" onmouseover="plotObjRespond('show', 10, 'pca')" onmouseout="plotObjRespond('hide', 10, 'pca')" fill-rule="nonzero" fill="rgb(30.196078%,68.627451%,29.019608%)" fill-opacity="1" stroke-width="1" stroke-linecap="round" stroke-linejoin="round" stroke="rgb(30.196078%,68.627451%,29.019608%)" stroke-opacity="1" stroke-miterlimit="10"/><path d="M 309.4375 316.511719 C 309.4375 321.175781 302.4375 321.175781 302.4375 316.511719 C 302.4375 311.84375 309.4375 311.84375 309.4375 316.511719 " type="plot-point" class="aqm11" onclick="plotObjRespond('click', 11, 'pca')" onmouseover="plotObjRespond('show', 11, 'pca')" onmouseout="plotObjRespond('hide', 11, 'pca')" fill-rule="nonzero" fill="rgb(30.196078%,68.627451%,29.019608%)" fill-opacity="1" stroke-width="1" stroke-linecap="round" stroke-linejoin="round" stroke="rgb(30.196078%,68.627451%,29.019608%)" stroke-opacity="1" stroke-miterlimit="10"/><path d="M 327.25 320.808594 C 327.25 325.472656 320.25 325.472656 320.25 320.808594 C 320.25 316.140625 327.25 316.140625 327.25 320.808594 " type="plot-point" class="aqm12" onclick="plotObjRespond('click', 12, 'pca')" onmouseover="plotObjRespond('show', 12, 'pca')" onmouseout="plotObjRespond('hide', 12, 'pca')" fill-rule="nonzero" fill="rgb(30.196078%,68.627451%,29.019608%)" fill-opacity="1" stroke-width="1" stroke-linecap="round" stroke-linejoin="round" stroke="rgb(30.196078%,68.627451%,29.019608%)" stroke-opacity="1" stroke-miterlimit="10"/><path d="M 181.910156 332.007813 C 181.910156 336.675781 174.910156 336.675781 174.910156 332.007813 C 174.910156 327.339844 181.910156 327.339844 181.910156 332.007813 " type="plot-point" class="aqm13" onclick="plotObjRespond('click', 13, 'pca')" onmouseover="plotObjRespond('show', 13, 'pca')" onmouseout="plotObjRespond('hide', 13, 'pca')" fill-rule="nonzero" fill="rgb(59.607843%,30.588235%,63.921569%)" fill-opacity="1" stroke-width="1" stroke-linecap="round" stroke-linejoin="round" stroke="rgb(59.607843%,30.588235%,63.921569%)" stroke-opacity="1" stroke-miterlimit="10"/><path d="M 284.328125 324.789063 C 284.328125 329.457031 277.328125 329.457031 277.328125 324.789063 C 277.328125 320.125 284.328125 320.125 284.328125 324.789063 " type="plot-point" class="aqm14" onclick="plotObjRespond('click', 14, 'pca')" onmouseover="plotObjRespond('show', 14, 'pca')" onmouseout="plotObjRespond('hide', 14, 'pca')" fill-rule="nonzero" fill="rgb(59.607843%,30.588235%,63.921569%)" fill-opacity="1" stroke-width="1" stroke-linecap="round" stroke-linejoin="round" stroke="rgb(59.607843%,30.588235%,63.921569%)" stroke-opacity="1" stroke-miterlimit="10"/><path d="M 281.46875 325.15625 C 281.46875 329.824219 274.46875 329.824219 274.46875 325.15625 C 274.46875 320.488281 281.46875 320.488281 281.46875 325.15625 " type="plot-point" class="aqm15" onclick="plotObjRespond('click', 15, 'pca')" onmouseover="plotObjRespond('show', 15, 'pca')" onmouseout="plotObjRespond('hide', 15, 'pca')" fill-rule="nonzero" fill="rgb(59.607843%,30.588235%,63.921569%)" fill-opacity="1" stroke-width="1" stroke-linecap="round" stroke-linejoin="round" stroke="rgb(59.607843%,30.588235%,63.921569%)" stroke-opacity="1" stroke-miterlimit="10"/><path d="M 323.332031 325.761719 C 323.332031 330.429688 316.332031 330.429688 316.332031 325.761719 C 316.332031 321.09375 323.332031 321.09375 323.332031 325.761719 " type="plot-point" class="aqm16" onclick="plotObjRespond('click', 16, 'pca')" onmouseover="plotObjRespond('show', 16, 'pca')" onmouseout="plotObjRespond('hide', 16, 'pca')" fill-rule="nonzero" fill="rgb(59.607843%,30.588235%,63.921569%)" fill-opacity="1" stroke-width="1" stroke-linecap="round" stroke-linejoin="round" stroke="rgb(59.607843%,30.588235%,63.921569%)" stroke-opacity="1" stroke-miterlimit="10"/><path d="M 90.410156 329.515625 C 90.410156 334.183594 83.410156 334.183594 83.410156 329.515625 C 83.410156 324.851563 90.410156 324.851563 90.410156 329.515625 " type="plot-point" class="aqm17" onclick="plotObjRespond('click', 17, 'pca')" onmouseover="plotObjRespond('show', 17, 'pca')" onmouseout="plotObjRespond('hide', 17, 'pca')" fill-rule="nonzero" fill="rgb(100%,49.803922%,0%)" fill-opacity="1" stroke-width="1" stroke-linecap="round" stroke-linejoin="round" stroke="rgb(100%,49.803922%,0%)" stroke-opacity="1" stroke-miterlimit="10"/><path d="M 219.632813 300.652344 C 219.632813 305.316406 212.632813 305.316406 212.632813 300.652344 C 212.632813 295.984375 219.632813 295.984375 219.632813 300.652344 " type="plot-point" class="aqm18" onclick="plotObjRespond('click', 18, 'pca')" onmouseover="plotObjRespond('show', 18, 'pca')" onmouseout="plotObjRespond('hide', 18, 'pca')" fill-rule="nonzero" fill="rgb(100%,49.803922%,0%)" fill-opacity="1" stroke-width="1" stroke-linecap="round" stroke-linejoin="round" stroke="rgb(100%,49.803922%,0%)" stroke-opacity="1" stroke-miterlimit="10"/><path d="M 280.296875 315.402344 C 280.296875 320.070313 273.296875 320.070313 273.296875 315.402344 C 273.296875 310.734375 280.296875 310.734375 280.296875 315.402344 " type="plot-point" class="aqm19" onclick="plotObjRespond('click', 19, 'pca')" onmouseover="plotObjRespond('show', 19, 'pca')" onmouseout="plotObjRespond('hide', 19, 'pca')" fill-rule="nonzero" fill="rgb(100%,49.803922%,0%)" fill-opacity="1" stroke-width="1" stroke-linecap="round" stroke-linejoin="round" stroke="rgb(100%,49.803922%,0%)" stroke-opacity="1" stroke-miterlimit="10"/><path d="M 306.957031 321.335938 C 306.957031 326.003906 299.957031 326.003906 299.957031 321.335938 C 299.957031 316.671875 306.957031 316.671875 306.957031 321.335938 " type="plot-point" class="aqm20" onclick="plotObjRespond('click', 20, 'pca')" onmouseover="plotObjRespond('show', 20, 'pca')" onmouseout="plotObjRespond('hide', 20, 'pca')" fill-rule="nonzero" fill="rgb(100%,49.803922%,0%)" fill-opacity="1" stroke-width="1" stroke-linecap="round" stroke-linejoin="round" stroke="rgb(100%,49.803922%,0%)" stroke-opacity="1" stroke-miterlimit="10"/><path d="M 221.523438 331.789063 C 221.523438 336.453125 214.523438 336.453125 214.523438 331.789063 C 214.523438 327.121094 221.523438 327.121094 221.523438 331.789063 " type="plot-point" class="aqm21" onclick="plotObjRespond('click', 21, 'pca')" onmouseover="plotObjRespond('show', 21, 'pca')" onmouseout="plotObjRespond('hide', 21, 'pca')" fill-rule="nonzero" fill="rgb(100%,100%,20%)" fill-opacity="1" stroke-width="1" stroke-linecap="round" stroke-linejoin="round" stroke="rgb(100%,100%,20%)" stroke-opacity="1" stroke-miterlimit="10"/><path d="M 280.773438 306.417969 C 280.773438 311.085938 273.773438 311.085938 273.773438 306.417969 C 273.773438 301.753906 280.773438 301.753906 280.773438 306.417969 " type="plot-point" class="aqm22" onclick="plotObjRespond('click', 22, 'pca')" onmouseover="plotObjRespond('show', 22, 'pca')" onmouseout="plotObjRespond('hide', 22, 'pca')" fill-rule="nonzero" fill="rgb(100%,100%,20%)" fill-opacity="1" stroke-width="1" stroke-linecap="round" stroke-linejoin="round" stroke="rgb(100%,100%,20%)" stroke-opacity="1" stroke-miterlimit="10"/><path d="M 304.148438 318.992188 C 304.148438 323.660156 297.148438 323.660156 297.148438 318.992188 C 297.148438 314.328125 304.148438 314.328125 304.148438 318.992188 " type="plot-point" class="aqm23" onclick="plotObjRespond('click', 23, 'pca')" onmouseover="plotObjRespond('show', 23, 'pca')" onmouseout="plotObjRespond('hide', 23, 'pca')" fill-rule="nonzero" fill="rgb(100%,100%,20%)" fill-opacity="1" stroke-width="1" stroke-linecap="round" stroke-linejoin="round" stroke="rgb(100%,100%,20%)" stroke-opacity="1" stroke-miterlimit="10"/><path d="M 324.488281 323.078125 C 324.488281 327.746094 317.488281 327.746094 317.488281 323.078125 C 317.488281 318.410156 324.488281 318.410156 324.488281 323.078125 " type="plot-point" class="aqm24" onclick="plotObjRespond('click', 24, 'pca')" onmouseover="plotObjRespond('show', 24, 'pca')" onmouseout="plotObjRespond('hide', 24, 'pca')" fill-rule="nonzero" fill="rgb(100%,100%,20%)" fill-opacity="1" stroke-width="1" stroke-linecap="round" stroke-linejoin="round" stroke="rgb(100%,100%,20%)" stroke-opacity="1" stroke-miterlimit="10"/><path d="M 162.363281 314.941406 C 162.363281 319.605469 155.363281 319.605469 155.363281 314.941406 C 155.363281 310.273438 162.363281 310.273438 162.363281 314.941406 " type="plot-point" class="aqm25" onclick="plotObjRespond('click', 25, 'pca')" onmouseover="plotObjRespond('show', 25, 'pca')" onmouseout="plotObjRespond('hide', 25, 'pca')" fill-rule="nonzero" fill="rgb(65.098039%,33.72549%,15.686275%)" fill-opacity="1" stroke-width="1" stroke-linecap="round" stroke-linejoin="round" stroke="rgb(65.098039%,33.72549%,15.686275%)" stroke-opacity="1" stroke-miterlimit="10"/><path d="M 214.359375 299.960938 C 214.359375 304.625 207.359375 304.625 207.359375 299.960938 C 207.359375 295.292969 214.359375 295.292969 214.359375 299.960938 " type="plot-point" class="aqm26" onclick="plotObjRespond('click', 26, 'pca')" onmouseover="plotObjRespond('show', 26, 'pca')" onmouseout="plotObjRespond('hide', 26, 'pca')" fill-rule="nonzero" fill="rgb(65.098039%,33.72549%,15.686275%)" fill-opacity="1" stroke-width="1" stroke-linecap="round" stroke-linejoin="round" stroke="rgb(65.098039%,33.72549%,15.686275%)" stroke-opacity="1" stroke-miterlimit="10"/><path d="M 202.5625 303.847656 C 202.5625 308.511719 195.5625 308.511719 195.5625 303.847656 C 195.5625 299.179688 202.5625 299.179688 202.5625 303.847656 " type="plot-point" class="aqm27" onclick="plotObjRespond('click', 27, 'pca')" onmouseover="plotObjRespond('show', 27, 'pca')" onmouseout="plotObjRespond('hide', 27, 'pca')" fill-rule="nonzero" fill="rgb(65.098039%,33.72549%,15.686275%)" fill-opacity="1" stroke-width="1" stroke-linecap="round" stroke-linejoin="round" stroke="rgb(65.098039%,33.72549%,15.686275%)" stroke-opacity="1" stroke-miterlimit="10"/><path d="M 276.023438 315.101563 C 276.023438 319.765625 269.023438 319.765625 269.023438 315.101563 C 269.023438 310.433594 276.023438 310.433594 276.023438 315.101563 " type="plot-point" class="aqm28" onclick="plotObjRespond('click', 28, 'pca')" onmouseover="plotObjRespond('show', 28, 'pca')" onmouseout="plotObjRespond('hide', 28, 'pca')" fill-rule="nonzero" fill="rgb(65.098039%,33.72549%,15.686275%)" fill-opacity="1" stroke-width="1" stroke-linecap="round" stroke-linejoin="round" stroke="rgb(65.098039%,33.72549%,15.686275%)" stroke-opacity="1" stroke-miterlimit="10"/><path d="M 185.636719 337.742188 C 185.636719 342.40625 178.636719 342.40625 178.636719 337.742188 C 178.636719 333.074219 185.636719 333.074219 185.636719 337.742188 " type="plot-point" class="aqm29" onclick="plotObjRespond('click', 29, 'pca')" onmouseover="plotObjRespond('show', 29, 'pca')" onmouseout="plotObjRespond('hide', 29, 'pca')" fill-rule="nonzero" fill="rgb(96.862745%,50.588235%,74.901961%)" fill-opacity="1" stroke-width="1" stroke-linecap="round" stroke-linejoin="round" stroke="rgb(96.862745%,50.588235%,74.901961%)" stroke-opacity="1" stroke-miterlimit="10"/><path d="M 263.605469 318.121094 C 263.605469 322.789063 256.605469 322.789063 256.605469 318.121094 C 256.605469 313.453125 263.605469 313.453125 263.605469 318.121094 " type="plot-point" class="aqm30" onclick="plotObjRespond('click', 30, 'pca')" onmouseover="plotObjRespond('show', 30, 'pca')" onmouseout="plotObjRespond('hide', 30, 'pca')" fill-rule="nonzero" fill="rgb(96.862745%,50.588235%,74.901961%)" fill-opacity="1" stroke-width="1" stroke-linecap="round" stroke-linejoin="round" stroke="rgb(96.862745%,50.588235%,74.901961%)" stroke-opacity="1" stroke-miterlimit="10"/><path d="M 263.527344 310.09375 C 263.527344 314.761719 256.527344 314.761719 256.527344 310.09375 C 256.527344 305.429688 263.527344 305.429688 263.527344 310.09375 " type="plot-point" class="aqm31" onclick="plotObjRespond('click', 31, 'pca')" onmouseover="plotObjRespond('show', 31, 'pca')" onmouseout="plotObjRespond('hide', 31, 'pca')" fill-rule="nonzero" fill="rgb(96.862745%,50.588235%,74.901961%)" fill-opacity="1" stroke-width="1" stroke-linecap="round" stroke-linejoin="round" stroke="rgb(96.862745%,50.588235%,74.901961%)" stroke-opacity="1" stroke-miterlimit="10"/><path d="M 327.933594 321.527344 C 327.933594 326.195313 320.933594 326.195313 320.933594 321.527344 C 320.933594 316.863281 327.933594 316.863281 327.933594 321.527344 " type="plot-point" class="aqm32" onclick="plotObjRespond('click', 32, 'pca')" onmouseover="plotObjRespond('show', 32, 'pca')" onmouseout="plotObjRespond('hide', 32, 'pca')" fill-rule="nonzero" fill="rgb(96.862745%,50.588235%,74.901961%)" fill-opacity="1" stroke-width="1" stroke-linecap="round" stroke-linejoin="round" stroke="rgb(96.862745%,50.588235%,74.901961%)" stroke-opacity="1" stroke-miterlimit="10"/><path d="M 153.789063 340.105469 C 153.789063 344.773438 146.789063 344.773438 146.789063 340.105469 C 146.789063 335.4375 153.789063 335.4375 153.789063 340.105469 " type="plot-point" class="aqm33" onclick="plotObjRespond('click', 33, 'pca')" onmouseover="plotObjRespond('show', 33, 'pca')" onmouseout="plotObjRespond('hide', 33, 'pca')" fill-rule="nonzero" fill="rgb(60%,60%,60%)" fill-opacity="1" stroke-width="1" stroke-linecap="round" stroke-linejoin="round" stroke="rgb(60%,60%,60%)" stroke-opacity="1" stroke-miterlimit="10"/><path d="M 317.242188 324.496094 C 317.242188 329.160156 310.242188 329.160156 310.242188 324.496094 C 310.242188 319.828125 317.242188 319.828125 317.242188 324.496094 " type="plot-point" class="aqm34" onclick="plotObjRespond('click', 34, 'pca')" onmouseover="plotObjRespond('show', 34, 'pca')" onmouseout="plotObjRespond('hide', 34, 'pca')" fill-rule="nonzero" fill="rgb(60%,60%,60%)" fill-opacity="1" stroke-width="1" stroke-linecap="round" stroke-linejoin="round" stroke="rgb(60%,60%,60%)" stroke-opacity="1" stroke-miterlimit="10"/><path d="M 267.277344 304.195313 C 267.277344 308.859375 260.277344 308.859375 260.277344 304.195313 C 260.277344 299.527344 267.277344 299.527344 267.277344 304.195313 " type="plot-point" class="aqm35" onclick="plotObjRespond('click', 35, 'pca')" onmouseover="plotObjRespond('show', 35, 'pca')" onmouseout="plotObjRespond('hide', 35, 'pca')" fill-rule="nonzero" fill="rgb(60%,60%,60%)" fill-opacity="1" stroke-width="1" stroke-linecap="round" stroke-linejoin="round" stroke="rgb(60%,60%,60%)" stroke-opacity="1" stroke-miterlimit="10"/><path d="M 310.425781 318 C 310.425781 322.667969 303.425781 322.667969 303.425781 318 C 303.425781 313.335938 310.425781 313.335938 310.425781 318 " type="plot-point" class="aqm36" onclick="plotObjRespond('click', 36, 'pca')" onmouseover="plotObjRespond('show', 36, 'pca')" onmouseout="plotObjRespond('hide', 36, 'pca')" fill-rule="nonzero" fill="rgb(60%,60%,60%)" fill-opacity="1" stroke-width="1" stroke-linecap="round" stroke-linejoin="round" stroke="rgb(60%,60%,60%)" stroke-opacity="1" stroke-miterlimit="10"/><path d="M 166.402344 352.207031 C 166.402344 356.875 159.402344 356.875 159.402344 352.207031 C 159.402344 347.539063 166.402344 347.539063 166.402344 352.207031 " type="plot-point" class="aqm37" onclick="plotObjRespond('click', 37, 'pca')" onmouseover="plotObjRespond('show', 37, 'pca')" onmouseout="plotObjRespond('hide', 37, 'pca')" fill-rule="nonzero" fill="rgb(60%,60%,60%)" fill-opacity="1" stroke-width="1" stroke-linecap="round" stroke-linejoin="round" stroke="rgb(60%,60%,60%)" stroke-opacity="1" stroke-miterlimit="10"/><path d="M 208.589844 344.070313 C 208.589844 348.734375 201.589844 348.734375 201.589844 344.070313 C 201.589844 339.402344 208.589844 339.402344 208.589844 344.070313 " type="plot-point" class="aqm38" onclick="plotObjRespond('click', 38, 'pca')" onmouseover="plotObjRespond('show', 38, 'pca')" onmouseout="plotObjRespond('hide', 38, 'pca')" fill-rule="nonzero" fill="rgb(60%,60%,60%)" fill-opacity="1" stroke-width="1" stroke-linecap="round" stroke-linejoin="round" stroke="rgb(60%,60%,60%)" stroke-opacity="1" stroke-miterlimit="10"/><path d="M 224.90625 331.542969 C 224.90625 336.210938 217.90625 336.210938 217.90625 331.542969 C 217.90625 326.875 224.90625 326.875 224.90625 331.542969 " type="plot-point" class="aqm39" onclick="plotObjRespond('click', 39, 'pca')" onmouseover="plotObjRespond('show', 39, 'pca')" onmouseout="plotObjRespond('hide', 39, 'pca')" fill-rule="nonzero" fill="rgb(60%,60%,60%)" fill-opacity="1" stroke-width="1" stroke-linecap="round" stroke-linejoin="round" stroke="rgb(60%,60%,60%)" stroke-opacity="1" stroke-miterlimit="10"/><path d="M 231.140625 320.199219 C 231.140625 324.867188 224.140625 324.867188 224.140625 320.199219 C 224.140625 315.53125 231.140625 315.53125 231.140625 320.199219 " type="plot-point" class="aqm40" onclick="plotObjRespond('click', 40, 'pca')" onmouseover="plotObjRespond('show', 40, 'pca')" onmouseout="plotObjRespond('hide', 40, 'pca')" fill-rule="nonzero" fill="rgb(60%,60%,60%)" fill-opacity="1" stroke-width="1" stroke-linecap="round" stroke-linejoin="round" stroke="rgb(60%,60%,60%)" stroke-opacity="1" stroke-miterlimit="10"/><path d="M 182.789063 351.753906 C 182.789063 356.421875 175.789063 356.421875 175.789063 351.753906 C 175.789063 347.085938 182.789063 347.085938 182.789063 351.753906 " type="plot-point" class="aqm41" onclick="plotObjRespond('click', 41, 'pca')" onmouseover="plotObjRespond('show', 41, 'pca')" onmouseout="plotObjRespond('hide', 41, 'pca')" fill-rule="nonzero" fill="rgb(60%,60%,60%)" fill-opacity="1" stroke-width="1" stroke-linecap="round" stroke-linejoin="round" stroke="rgb(60%,60%,60%)" stroke-opacity="1" stroke-miterlimit="10"/><path d="M 148.503906 361.722656 C 148.503906 366.386719 141.503906 366.386719 141.503906 361.722656 C 141.503906 357.054688 148.503906 357.054688 148.503906 361.722656 " type="plot-point" class="aqm42" onclick="plotObjRespond('click', 42, 'pca')" onmouseover="plotObjRespond('show', 42, 'pca')" onmouseout="plotObjRespond('hide', 42, 'pca')" fill-rule="nonzero" fill="rgb(60%,60%,60%)" fill-opacity="1" stroke-width="1" stroke-linecap="round" stroke-linejoin="round" stroke="rgb(60%,60%,60%)" stroke-opacity="1" stroke-miterlimit="10"/><path d="M 236.386719 339.195313 C 236.386719 343.863281 229.386719 343.863281 229.386719 339.195313 C 229.386719 334.527344 236.386719 334.527344 236.386719 339.195313 " type="plot-point" class="aqm43" onclick="plotObjRespond('click', 43, 'pca')" onmouseover="plotObjRespond('show', 43, 'pca')" onmouseout="plotObjRespond('hide', 43, 'pca')" fill-rule="nonzero" fill="rgb(60%,60%,60%)" fill-opacity="1" stroke-width="1" stroke-linecap="round" stroke-linejoin="round" stroke="rgb(60%,60%,60%)" stroke-opacity="1" stroke-miterlimit="10"/><path d="M 291.324219 332.039063 C 291.324219 336.707031 284.324219 336.707031 284.324219 332.039063 C 284.324219 327.371094 291.324219 327.371094 291.324219 332.039063 " type="plot-point" class="aqm44" onclick="plotObjRespond('click', 44, 'pca')" onmouseover="plotObjRespond('show', 44, 'pca')" onmouseout="plotObjRespond('hide', 44, 'pca')" fill-rule="nonzero" fill="rgb(60%,60%,60%)" fill-opacity="1" stroke-width="1" stroke-linecap="round" stroke-linejoin="round" stroke="rgb(60%,60%,60%)" stroke-opacity="1" stroke-miterlimit="10"/></g><path style="fill:none;stroke-width:1;stroke-linecap:round;stroke-linejoin:round;stroke:rgb(0%,0%,0%);stroke-opacity:1;stroke-miterlimit:10;" d="M 69.40625 233.265625 L 354.511719 233.265625 L 354.511719 370.125 L 69.40625 370.125 Z M 69.40625 233.265625 "/></g></svg>
